<?xml version="1.0" encoding="UTF-8"?>
<svg width="306px" height="67px" viewBox="0 0 306 67" version="1.1" xmlns="http://www.w3.org/2000/svg" xmlns:xlink="http://www.w3.org/1999/xlink">
    <!-- Generator: Sketch 59.1 (86144) - https://sketch.com -->
    <title>cloud</title>
    <desc>Created with Sketch.</desc>
    <g id="Web" stroke="none" stroke-width="1" fill="none" fill-rule="evenodd">
        <g id="landing-page" transform="translate(-292.000000, -3809.000000)" fill="#E40DF2">
            <g id="Clouds" transform="translate(127.000000, 3778.000000)">
                <path d="M294.043066,31 C321.190594,31 343.829792,50.1651955 348.984899,75.6120984 C355.614377,70.1102146 364.152987,66.7990194 373.470508,66.7990194 C385.209945,66.7990194 395.71292,72.055302 402.722353,80.3268387 C409.960663,76.6533844 418.161256,74.5819252 426.849129,74.5819252 C445.254624,74.5819252 461.473129,83.8789596 471.000855,98.0012672 L164.999597,98.0003448 C176.570059,83.0504877 194.760201,73.4145522 215.217055,73.4145522 C223.511536,73.4145522 231.43337,74.9986961 238.692399,77.8788878 C242.924496,51.3126691 266.094653,31 294.043066,31 Z" id="cloud" transform="translate(318.000000, 64.500000) scale(-1, 1) translate(-318.000000, -64.500000) "></path>
            </g>
        </g>
    </g>
</svg>