<?xml version="1.0" encoding="UTF-8"?>
<svg width="542px" height="402px" viewBox="0 0 542 402" version="1.1" xmlns="http://www.w3.org/2000/svg" xmlns:xlink="http://www.w3.org/1999/xlink">
    <!-- Generator: Sketch 59.1 (86144) - https://sketch.com -->
    <title>trees</title>
    <desc>Created with Sketch.</desc>
    <defs>
        <path d="M-2.06057393e-13,6.62967047 C38.825612,40.091994 53.5153046,57.3969153 74.4894007,113.323702 C95.4634967,169.250489 94.2048661,208.218575 93.8235831,256.807392 C100.000064,258.129204 105.846228,258.811818 111.362077,258.855234 C116.877925,258.89865 122.394489,258.305474 127.911769,257.075705 C128.324318,204.502532 119.355889,165.172724 93.8235831,107.295953 C68.2912773,49.4191828 48.3472796,37.0827336 5.32098384,-5.68434189e-14 L-2.06057393e-13,6.62967047 Z" id="path-1"></path>
        <path d="M-2.06057393e-13,4.54916499 C26.5531484,27.5104315 36.5995474,39.3847686 50.9439005,77.7607606 C65.2882535,116.136753 64.4274659,142.875978 64.1667034,176.216782 C68.3908481,177.123786 72.389087,177.592184 76.1614201,177.621975 C79.9337533,177.651767 83.706576,177.244739 87.4798882,176.400893 C87.7620336,140.326093 81.6284528,113.338661 64.1667034,73.6246237 C46.704954,33.9105868 33.0650935,25.4455292 3.63906366,-5.68434189e-14 L-2.06057393e-13,4.54916499 Z" id="path-3"></path>
    </defs>
    <g id="Web" stroke="none" stroke-width="1" fill="none" fill-rule="evenodd">
        <g id="landing-page" transform="translate(-883.000000, -2836.000000)">
            <g id="Pricing" transform="translate(62.000000, 2412.000000)">
                <g id="Pricing-Illustrations">
                    <g id="trees" transform="translate(1092.000000, 620.000000) scale(-1, 1) translate(-1092.000000, -620.000000) translate(818.000000, 406.000000)">
                        <g id="Palm">
                            <g id="Group-13-Copy-4" transform="translate(198.709282, 160.323401)">
                                <g id="Combined-Shape" transform="translate(0.929367, 0.022761)">
                                    <mask id="mask-2" fill="white">
                                        <use xlink:href="#path-1"></use>
                                    </mask>
                                    <use id="Mask" fill="#3E3B75" fill-rule="nonzero" xlink:href="#path-1"></use>
                                    <line x1="90.1457209" y1="198.726318" x2="116.019325" y2="194.585712" id="Line-7" stroke="#514D99" stroke-width="3.19999981" opacity="0.385875884" mask="url(#mask-2)"></line>
                                    <line x1="92.2156093" y1="239.097225" x2="131.026016" y2="236.509346" id="Line-7-Copy-9" stroke="#514D99" stroke-width="3.19999981" opacity="0.385875884" mask="url(#mask-2)"></line>
                                    <line x1="90.1457209" y1="172.847532" x2="116.536797" y2="166.119047" id="Line-7-Copy" stroke="#514D99" stroke-width="3.19999981" opacity="0.385875884" mask="url(#mask-2)"></line>
                                    <line x1="87.2996244" y1="160.684502" x2="113.690701" y2="153.956017" id="Line-7-Copy-2" stroke="#514D99" stroke-width="3.19999981" opacity="0.385875884" mask="url(#mask-2)"></line>
                                    <line x1="72.810406" y1="142.051776" x2="99.9776906" y2="135.064503" id="Line-7-Copy-3" stroke="#514D99" stroke-width="3.19999981" opacity="0.385875884" mask="url(#mask-2)"></line>
                                    <line x1="86.2646802" y1="121.348747" x2="111.362077" y2="112.291171" id="Line-7-Copy-4" stroke="#514D99" stroke-width="3.19999981" opacity="0.385875884" mask="url(#mask-2)"></line>
                                    <line x1="68.9293653" y1="109.185717" x2="95.0617057" y2="100.128142" id="Line-7-Copy-5" stroke="#514D99" stroke-width="3.19999981" opacity="0.385875884" mask="url(#mask-2)"></line>
                                    <line x1="61.6847561" y1="93.6584453" x2="86.5234163" y2="84.3420822" id="Line-7-Copy-6" stroke="#514D99" stroke-width="3.19999981" opacity="0.385875884" mask="url(#mask-2)"></line>
                                    <line x1="50.9472102" y1="86.8005669" x2="86.3940483" y2="72.5672345" id="Line-7-Copy-7" stroke="#514D99" stroke-width="3.19999981" opacity="0.385875884" mask="url(#mask-2)"></line>
                                    <line x1="46.9368015" y1="69.591174" x2="73.069142" y2="58.4632959" id="Line-7-Copy-8" stroke="#514D99" stroke-width="3.19999981" opacity="0.385875884" mask="url(#mask-2)"></line>
                                    <line x1="40.5977685" y1="60.9217806" x2="65.8245328" y2="48.1117814" id="Line-7-Copy-10" stroke="#514D99" stroke-width="3.19999981" opacity="0.385875884" mask="url(#mask-2)"></line>
                                    <line x1="30.3130107" y1="45.7179936" x2="55.539775" y2="32.9079944" id="Line-7-Copy-11" stroke="#514D99" stroke-width="3.19999981" opacity="0.385875884" mask="url(#mask-2)"></line>
                                    <line x1="13.7539039" y1="37.436782" x2="38.9806682" y2="24.6267828" id="Line-7-Copy-12" stroke="#514D99" stroke-width="3.19999981" opacity="0.385875884" mask="url(#mask-2)"></line>
                                    <line x1="3.40446213" y1="30.1907218" x2="28.6312264" y2="17.3807226" id="Line-7-Copy-13" stroke="#514D99" stroke-width="3.19999981" opacity="0.385875884" mask="url(#mask-2)"></line>
                                    <line x1="92.2156093" y1="221.49965" x2="127.403711" y2="218.394195" id="Line-6" stroke="#514D99" stroke-width="3.19999981" opacity="0.385875884" mask="url(#mask-2)"></line>
                                </g>
                            </g>
                            <g id="Group-12-Copy-5" transform="translate(112.780302, 101.139032) rotate(-54.000000) translate(-112.780302, -101.139032) translate(73.323053, -9.492786)">
                                <path d="M4.83907174,0.766759849 C54.2494232,62.7382987 78.3760522,109.663756 77.2189588,141.543131 C76.0618653,173.422506 63.913932,199.859742 40.7751586,220.854838 C23.322761,201.323598 11.3638673,171.759562 4.8984774,132.162729 C-1.56691249,92.5658961 -1.58671438,48.7672396 4.83907174,0.766759849 Z" id="Path-3" fill="#9551C9"></path>
                                <path d="M4.83907174,0.766759849 C54.2494232,62.7382987 78.3760522,109.663756 77.2189588,141.543131 C76.0618653,173.422506 63.913932,199.859742 40.7751586,220.854838 C46.2266386,198.288994 45.7196836,167.207656 39.2542937,127.610823 C32.7889038,88.0139898 21.3171631,45.7326355 4.83907174,0.766759849 Z" id="Path-3-Copy" fill="#AE5FEC"></path>
                                <path d="M4.83907174,0.766759849 C22.3092633,50.0673688 33.5701719,91.2724702 38.6217974,124.382064 C43.6734229,157.491658 44.3803067,189.475967 40.7424488,220.334993" id="Line" stroke="#FFFFFF" stroke-width="0.799999952" stroke-linecap="round"></path>
                                <line x1="35.0661634" y1="103.353601" x2="58.393082" y2="80.5452495" id="Line-2" stroke="#FFFFFF" stroke-width="0.799999952" stroke-linecap="round"></line>
                                <line x1="43.2472131" y1="176.191654" x2="77.8123436" y2="141.062346" id="Line-3" stroke="#FFFFFF" stroke-width="0.799999952" stroke-linecap="round"></line>
                                <line x1="21.016133" y1="51.2799093" x2="1.29058685" y2="33.3703867" id="Line-4" stroke="#FFFFFF" stroke-width="0.799999952" stroke-linecap="round"></line>
                                <line x1="38.9519624" y1="129.648899" x2="1.02193017" y2="94.0228184" id="Line-5" stroke="#FFFFFF" stroke-width="0.799999952" stroke-linecap="round"></line>
                            </g>
                            <g id="Group-12-Copy-8" transform="translate(239.417652, 86.372662) scale(-1, 1) rotate(-25.000000) translate(-239.417652, -86.372662) translate(207.722485, -2.262186)">
                                <path d="M3.87125716,0.613407843 C43.399536,50.190636 62.700838,87.7309994 61.7751633,113.234498 C60.8494886,138.737997 51.1311425,159.887784 32.620125,176.68386 C18.6582077,161.058869 9.09109329,137.407641 3.91878168,105.730177 C-1.25352992,74.0527124 -1.26937143,39.0137894 3.87125716,0.613407843 Z" id="Path-3" fill="#9551C9"></path>
                                <path d="M3.87125716,0.613407843 C43.399536,50.190636 62.700838,87.7309994 61.7751633,113.234498 C60.8494886,138.737997 51.1311425,159.887784 32.620125,176.68386 C36.9813086,158.631186 36.5757447,133.766117 31.4034331,102.088652 C26.2311215,70.4111876 17.0537295,36.5861062 3.87125716,0.613407843 Z" id="Path-3-Copy" fill="#AE5FEC"></path>
                                <path d="M3.87125716,0.613407843 C17.8474096,40.0538926 26.8561359,73.0179718 30.8974361,99.5056453 C34.9387362,125.993319 35.5042433,151.580765 32.5939571,176.267984" id="Line" stroke="#FFFFFF" stroke-width="0.799999952" stroke-linecap="round"></path>
                                <line x1="28.052929" y1="82.6828763" x2="46.7144628" y2="64.4361958" id="Line-2" stroke="#FFFFFF" stroke-width="0.799999952" stroke-linecap="round"></line>
                                <line x1="34.5977685" y1="140.953315" x2="62.2498712" y2="112.84987" id="Line-3" stroke="#FFFFFF" stroke-width="0.799999952" stroke-linecap="round"></line>
                                <line x1="16.8129054" y1="41.023925" x2="1.03246942" y2="26.6963077" id="Line-4" stroke="#FFFFFF" stroke-width="0.799999952" stroke-linecap="round"></line>
                                <line x1="31.161568" y1="103.719113" x2="0.817544087" y2="75.2182502" id="Line-5" stroke="#FFFFFF" stroke-width="0.799999952" stroke-linecap="round"></line>
                            </g>
                            <g id="Group-12-Copy-7" transform="translate(271.827996, 149.551280) scale(-1, 1) rotate(-77.000000) translate(-271.827996, -149.551280) translate(246.601230, 77.737644)">
                                <path d="M3.13571813,0.496860326 C35.1536223,40.654413 50.7876761,71.0621058 50.0378797,91.7199387 C49.2880832,112.377772 41.4162232,129.509098 26.4222998,143.113919 C15.1131474,130.457677 7.36378517,111.300184 3.174213,85.6414388 C-1.01535918,59.9826939 -1.0281908,31.6011677 3.13571813,0.496860326 Z" id="Path-3" fill="#9551C9"></path>
                                <path d="M3.13571813,0.496860326 C35.1536223,40.654413 50.7876761,71.0621058 50.0378797,91.7199387 C49.2880832,112.377772 41.4162232,129.509098 26.4222998,143.113919 C29.9548584,128.491254 29.6263516,108.350549 25.4367794,82.6918039 C21.2472073,57.033059 13.8135202,29.6347445 3.13571813,0.496860326 Z" id="Path-3-Copy" fill="#AE5FEC"></path>
                                <path d="M3.13571813,0.496860326 C14.456401,32.4436513 21.7534689,59.144554 25.0269219,80.5995684 C28.3003749,102.054583 28.7584355,122.780413 26.4011038,142.777059" id="Line" stroke="#FFFFFF" stroke-width="0.799999952" stroke-linecap="round"></path>
                                <line x1="22.7228713" y1="66.9731262" x2="37.8387129" y2="52.1933158" id="Line-2" stroke="#FFFFFF" stroke-width="0.799999952" stroke-linecap="round"></line>
                                <line x1="28.024191" y1="114.172179" x2="50.0390116" y2="89.2040589" id="Line-3" stroke="#FFFFFF" stroke-width="0.799999952" stroke-linecap="round"></line>
                                <line x1="13.6184527" y1="33.2293775" x2="0.836300184" y2="21.6240081" id="Line-4" stroke="#FFFFFF" stroke-width="0.799999952" stroke-linecap="round"></line>
                                <line x1="25.2408688" y1="84.012477" x2="0.662210675" y2="60.9267794" id="Line-5" stroke="#FFFFFF" stroke-width="0.799999952" stroke-linecap="round"></line>
                            </g>
                            <g id="Group-12-Copy-6" transform="translate(135.697638, 192.882197) rotate(-112.000000) translate(-135.697638, -192.882197) translate(109.824033, 119.774621)">
                                <path d="M3.19378723,0.506061481 C35.804618,41.4072756 51.7281925,72.3780761 50.9645109,93.418463 C50.2008292,114.45885 42.1831935,131.907425 26.9116037,145.764187 C15.3930217,132.87357 7.50015212,113.361307 3.23299496,87.2273979 C-1.03416221,61.0934891 -1.04723145,32.1863769 3.19378723,0.506061481 Z" id="Path-3" fill="#9551C9"></path>
                                <path d="M3.19378723,0.506061481 C35.804618,41.4072756 51.7281925,72.3780761 50.9645109,93.418463 C50.2008292,114.45885 42.1831935,131.907425 26.9116037,145.764187 C30.5095803,130.870731 30.17499,110.357049 25.9078329,84.2231399 C21.6406757,58.0892311 14.0693271,30.1835383 3.19378723,0.506061481 Z" id="Path-3-Copy" fill="#AE5FEC"></path>
                                <path d="M3.19378723,0.506061481 C14.7241132,33.0444621 22.1563126,60.239828 25.4903853,82.0921591 C28.824458,103.94449 29.2910013,125.054134 26.8900152,145.42109" id="Line" stroke="#FFFFFF" stroke-width="0.799999952" stroke-linecap="round"></path>
                                <line x1="23.143667" y1="68.2133744" x2="38.5394327" y2="53.1598627" id="Line-2" stroke="#FFFFFF" stroke-width="0.799999952" stroke-linecap="round"></line>
                                <line x1="28.5431596" y1="116.286487" x2="51.3561448" y2="93.1011451" id="Line-3" stroke="#FFFFFF" stroke-width="0.799999952" stroke-linecap="round"></line>
                                <line x1="13.8706473" y1="33.8447389" x2="0.851787288" y2="22.0244544" id="Line-4" stroke="#FFFFFF" stroke-width="0.799999952" stroke-linecap="round"></line>
                                <line x1="25.7082942" y1="85.56827" x2="0.674473886" y2="62.0550578" id="Line-5" stroke="#FFFFFF" stroke-width="0.799999952" stroke-linecap="round"></line>
                            </g>
                        </g>
                        <g id="Palm" transform="translate(427.999974, 245.599985) scale(-1, 1) translate(-427.999974, -245.599985) translate(308.799982, 99.199994)">
                            <g id="Group-13-Copy-4" transform="translate(135.898877, 110.011139)">
                                <g id="Combined-Shape" transform="translate(0.635601, 0.015618)">
                                    <mask id="mask-4" fill="white">
                                        <use xlink:href="#path-3"></use>
                                    </mask>
                                    <use id="Mask" fill="#3E3B75" fill-rule="nonzero" xlink:href="#path-3"></use>
                                    <line x1="61.6513838" y1="136.362555" x2="79.3465501" y2="133.521343" id="Line-7" stroke="#514D99" stroke-width="3.19999981" opacity="0.385875884" mask="url(#mask-4)"></line>
                                    <line x1="63.0669971" y1="164.064372" x2="89.6097465" y2="162.288614" id="Line-7-Copy-9" stroke="#514D99" stroke-width="3.19999981" opacity="0.385875884" mask="url(#mask-4)"></line>
                                    <line x1="61.6513838" y1="118.604981" x2="79.7004534" y2="113.988011" id="Line-7-Copy" stroke="#514D99" stroke-width="3.19999981" opacity="0.385875884" mask="url(#mask-4)"></line>
                                    <line x1="59.7049156" y1="110.258921" x2="77.7539851" y2="105.641951" id="Line-7-Copy-2" stroke="#514D99" stroke-width="3.19999981" opacity="0.385875884" mask="url(#mask-4)"></line>
                                    <line x1="49.7956225" y1="97.4734667" x2="68.375547" y2="92.6789216" id="Line-7-Copy-3" stroke="#514D99" stroke-width="3.19999981" opacity="0.385875884" mask="url(#mask-4)"></line>
                                    <line x1="58.9971089" y1="83.267407" x2="76.1614201" y2="77.0522558" id="Line-7-Copy-4" stroke="#514D99" stroke-width="3.19999981" opacity="0.385875884" mask="url(#mask-4)"></line>
                                    <line x1="47.1413475" y1="74.9213469" x2="65.0134654" y2="68.7061957" id="Line-7-Copy-5" stroke="#514D99" stroke-width="3.19999981" opacity="0.385875884" mask="url(#mask-4)"></line>
                                    <line x1="42.186701" y1="64.2668021" x2="59.1740606" y2="57.8740752" id="Line-7-Copy-6" stroke="#514D99" stroke-width="3.19999981" opacity="0.385875884" mask="url(#mask-4)"></line>
                                    <line x1="34.843207" y1="59.5610448" x2="59.0855847" y2="49.7943787" id="Line-7-Copy-7" stroke="#514D99" stroke-width="3.19999981" opacity="0.385875884" mask="url(#mask-4)"></line>
                                    <line x1="32.1004562" y1="47.7522576" x2="49.9725741" y2="40.1165005" id="Line-7-Copy-8" stroke="#514D99" stroke-width="3.19999981" opacity="0.385875884" mask="url(#mask-4)"></line>
                                    <line x1="27.7651405" y1="41.8034701" x2="45.0179276" y2="33.0134706" id="Line-7-Copy-10" stroke="#514D99" stroke-width="3.19999981" opacity="0.385875884" mask="url(#mask-4)"></line>
                                    <line x1="20.7313119" y1="31.3708949" x2="37.984099" y2="22.5808955" id="Line-7-Copy-11" stroke="#514D99" stroke-width="3.19999981" opacity="0.385875884" mask="url(#mask-4)"></line>
                                    <line x1="9.40640554" y1="25.688471" x2="26.6591926" y2="16.8984716" id="Line-7-Copy-12" stroke="#514D99" stroke-width="3.19999981" opacity="0.385875884" mask="url(#mask-4)"></line>
                                    <line x1="2.32833905" y1="20.7163501" x2="19.5811261" y2="11.9263506" id="Line-7-Copy-13" stroke="#514D99" stroke-width="3.19999981" opacity="0.385875884" mask="url(#mask-4)"></line>
                                    <line x1="63.0669971" y1="151.989221" x2="87.1324232" y2="149.858312" id="Line-6" stroke="#514D99" stroke-width="3.19999981" opacity="0.385875884" mask="url(#mask-4)"></line>
                                </g>
                            </g>
                            <g id="Group-12-Copy-5" transform="translate(77.131356, 69.399851) rotate(-54.000000) translate(-77.131356, -69.399851) translate(50.146226, -6.513785)">
                                <path d="M3.3094801,0.52613732 C37.101617,43.0499333 53.6020127,75.2493688 52.8106672,97.1244436 C52.0193217,118.999519 43.7112523,137.140291 27.8864591,151.546762 C15.9506239,138.144764 7.77184027,117.858435 3.3501081,90.6877743 C-1.07162406,63.5171137 -1.08516673,33.4632347 3.3094801,0.52613732 Z" id="Path-3" fill="#9551C9"></path>
                                <path d="M3.3094801,0.52613732 C37.101617,43.0499333 53.6020127,75.2493688 52.8106672,97.1244436 C52.0193217,118.999519 43.7112523,137.140291 27.8864591,151.546762 C31.6147701,136.062471 31.2680595,114.734996 26.8463273,87.5643351 C22.4245951,60.3936745 14.5789794,31.3809419 3.3094801,0.52613732 Z" id="Path-3-Copy" fill="#AE5FEC"></path>
                                <path d="M3.3094801,0.52613732 C15.2574847,34.3553608 22.9589107,62.6295873 26.413758,85.3488168 C29.8686053,108.068046 30.3520488,130.015125 27.8640885,151.190053" id="Line" stroke="#FFFFFF" stroke-width="0.799999952" stroke-linecap="round"></path>
                                <line x1="23.9820313" y1="70.9194502" x2="39.9354986" y2="55.2687544" id="Line-2" stroke="#FFFFFF" stroke-width="0.799999952" stroke-linecap="round"></line>
                                <line x1="29.577117" y1="120.89966" x2="53.2164879" y2="96.7945375" id="Line-3" stroke="#FFFFFF" stroke-width="0.799999952" stroke-linecap="round"></line>
                                <line x1="14.3731025" y1="35.1873851" x2="0.88264273" y2="22.898181" id="Line-4" stroke="#FFFFFF" stroke-width="0.799999952" stroke-linecap="round"></line>
                                <line x1="26.6395605" y1="88.9628275" x2="0.698906265" y2="64.5168285" id="Line-5" stroke="#FFFFFF" stroke-width="0.799999952" stroke-linecap="round"></line>
                            </g>
                            <g id="Group-12-Copy-8" transform="translate(163.739659, 59.267424) scale(-1, 1) rotate(-25.000000) translate(-163.739659, -59.267424) translate(142.063079, -1.552273)">
                                <path d="M2.64758392,0.420909831 C29.6812918,34.4399446 42.8816076,60.1994914 42.2485312,77.6995503 C41.6154549,95.1996091 34.9689998,109.712227 22.3091659,121.237402 C12.7604984,110.515805 6.21747185,94.2867423 2.68008632,72.5502151 C-0.857299197,50.8136879 -0.868133332,26.7705862 2.64758392,0.420909831 Z" id="Path-3" fill="#9551C9"></path>
                                <path d="M2.64758392,0.420909831 C29.6812918,34.4399446 42.8816076,60.1994914 42.2485312,77.6995503 C41.6154549,95.1996091 34.9689998,109.712227 22.3091659,121.237402 C25.2918145,108.849971 25.0144461,91.7879911 21.4770606,70.0514639 C17.939675,48.3149367 11.6631828,25.104752 2.64758392,0.420909831 Z" id="Path-3-Copy" fill="#AE5FEC"></path>
                                <path d="M2.64758392,0.420909831 C12.205987,27.484287 18.3671274,50.1036668 21.1310051,68.2790493 C23.8948828,86.4544319 24.2816376,104.012094 22.2912695,120.952036" id="Line" stroke="#FFFFFF" stroke-width="0.799999952" stroke-linecap="round"></path>
                                <line x1="19.1856239" y1="56.7355568" x2="31.948397" y2="44.2150009" id="Line-2" stroke="#FFFFFF" stroke-width="0.799999952" stroke-linecap="round"></line>
                                <line x1="23.6616922" y1="96.719722" x2="42.5731877" y2="77.4356254" id="Line-3" stroke="#FFFFFF" stroke-width="0.799999952" stroke-linecap="round"></line>
                                <line x1="11.4984813" y1="28.1499064" x2="0.706114142" y2="18.3185437" id="Line-4" stroke="#FFFFFF" stroke-width="0.799999952" stroke-linecap="round"></line>
                                <line x1="21.3116471" y1="71.1702578" x2="0.559124979" y2="51.6134598" id="Line-5" stroke="#FFFFFF" stroke-width="0.799999952" stroke-linecap="round"></line>
                            </g>
                            <g id="Group-12-Copy-7" transform="translate(185.905353, 102.619497) scale(-1, 1) rotate(-77.000000) translate(-185.905353, -102.619497) translate(168.652565, 53.342224)">
                                <path d="M2.14454286,0.340936945 C24.0418451,27.8963537 34.7341003,48.7615855 34.2213085,62.9366324 C33.7085167,77.1116793 28.3248883,88.8668988 18.0704234,98.2022908 C10.3360031,89.5177971 5.03615193,76.3722572 2.17086981,58.7656711 C-0.694412313,41.159085 -0.703187962,21.6841736 2.14454286,0.340936945 Z" id="Path-3" fill="#9551C9"></path>
                                <path d="M2.14454286,0.340936945 C24.0418451,27.8963537 34.7341003,48.7615855 34.2213085,62.9366324 C33.7085167,77.1116793 28.3248883,88.8668988 18.0704234,98.2022908 C20.4863687,88.1684715 20.2617002,74.3482688 17.3964181,56.7416828 C14.531136,39.1350967 9.44717758,20.3348481 2.14454286,0.340936945 Z" id="Path-3-Copy" fill="#AE5FEC"></path>
                                <path d="M2.14454286,0.340936945 C9.88684897,22.2622713 14.8773724,40.583968 17.1161132,55.306027 C19.3548541,70.0280861 19.6681254,84.2497916 18.0559273,97.9711436" id="Line" stroke="#FFFFFF" stroke-width="0.799999952" stroke-linecap="round"></path>
                                <line x1="15.5403545" y1="45.9557986" x2="25.8782002" y2="35.8141488" id="Line-2" stroke="#FFFFFF" stroke-width="0.799999952" stroke-linecap="round"></line>
                                <line x1="19.1659697" y1="78.3429707" x2="34.2220827" y2="61.2102793" id="Line-3" stroke="#FFFFFF" stroke-width="0.799999952" stroke-linecap="round"></line>
                                <line x1="9.31376935" y1="22.801423" x2="0.571952425" y2="14.8380196" id="Line-4" stroke="#FFFFFF" stroke-width="0.799999952" stroke-linecap="round"></line>
                                <line x1="17.2624332" y1="57.6479057" x2="0.452891209" y2="41.8069002" id="Line-5" stroke="#FFFFFF" stroke-width="0.799999952" stroke-linecap="round"></line>
                            </g>
                            <g id="Group-12-Copy-6" transform="translate(92.804707, 132.352421) rotate(-112.000000) translate(-92.804707, -132.352421) translate(75.109539, 82.187269)">
                                <path d="M2.18425678,0.347250618 C24.4870663,28.4129549 35.3773271,49.6645815 34.855039,64.1021304 C34.332751,78.5396792 28.8494254,90.5125888 18.4050623,100.020859 C10.5274114,91.1755409 5.12941438,77.7865641 2.21107127,59.8539288 C-0.707271853,41.9212934 -0.716210014,22.0857341 2.18425678,0.347250618 Z" id="Path-3" fill="#9551C9"></path>
                                <path d="M2.18425678,0.347250618 C24.4870663,28.4129549 35.3773271,49.6645815 34.855039,64.1021304 C34.332751,78.5396792 28.8494254,90.5125888 18.4050623,100.020859 C20.8657474,89.8012277 20.6369185,75.7250943 17.7185753,57.792459 C14.8002322,39.8598237 9.62212604,20.7114209 2.18425678,0.347250618 Z" id="Path-3-Copy" fill="#AE5FEC"></path>
                                <path d="M2.18425678,0.347250618 C10.0699395,22.6745373 15.1528805,41.335526 17.4330796,56.3302169 C19.7132788,71.3249078 20.0323515,85.8099794 18.3902977,99.7854315" id="Line" stroke="#FFFFFF" stroke-width="0.799999952" stroke-linecap="round"></path>
                                <line x1="15.82814" y1="46.8068354" x2="26.3574281" y2="36.4773765" id="Line-2" stroke="#FFFFFF" stroke-width="0.799999952" stroke-linecap="round"></line>
                                <line x1="19.5208965" y1="79.7937724" x2="35.1228806" y2="63.8843923" id="Line-3" stroke="#FFFFFF" stroke-width="0.799999952" stroke-linecap="round"></line>
                                <line x1="9.48624727" y1="23.2236733" x2="0.58254418" y2="15.1127989" id="Line-4" stroke="#FFFFFF" stroke-width="0.799999952" stroke-linecap="round"></line>
                                <line x1="17.5821092" y1="58.7154639" x2="0.461278118" y2="42.5811052" id="Line-5" stroke="#FFFFFF" stroke-width="0.799999952" stroke-linecap="round"></line>
                            </g>
                        </g>
                    </g>
                </g>
            </g>
        </g>
    </g>
</svg>