<?xml version="1.0" encoding="UTF-8"?>
<svg width="170px" height="26px" viewBox="0 0 170 26" version="1.1" xmlns="http://www.w3.org/2000/svg" xmlns:xlink="http://www.w3.org/1999/xlink">
    <!-- Generator: Sketch 55.2 (78181) - https://sketchapp.com -->
    <title>vuefilemanager-horizontal-logo</title>
    <desc>Created with Sketch.</desc>
    <g id="vuefilemanager-horizontal-logo" stroke="none" stroke-width="1" fill="none" fill-rule="evenodd">
        <g id="Logo" transform="translate(0.000000, 3.000000)">
            <path d="M43.0278429,4.17398329 C43.1488388,3.89273252 43.3273586,3.67682248 43.5620548,3.53186308 C43.7930342,3.38919932 44.0518491,3.31768469 44.3342814,3.31768469 C44.73272,3.31768469 45.0938924,3.45145225 45.4103422,3.71516041 C45.7358956,3.98645489 45.9036493,4.32895207 45.9036493,4.72904862 C45.9036493,4.93461452 45.8559821,5.13890243 45.7615049,5.34134586 L41.0210644,15.3489391 C40.8747312,15.6549086 40.6531686,15.8932562 40.3600915,16.0597773 C40.0722669,16.223314 39.7573024,16.305336 39.4186016,16.305336 C39.0799009,16.305336 38.7649363,16.223314 38.4771118,16.0597773 C38.1840347,15.8932562 37.9624721,15.6549086 37.8158181,15.3482653 L33.0775605,5.34517131 C32.9818971,5.15384447 32.933554,4.95356577 32.933554,4.74660462 C32.933554,4.33354005 33.1083376,3.98397276 33.4475149,3.7126309 C33.7752727,3.45042467 34.1469447,3.31768469 34.5555899,3.31768469 C34.8373543,3.31768469 35.098253,3.38883888 35.334395,3.53052409 C35.5764196,3.67573882 35.7591336,3.89292718 35.8786163,4.17186632 L39.4537136,11.9903034 L43.0278429,4.17398329 Z M51.5159365,15.3236149 C51.2851287,15.5862069 51.0144883,15.8005615 50.7046687,15.9657986 C50.2360022,16.2157541 49.7091703,16.340448 49.1270691,16.340448 C47.9853075,16.340448 47.1198719,16.0186434 46.5456806,15.3687346 C45.9765932,14.7246027 45.6967653,13.7682676 45.6967653,12.5063562 L45.6967653,8.45092041 C45.6967653,8.01139083 45.8378697,7.65346735 46.1207103,7.39132241 C46.4001545,7.13232533 46.7737012,7.00444448 47.2310212,7.00444448 C47.6890028,7.00444448 48.0603839,7.13273976 48.334351,7.39300858 C48.6103551,7.65521246 48.7477211,8.01236406 48.7477211,8.45092041 L48.7477211,12.5590242 C48.7477211,13.02959 48.8428983,13.3639962 49.0225789,13.567958 C49.1973969,13.7664001 49.4730094,13.8688401 49.8644211,13.8688401 C50.3245322,13.8688401 50.6891375,13.7158589 50.9722442,13.4070152 C51.2584096,13.0948347 51.402465,12.681003 51.402465,12.1552362 L51.402465,8.45092041 C51.402465,8.01236406 51.539831,7.65521246 51.8158351,7.39300858 C52.0898022,7.13273976 52.4611833,7.00444448 52.9191649,7.00444448 C53.3764849,7.00444448 53.7500316,7.13232533 54.0294758,7.39132241 C54.3123164,7.65346735 54.4534208,8.01139083 54.4534208,8.45092041 L54.4534208,14.8939721 C54.4534208,15.3129095 54.303989,15.6604253 54.0084064,15.9216378 C53.7183724,16.177947 53.3462623,16.305336 52.9016089,16.305336 C52.4784436,16.305336 52.1304943,16.1825304 51.868704,15.9345185 C51.691997,15.7671119 51.5743696,15.5621216 51.5159365,15.3236149 Z M58.6627688,12.3903482 C58.754532,12.9200523 58.9350814,13.3028707 59.1986788,13.5437442 C59.4975725,13.8168712 59.9352766,13.9566201 60.5209125,13.9566201 C60.841439,13.9566201 61.1262494,13.9182802 61.3755921,13.8423933 C61.6373474,13.7627287 61.9290482,13.6540558 62.2503965,13.5163351 C62.4185383,13.4442744 62.5809828,13.3811015 62.7377702,13.3268289 C62.909586,13.2673542 63.0656287,13.2368241 63.2069803,13.2368241 C63.5029013,13.2368241 63.7511172,13.3590228 63.9351552,13.5945913 C64.1106204,13.8191868 64.1970003,14.1025128 64.1970003,14.4375161 C64.1970003,14.6774354 64.125935,14.901291 63.9860828,15.1040766 C63.8507964,15.3002421 63.6635979,15.4640407 63.4234499,15.5974096 C63.01083,15.8158554 62.533806,15.9939846 61.992468,16.1323266 C61.4503315,16.2708726 60.9481785,16.340448 60.4858005,16.340448 C59.5186327,16.340448 58.6706669,16.1520111 57.9443273,15.7735821 C57.2134194,15.3927729 56.6492576,14.8471083 56.255605,14.1397637 C55.863728,13.4356098 55.6685727,12.6092491 55.6685727,11.6636682 C55.6685727,10.7540247 55.8575287,9.94334279 56.2364224,9.23444491 C56.6163907,8.5235364 57.1453625,7.96688583 57.8208788,7.56771715 C58.4961922,7.16866828 59.2628684,6.96933249 60.1171245,6.96933249 C60.9355737,6.96933249 61.6580034,7.15070845 62.2808349,7.51454072 C62.9051951,7.87926602 63.3910859,8.39920009 63.7359958,9.07054254 C64.0789514,9.73808116 64.2496683,10.5154526 64.2496683,11.4003283 C64.2496683,11.7039659 64.1732263,11.9478521 64.0130274,12.1233081 C63.8499071,12.3019636 63.6231814,12.3903482 63.3474283,12.3903482 L58.6627688,12.3903482 Z M58.6585158,10.6736483 L61.6028784,10.6736483 C61.5504573,10.2005159 61.4158317,9.84389862 61.2039615,9.60047325 C60.9690624,9.33058922 60.6354964,9.19515638 60.1873485,9.19515638 C59.7372122,9.19515638 59.3863943,9.33497508 59.1213139,9.61534863 C58.886669,9.8635307 58.731283,10.2149171 58.6585158,10.6736483 Z M68.76156,5.98240856 L68.76156,8.42648041 L72.8276678,8.42648041 C73.3150218,8.42648041 73.6866613,8.52602671 73.9388406,8.73617613 C74.1997374,8.95359012 74.3268117,9.28539528 74.3268117,9.71495235 C74.3268117,10.1331381 74.1992294,10.4591819 73.9388406,10.6761726 C73.6866613,10.886322 73.3150218,10.9858683 72.8276678,10.9858683 L68.76156,10.9858683 L68.76156,14.7359681 C68.76156,15.2068864 68.6234513,15.590896 68.3447769,15.8763674 C68.0651917,16.1627717 67.6884146,16.305336 67.2273041,16.305336 C66.766553,16.305336 66.3846912,16.1600257 66.0939688,15.8693034 C65.8032464,15.578581 65.6579362,15.1967192 65.6579362,14.7359681 L65.6579362,4.90460861 C65.6579362,4.44524395 65.7871025,4.07813958 66.0500788,3.81516331 C66.3130551,3.55218703 66.6801594,3.42302068 67.1395241,3.42302068 L73.1787878,3.42302068 C73.6661418,3.42302068 74.0377813,3.52256699 74.2899606,3.73271641 C74.5508574,3.9501304 74.6779317,4.28193556 74.6779317,4.71149262 C74.6779317,5.12967838 74.5503493,5.45572222 74.2899606,5.67271283 C74.0377813,5.88286226 73.6661418,5.98240856 73.1787878,5.98240856 L68.76156,5.98240856 Z M77.0235516,16.305336 C76.5922782,16.305336 76.2277179,16.1849308 75.9383623,15.9426795 C75.6381506,15.6913395 75.4892956,15.3243948 75.4892956,14.8588601 L75.4892956,8.45092041 C75.4892956,7.98447737 75.6419082,7.61681978 75.9488801,7.36566101 C76.2433214,7.12475446 76.6042513,7.00444448 77.0235516,7.00444448 C77.4434492,7.00444448 77.8021711,7.12513596 78.0911848,7.36710093 C78.3913966,7.61844098 78.5402515,7.98538567 78.5402515,8.45092041 L78.5402515,14.8588601 C78.5402515,15.3243948 78.3913966,15.6913395 78.0911848,15.9426795 C77.8021711,16.1846445 77.4434492,16.305336 77.0235516,16.305336 Z M77.0235516,5.99996456 C76.5093065,5.99996456 76.0932087,5.86456767 75.7844495,5.58936923 C75.471036,5.31002241 75.3137357,4.93044979 75.3137357,4.46570863 C75.3137357,4.0003018 75.4715677,3.62287729 75.7862879,3.34920758 C76.0949082,3.08084206 76.5101833,2.94900871 77.0235516,2.94900871 C77.5257577,2.94900871 77.9383423,3.08433644 78.2522753,3.35819288 C78.5719843,3.63708798 78.7333675,4.01135967 78.7333675,4.46570863 C78.7333675,4.93044979 78.5760671,5.31002241 78.2626536,5.58936923 C77.9538944,5.86456767 77.5377966,5.99996456 77.0235516,5.99996456 Z M81.7110033,16.305336 C81.2797299,16.305336 80.9151696,16.1849308 80.625814,15.9426795 C80.3256023,15.6913395 80.1767474,15.3243948 80.1767474,14.8588601 L80.1767474,4.78171662 C80.1767474,4.31618187 80.3256023,3.94923719 80.625814,3.69789713 C80.9151696,3.45564592 81.2797299,3.33524069 81.7110033,3.33524069 C82.130901,3.33524069 82.4896229,3.45593216 82.7786366,3.69789713 C83.0788483,3.94923719 83.2277032,4.31618187 83.2277032,4.78171662 L83.2277032,14.8588601 C83.2277032,15.3243948 83.0788483,15.6913395 82.7786366,15.9426795 C82.4896229,16.1846445 82.130901,16.305336 81.7110033,16.305336 Z M87.4370512,12.3903482 C87.5288145,12.9200523 87.7093638,13.3028707 87.9729612,13.5437442 C88.271855,13.8168712 88.709559,13.9566201 89.2951949,13.9566201 C89.6157215,13.9566201 89.9005318,13.9182802 90.1498745,13.8423933 C90.4116298,13.7627287 90.7033306,13.6540558 91.0246789,13.5163351 C91.1928207,13.4442744 91.3552652,13.3811015 91.5120527,13.3268289 C91.6838684,13.2673542 91.8399111,13.2368241 91.9812627,13.2368241 C92.2771837,13.2368241 92.5253996,13.3590228 92.7094376,13.5945913 C92.8849028,13.8191868 92.9712827,14.1025128 92.9712827,14.4375161 C92.9712827,14.6774354 92.9002175,14.901291 92.7603653,15.1040766 C92.6250788,15.3002421 92.4378803,15.4640407 92.1977323,15.5974096 C91.7851124,15.8158554 91.3080884,15.9939846 90.7667505,16.1323266 C90.2246139,16.2708726 89.7224609,16.340448 89.2600829,16.340448 C88.2929151,16.340448 87.4449493,16.1520111 86.7186097,15.7735821 C85.9877018,15.3927729 85.42354,14.8471083 85.0298874,14.1397637 C84.6380105,13.4356098 84.4428551,12.6092491 84.4428551,11.6636682 C84.4428551,10.7540247 84.6318111,9.94334279 85.0107048,9.23444491 C85.3906731,8.5235364 85.9196449,7.96688583 86.5951612,7.56771715 C87.2704746,7.16866828 88.0371508,6.96933249 88.8914069,6.96933249 C89.7098561,6.96933249 90.4322858,7.15070845 91.0551173,7.51454072 C91.6794776,7.87926602 92.1653683,8.39920009 92.5102782,9.07054254 C92.8532338,9.73808116 93.0239507,10.5154526 93.0239507,11.4003283 C93.0239507,11.7039659 92.9475088,11.9478521 92.7873098,12.1233081 C92.6241896,12.3019636 92.3974638,12.3903482 92.1217107,12.3903482 L87.4370512,12.3903482 Z M87.4327982,10.6736483 L90.3771609,10.6736483 C90.3247398,10.2005159 90.1901141,9.84389862 89.9782439,9.60047325 C89.7433448,9.33058922 89.4097788,9.19515638 88.9616309,9.19515638 C88.5114946,9.19515638 88.1606768,9.33497508 87.8955963,9.61534863 C87.6609514,9.8635307 87.5055655,10.2149171 87.4327982,10.6736483 Z M104.316246,9.46358024 L102.199388,13.4438641 C102.022358,13.7726342 101.825505,14.0178945 101.605471,14.1779193 C101.377005,14.3440761 101.10456,14.4268441 100.794374,14.4268441 C100.496181,14.4268441 100.227584,14.3441987 99.9943537,14.1795657 C99.7674823,14.0194212 99.5668447,13.7734784 99.3896194,13.444344 L97.2725025,9.53811425 L97.2725025,14.8588601 C97.2725025,15.2833888 97.1427155,15.6351798 96.8821844,15.902567 C96.6207013,16.1709312 96.2760737,16.305336 95.8611385,16.305336 C95.4585175,16.305336 95.1205781,16.1742983 94.8594732,15.9131934 C94.59723,15.6509501 94.4673306,15.295436 94.4673306,14.8588601 L94.4673306,4.88705261 C94.4673306,4.43951105 94.6056632,4.06500074 94.8824811,3.7746796 C95.1613359,3.48222205 95.5270803,3.33524069 95.9664745,3.33524069 C96.6089745,3.33524069 97.1030713,3.68043161 97.4249763,4.3373148 L100.811493,10.7600194 L104.181484,4.33701909 C104.52986,3.67897623 105.015134,3.33524069 105.622274,3.33524069 C106.061668,3.33524069 106.427413,3.48222205 106.706267,3.7746796 C106.983085,4.06500074 107.121418,4.43951105 107.121418,4.88705261 L107.121418,14.8588601 C107.121418,15.295436 106.991519,15.6509501 106.729275,15.9131934 C106.467786,16.1746822 106.123961,16.305336 105.710054,16.305336 C105.307433,16.305336 104.969494,16.1742983 104.708389,15.9131934 C104.446145,15.6509501 104.316246,15.295436 104.316246,14.8588601 L104.316246,9.46358024 Z M114.169308,15.3728675 C113.995405,15.5976449 113.778675,15.7880874 113.520037,15.9432706 C113.078079,16.208445 112.562639,16.340448 111.977546,16.340448 C111.362396,16.340448 110.802488,16.2167114 110.300172,15.968654 C109.794468,15.7189237 109.392542,15.3672389 109.097668,14.9155166 C108.801267,14.4614554 108.652578,13.9552797 108.652578,13.4017121 C108.652578,12.7237936 108.828797,12.1791158 109.185753,11.7767293 C109.538775,11.3787776 110.093108,11.0969131 110.844335,10.9245003 C111.575255,10.7567481 112.566518,10.6736483 113.820926,10.6736483 L114.077382,10.6736483 L114.077382,10.5576403 C114.077382,10.1135264 113.984021,9.8056898 113.809301,9.62624769 C113.636426,9.44870006 113.327179,9.35316038 112.872902,9.35316038 C112.398426,9.35316038 111.69311,9.52380129 110.782249,9.86026719 C110.488365,10.0008203 110.23261,10.0729563 110.011274,10.0729563 C109.696018,10.0729563 109.434686,9.95722353 109.243575,9.7293608 C109.059304,9.50965223 108.968586,9.22703086 108.968586,8.88982039 C108.968586,8.61726934 109.032056,8.38454636 109.162151,8.19663043 C109.287035,8.01624302 109.480112,7.85645529 109.740295,7.71335776 C110.167756,7.48130778 110.685707,7.29957053 111.294185,7.16703068 C111.899041,7.03527987 112.495565,6.96933249 113.083574,6.96933249 C114.39666,6.96933249 115.383868,7.29326022 116.03463,7.95027935 C116.684855,8.60675648 117.005445,9.59627167 117.005445,10.9087603 L117.005445,14.8764161 C117.005445,15.3137103 116.875058,15.6671295 116.611405,15.9238442 C116.348817,16.1795221 115.988377,16.305336 115.541413,16.305336 C115.115874,16.305336 114.763268,16.1718248 114.495858,15.9044154 C114.343774,15.7523312 114.234879,15.5743985 114.169308,15.3728675 Z M114.077382,12.3552362 L113.97893,12.3552362 C113.054558,12.3552362 112.411184,12.4289266 112.060602,12.5691595 C111.755438,12.6912249 111.615754,12.8932306 111.615754,13.2085962 C111.615754,13.4827415 111.70251,13.6961159 111.87798,13.8621004 C112.056341,14.0308208 112.279019,14.1146241 112.556894,14.1146241 C113.017206,14.1146241 113.378789,13.9643889 113.655835,13.6616905 C113.936475,13.3550648 114.077382,12.9558308 114.077382,12.4536882 L114.077382,12.3552362 Z M121.54075,8.06049978 C121.803701,7.77200209 122.111953,7.53807056 122.464733,7.3595551 C122.979301,7.09917128 123.557393,6.96933249 124.196521,6.96933249 C125.281872,6.96933249 126.105289,7.29304224 126.649879,7.94528301 C127.187361,8.58901129 127.451265,9.54336208 127.451265,10.8034243 L127.451265,14.8588601 C127.451265,15.2983897 127.31016,15.6563131 127.02732,15.9184581 C126.747876,16.1774551 126.374329,16.305336 125.917009,16.305336 C125.459027,16.305336 125.087646,16.1770407 124.813679,15.9167719 C124.537675,15.654568 124.400309,15.2974164 124.400309,14.8588601 L124.400309,10.9263163 C124.400309,10.382526 124.302793,9.99773392 124.11968,9.77008008 C123.944549,9.55234952 123.666026,9.44094037 123.266053,9.44094037 C122.768945,9.44094037 122.37994,9.59551191 122.085575,9.90537023 C121.789339,10.2171976 121.640229,10.6357517 121.640229,11.1721003 L121.640229,14.8588601 C121.640229,15.2974164 121.502863,15.654568 121.226859,15.9167719 C120.952892,16.1770407 120.581511,16.305336 120.123529,16.305336 C119.666209,16.305336 119.292663,16.1774551 119.013218,15.9184581 C118.730378,15.6563131 118.589273,15.2983897 118.589273,14.8588601 L118.589273,8.41580842 C118.589273,7.99687102 118.738705,7.64935519 119.034288,7.38814265 C119.324322,7.1318335 119.696432,7.00444448 120.141085,7.00444448 C120.553257,7.00444448 120.898353,7.13086578 121.165315,7.38413773 C121.362103,7.57083395 121.48759,7.79800556 121.54075,8.06049978 Z M134.200703,15.3728675 C134.0268,15.5976449 133.81007,15.7880874 133.551432,15.9432706 C133.109474,16.208445 132.594034,16.340448 132.008941,16.340448 C131.393791,16.340448 130.833883,16.2167114 130.331567,15.968654 C129.825863,15.7189237 129.423937,15.3672389 129.129063,14.9155166 C128.832662,14.4614554 128.683973,13.9552797 128.683973,13.4017121 C128.683973,12.7237936 128.860192,12.1791158 129.217148,11.7767293 C129.570169,11.3787776 130.124503,11.0969131 130.87573,10.9245003 C131.60665,10.7567481 132.597913,10.6736483 133.85232,10.6736483 L134.108776,10.6736483 L134.108776,10.5576403 C134.108776,10.1135264 134.015416,9.8056898 133.840696,9.62624769 C133.667821,9.44870006 133.358574,9.35316038 132.904296,9.35316038 C132.429821,9.35316038 131.724505,9.52380129 130.813644,9.86026719 C130.51976,10.0008203 130.264005,10.0729563 130.042669,10.0729563 C129.727413,10.0729563 129.466081,9.95722353 129.27497,9.7293608 C129.090699,9.50965223 128.999981,9.22703086 128.999981,8.88982039 C128.999981,8.61726934 129.063451,8.38454636 129.193546,8.19663043 C129.31843,8.01624302 129.511507,7.85645529 129.77169,7.71335776 C130.199151,7.48130778 130.717102,7.29957053 131.32558,7.16703068 C131.930436,7.03527987 132.52696,6.96933249 133.114968,6.96933249 C134.428055,6.96933249 135.415263,7.29326022 136.066025,7.95027935 C136.71625,8.60675648 137.03684,9.59627167 137.03684,10.9087603 L137.03684,14.8764161 C137.03684,15.3137103 136.906453,15.6671295 136.6428,15.9238442 C136.380212,16.1795221 136.019772,16.305336 135.572808,16.305336 C135.147269,16.305336 134.794662,16.1718248 134.527253,15.9044154 C134.375169,15.7523312 134.266274,15.5743985 134.200703,15.3728675 Z M134.108776,12.3552362 L134.010324,12.3552362 C133.085953,12.3552362 132.442579,12.4289266 132.091997,12.5691595 C131.786833,12.6912249 131.647149,12.8932306 131.647149,13.2085962 C131.647149,13.4827415 131.733905,13.6961159 131.909375,13.8621004 C132.087736,14.0308208 132.310413,14.1146241 132.588289,14.1146241 C133.048601,14.1146241 133.410184,13.9643889 133.68723,13.6616905 C133.96787,13.3550648 134.108776,12.9558308 134.108776,12.4536882 L134.108776,12.3552362 Z M144.80038,14.9315265 C144.576912,15.1736928 144.305505,15.3783946 143.987153,15.5451503 C143.466228,15.8180159 142.884282,15.954216 142.244088,15.954216 C141.459396,15.954216 140.7593,15.7691685 140.147822,15.3985756 C139.535782,15.0276426 139.056622,14.4990209 138.71233,13.8165837 C138.369889,13.137817 138.199324,12.3550476 138.199324,11.4705522 C138.199324,10.5860569 138.369889,9.80328752 138.71233,9.12452076 C139.05642,8.44248448 139.535148,7.91125028 140.146567,7.53451787 C140.758299,7.15759219 141.458872,6.96933249 142.244088,6.96933249 C142.872319,6.96933249 143.445196,7.10248773 143.960019,7.36920319 C144.299931,7.54530218 144.588771,7.76680528 144.825428,8.03306492 C144.886842,7.77492364 145.014639,7.55590607 145.208729,7.38075184 C145.487719,7.1289805 145.854595,7.00444448 146.299524,7.00444448 C146.746419,7.00444448 147.114996,7.13632077 147.394168,7.40187485 C147.675253,7.6692481 147.816224,8.02339359 147.816224,8.45092041 L147.816224,15.0695321 C147.816224,16.5160632 147.39134,17.6244566 146.537328,18.3794526 C145.688958,19.129461 144.460179,19.5005278 142.858548,19.5005278 C141.515935,19.5005278 140.406211,19.2592836 139.531116,18.7731193 C139.294519,18.6416765 139.10732,18.4778779 138.972034,18.2817125 C138.831832,18.0784195 138.761116,17.8485945 138.761116,17.5975959 C138.761116,17.263994 138.843659,16.9819718 139.011788,16.7578 C139.190008,16.5201739 139.436548,16.396904 139.73358,16.396904 C139.883775,16.396904 140.054606,16.4264708 140.247506,16.4843407 C140.427463,16.5383279 140.613117,16.6012107 140.804497,16.6729781 C141.17276,16.8110769 141.511418,16.9201363 141.820268,17.0002086 C142.119426,17.0777679 142.442005,17.1166999 142.788324,17.1166999 C143.490907,17.1166999 143.998616,16.9617151 144.319512,16.6615217 C144.637643,16.3639159 144.80038,15.9019525 144.80038,15.262648 L144.80038,14.9315265 Z M143.016552,13.5352761 C143.581373,13.5352761 144.008488,13.3592531 144.313857,13.0073015 C144.624603,12.649154 144.782824,12.1396293 144.782824,11.4705522 C144.782824,10.8010851 144.624394,10.2882035 144.312915,9.9239311 C144.007457,9.56670035 143.580781,9.38827237 143.016552,9.38827237 C142.45187,9.38827237 142.021742,9.56706054 141.710325,9.92519008 C141.393661,10.2893533 141.232724,10.8016707 141.232724,11.4705522 C141.232724,12.139043 141.393447,12.6480005 141.709372,13.0060478 C142.020711,13.3588991 142.451278,13.5352761 143.016552,13.5352761 Z M152.025572,12.3903482 C152.117335,12.9200523 152.297884,13.3028707 152.561482,13.5437442 C152.860375,13.8168712 153.298079,13.9566201 153.883715,13.9566201 C154.204242,13.9566201 154.489052,13.9182802 154.738395,13.8423933 C155.00015,13.7627287 155.291851,13.6540558 155.613199,13.5163351 C155.781341,13.4442744 155.943786,13.3811015 156.100573,13.3268289 C156.272389,13.2673542 156.428432,13.2368241 156.569783,13.2368241 C156.865704,13.2368241 157.11392,13.3590228 157.297958,13.5945913 C157.473423,13.8191868 157.559803,14.1025128 157.559803,14.4375161 C157.559803,14.6774354 157.488738,14.901291 157.348886,15.1040766 C157.213599,15.3002421 157.026401,15.4640407 156.786253,15.5974096 C156.373633,15.8158554 155.896609,15.9939846 155.355271,16.1323266 C154.813134,16.2708726 154.310981,16.340448 153.848603,16.340448 C152.881436,16.340448 152.03347,16.1520111 151.30713,15.7735821 C150.576222,15.3927729 150.01206,14.8471083 149.618408,14.1397637 C149.226531,13.4356098 149.031376,12.6092491 149.031376,11.6636682 C149.031376,10.7540247 149.220332,9.94334279 149.599225,9.23444491 C149.979194,8.5235364 150.508165,7.96688583 151.183682,7.56771715 C151.858995,7.16866828 152.625671,6.96933249 153.479927,6.96933249 C154.298377,6.96933249 155.020806,7.15070845 155.643638,7.51454072 C156.267998,7.87926602 156.753889,8.39920009 157.098799,9.07054254 C157.441754,9.73808116 157.612471,10.5154526 157.612471,11.4003283 C157.612471,11.7039659 157.536029,11.9478521 157.37583,12.1233081 C157.21271,12.3019636 156.985984,12.3903482 156.710231,12.3903482 L152.025572,12.3903482 Z M152.021319,10.6736483 L154.965681,10.6736483 C154.91326,10.2005159 154.778635,9.84389862 154.566764,9.60047325 C154.331865,9.33058922 153.998299,9.19515638 153.550151,9.19515638 C153.100015,9.19515638 152.749197,9.33497508 152.484117,9.61534863 C152.249472,9.8635307 152.094086,10.2149171 152.021319,10.6736483 Z M161.738414,8.11849496 C161.92383,7.8761011 162.146454,7.67271274 162.405865,7.50924861 C162.860983,7.22246148 163.35806,7.05989554 163.893941,7.02250874 L164.139725,7.00495274 L164.140671,7.00488745 C164.541919,6.97813761 164.872516,7.07209676 165.120492,7.29173283 C165.372035,7.51452858 165.495115,7.841568 165.495115,8.25780443 C165.495115,8.69280256 165.384961,9.03014907 165.15564,9.25946973 C164.929229,9.48588098 164.554598,9.61733052 164.033428,9.6681758 L163.508536,9.72065679 C162.912937,9.78563127 162.495827,9.9745111 162.246051,10.2803592 C161.990137,10.5937235 161.861023,10.9995111 161.861023,11.5056642 L161.861023,14.8588601 C161.861023,15.3243948 161.712168,15.6913395 161.411956,15.9426795 C161.122943,16.1846445 160.764221,16.305336 160.344323,16.305336 C159.91305,16.305336 159.548489,16.1849308 159.259134,15.9426795 C158.958922,15.6913395 158.810067,15.3243948 158.810067,14.8588601 L158.810067,8.41580842 C158.810067,7.97196841 158.96359,7.61607528 159.269651,7.36566101 C159.563754,7.12503147 159.918816,7.00444448 160.326767,7.00444448 C160.724822,7.00444448 161.064442,7.12331173 161.336268,7.36115913 C161.559088,7.55612695 161.693176,7.81121858 161.738414,8.11849496 Z" id="VueFileManager" stroke-opacity="0.85" stroke="#FFFFFF" stroke-width="0.4" fill="#1B2539" fill-rule="nonzero"></path>
            <g transform="translate(0.000000, 0.640000)">
                <g id="folder-solid" fill-rule="nonzero">
                    <path d="M17.9981623,2.48035766 L10.5506469,2.48035766 L8.06814174,0 L1.86187886,0 C0.833578683,0 0,0.832857594 0,1.86026824 L0,13.0218777 C0,14.0492883 0.833578683,14.8821459 1.86187886,14.8821459 L17.9981623,14.8821459 C19.0264625,14.8821459 19.8600412,14.0492883 19.8600412,13.0218777 L19.8600412,4.3406259 C19.8600412,3.31321525 19.0264625,2.48035766 17.9981623,2.48035766 Z" id="Path-Copy" fill="#1B2539"></path>
                    <path d="M20.9461372,6.04587178 L13.4986218,6.04587178 L11.0161166,3.56551413 L4.80985373,3.56551413 C3.78155355,3.56551413 2.94797487,4.39837172 2.94797487,5.42578237 L2.94797487,16.5873918 C2.94797487,17.6148025 3.78155355,18.4476601 4.80985373,18.4476601 L20.9461372,18.4476601 C21.9744374,18.4476601 22.8080161,17.6148025 22.8080161,16.5873918 L22.8080161,7.90614003 C22.8080161,6.87872938 21.9744374,6.04587178 20.9461372,6.04587178 Z" id="Path" fill="#41B883"></path>
                </g>
                <text id=".Vue" font-family="Nunito-Bold, Nunito" font-size="3.01870801" font-weight="bold" fill="#1B2539">
                    <tspan x="5.03118002" y="16.081068">.Vue</tspan>
                </text>
            </g>
        </g>
    </g>
</svg>