<?xml version="1.0" encoding="UTF-8"?>
<svg width="46px" height="19px" viewBox="0 0 46 19" version="1.1" xmlns="http://www.w3.org/2000/svg" xmlns:xlink="http://www.w3.org/1999/xlink">
    <title>recaptcha</title>
    <g id="V2" stroke="none" stroke-width="1" fill="none" fill-rule="evenodd">
        <g id="recaptcha" transform="translate(0.285556, 0.000000)" fill-rule="nonzero">
            <path d="M18.0001029,9.07912226 C17.9996743,8.9483539 17.9966957,8.81828896 17.9909099,8.68884929 L17.9909099,1.30913828 L15.9772221,3.34932193 C14.3291315,1.30544745 11.8219594,0 9.0137123,0 C6.09124964,0 3.49493363,1.4133066 1.8537002,3.6020354 L5.15438156,6.98131821 C5.47784962,6.37521838 5.93736927,5.85463731 6.49143288,5.4614551 C7.06767531,5.0058544 7.88415627,4.63334084 9.01360516,4.63334084 C9.15005104,4.63334084 9.25536512,4.64949366 9.3327446,4.67992783 C10.7321324,4.7918317 11.9451322,5.57428168 12.6593548,6.70995084 L10.3229704,9.07707711 C13.2822907,9.06530987 16.6254011,9.05840584 17.9998457,9.07859686" id="Path" fill="#1C3AA9"></path>
            <path d="M8.96121169,0.00032566169 C8.83214161,0.000759877277 8.70376583,0.00377767561 8.5760072,0.00963958603 L1.2921365,0.00963958603 L3.30582428,2.04982323 C1.2884936,3.71959927 1.42108547e-14,6.25976046 1.42108547e-14,9.10495809 C1.42108547e-14,12.0658742 1.39497342,14.6963522 3.55525576,16.3591808 L6.89065182,13.0150695 C6.29242341,12.6873452 5.77860313,12.2217793 5.39052718,11.6604254 C4.94086479,11.0766008 4.57316764,10.2493767 4.57316764,9.10506664 C4.57316764,8.96682543 4.58911068,8.86012563 4.6191496,8.78172801 C4.72960018,7.36392727 5.50188847,6.1349669 6.62280869,5.41134662 L8.9591931,7.77847289 C8.94757867,4.78021427 8.94074288,1.39311558 8.96069311,0.000586191042" id="Path" fill="#4285F4"></path>
            <path d="M0.000321432321,9.10474098 C0.00075000875,9.23550935 0.00372861493,9.36557429 0.00951439672,9.49501395 L0.00951439672,16.874725 L2.02320218,14.8345413 C3.67129283,16.8784158 6.17846494,18.1838632 8.98671199,18.1838632 C11.9091747,18.1838632 14.5054907,16.7705566 16.1467241,14.5818278 L12.8460427,11.202545 C12.5225747,11.8086449 12.063055,12.3292259 11.5089914,12.7224081 C10.932749,13.1780089 10.116268,13.5505224 8.98681913,13.5505224 C8.85037325,13.5505224 8.74505917,13.5343696 8.66767969,13.5039354 C7.26829194,13.3920315 6.05529207,12.6095816 5.34106946,11.4739124 L7.67745386,9.10678614 C4.71813362,9.11855338 1.37502318,9.12545741 0.000578578179,9.10526638" id="Path" fill="#ABABAB"></path>
            <path d="M24.5166248,8.70980237 C24.2977294,8.70980237 24.1014843,8.75186483 23.927868,8.83598107 C23.7542624,8.91819111 23.6070785,9.03577235 23.4863057,9.18871611 C23.3674229,9.34166203 23.2759046,9.52712202 23.2117382,9.74505483 C23.149466,9.96109011 23.11833,10.2029352 23.11833,10.4705857 L23.11833,11.2420131 C23.11833,11.5115741 23.149466,11.7543875 23.2117382,11.9704314 C23.2758961,12.1864689 23.3664736,12.3709519 23.4834771,12.5239043 C23.6004806,12.6768568 23.7419944,12.7944206 23.9080463,12.8766394 C24.0740982,12.9588581 24.2609147,12.9999544 24.4684957,12.9999544 C24.6817275,12.9999544 24.8685504,12.9684086 25.0289451,12.9053171 C25.1912277,12.8422278 25.3270843,12.7514137 25.4365427,12.6328903 C25.5459883,12.5124432 25.6299614,12.3671503 25.6884599,12.1969812 C25.7488442,12.0268273 25.7846989,11.8337382 25.7960198,11.6176942 L25.2723637,11.6176942 C25.2591528,11.7840248 25.2365111,11.9264649 25.20443,12.0449841 C25.1723511,12.1616079 25.1251755,12.2581557 25.0629034,12.3346276 C25.0025191,12.4091911 24.9232646,12.4646339 24.8251292,12.5009604 C24.7288923,12.535372 24.6100052,12.5525777 24.4684893,12.5525777 C24.3175275,12.5525777 24.1892074,12.5191214 24.0835419,12.4522066 C23.97787,12.3833813 23.8920111,12.2896993 23.8259675,12.1711606 C23.7618096,12.0526241 23.7146341,11.9140181 23.6844408,11.755334 C23.6561355,11.5966478 23.6419839,11.4255473 23.6419839,11.2420044 L23.6419839,10.4648453 C23.6419839,10.2679307 23.6589663,10.089162 23.6929331,9.92856736 C23.7287856,9.7679749 23.7825656,9.63128166 23.8542728,9.51847245 C23.9259801,9.40567192 24.0165554,9.31868334 24.1260117,9.25750888 C24.2354573,9.19441953 24.3656716,9.16287377 24.5166163,9.16287377 C24.6430463,9.16287377 24.7515404,9.18197925 24.8421201,9.22023147 C24.9326975,9.25655578 25.0081763,9.31391132 25.0685584,9.39229374 C25.1289427,9.46876779 25.1751754,9.5662709 25.2072543,9.68480307 C25.2393333,9.80333959 25.2610342,9.94481137 25.2723551,10.1092271 L25.7960198,10.1092271 C25.7865782,9.88363039 25.7516664,9.6838478 25.6912821,9.50985761 C25.6308978,9.33587828 25.5469247,9.18962362 25.4393649,9.07108276 C25.3318051,8.95255059 25.2006478,8.86269185 25.0459317,8.80152173 C24.8930842,8.74034075 24.7166565,8.70975243 24.5166184,8.70975243 L24.5166248,8.70980237 Z M37.2993454,8.70980237 C37.08045,8.70980237 36.8842048,8.75186483 36.7105885,8.83598107 C36.5369829,8.91819111 36.3897991,9.03577235 36.2690262,9.18871611 C36.1501456,9.34166203 36.0586231,9.52712202 35.9944587,9.74505483 C35.9321887,9.96109011 35.9010548,10.2029352 35.9010548,10.4705857 L35.9010548,11.2420131 C35.9010548,11.5115741 35.9321887,11.7543875 35.9944587,11.9704314 C36.0586166,12.1864689 36.1491963,12.3709519 36.2661976,12.5239043 C36.3831947,12.6768524 36.5247149,12.7944206 36.6907669,12.8766394 C36.8568231,12.9588494 37.0436353,12.9999544 37.2512163,12.9999544 C37.4644459,12.9999544 37.6512495,12.9684086 37.8116657,12.9053171 C37.9739461,12.8422278 38.1098049,12.7514137 38.2192633,12.6328903 C38.328711,12.5124432 38.412682,12.3671503 38.4711805,12.1969812 C38.5315669,12.0268273 38.5674216,11.8337382 38.5787403,11.6176942 L38.0551056,11.6176942 C38.0419055,11.7840248 38.0192531,11.9264649 37.987172,12.0449841 C37.955093,12.1616079 37.9079175,12.2581557 37.8456475,12.3346276 C37.7852632,12.4091911 37.7060087,12.4646339 37.6078733,12.5009604 C37.5116364,12.535372 37.3927493,12.5525777 37.2512334,12.5525777 C37.1002716,12.5525777 36.9719516,12.5191214 36.8662861,12.4522066 C36.7606141,12.3833813 36.6747531,12.2896993 36.6087116,12.1711606 C36.5445537,12.0526241 36.4973782,11.9140181 36.467185,11.755334 C36.4388818,11.5966478 36.4247281,11.4255473 36.4247281,11.2420044 L36.4247281,10.4648453 C36.4247281,10.2679307 36.4417211,10.089162 36.4756772,9.92856736 C36.5115319,9.7679749 36.5653097,9.63128166 36.6370191,9.51847245 C36.7087242,9.40567192 36.7993017,9.31868334 36.9087366,9.25750888 C37.0181843,9.19441953 37.1483965,9.16287377 37.2993411,9.16287377 C37.425769,9.16287377 37.5342653,9.18197925 37.6248449,9.22023147 C37.7154224,9.25655578 37.7909033,9.31391132 37.8512833,9.39229374 C37.9116654,9.46876779 37.9578981,9.5662709 37.989977,9.68480307 C38.022056,9.80333959 38.0437569,9.94481137 38.0550799,10.1092271 L38.5787403,10.1092271 C38.5692645,9.88363039 38.5343719,9.6838478 38.4739855,9.50985761 C38.4136013,9.33587828 38.3296303,9.18962362 38.2220683,9.07108276 C38.1145063,8.95254191 37.9833512,8.86269185 37.8286351,8.80152173 C37.6757898,8.74034075 37.4993599,8.70975243 37.2993218,8.70975243 L37.2993454,8.70980237 Z M27.5001596,8.7671579 L26.1726442,12.942575 L26.7047861,12.942575 L27.0246327,11.8528241 L28.4172489,11.8528241 L28.7427527,12.942575 L29.2748946,12.942575 L27.9445505,8.7671579 L27.5001596,8.7671579 Z M29.8352583,8.7671579 L29.8352583,12.942575 L30.3532358,12.942575 L30.3532358,11.3079487 L31.1486094,11.3079487 C31.3467467,11.3079487 31.5222423,11.2802262 31.6750941,11.2247834 C31.8279416,11.1674279 31.9562616,11.08522 32.0600414,10.9781489 C32.1657134,10.8710844 32.2449679,10.7391784 32.2977942,10.5824048 C32.352517,10.4237208 32.3798794,10.2440206 32.3798794,10.0432611 C32.3798794,9.85781193 32.3525191,9.68766021 32.2977942,9.53279722 C32.2449571,9.37602368 32.1666455,9.24124317 32.06287,9.12843396 C31.9590838,9.01372505 31.8298316,8.92482375 31.6750941,8.86173874 C31.5222466,8.79864939 31.3467617,8.76710363 31.1486094,8.76710363 L29.8352583,8.7671579 Z M32.7761498,8.7671579 L32.7761498,9.22026187 L33.8574052,9.22026187 L33.8574052,12.942575 L34.3753827,12.942575 L34.3753827,9.22026187 L35.4594668,9.22026187 L35.4594668,8.7671579 L32.7761498,8.7671579 Z M39.2778685,8.7671579 L39.2778685,12.942575 L39.795846,12.942575 L39.795846,11.0125735 L41.4545224,11.0125735 L41.4545224,12.942575 L41.9753285,12.942575 L41.9753285,8.7671579 L41.4545224,8.7671579 L41.4545224,10.5623788 L39.795846,10.5623788 L39.795846,8.7671579 L39.2778685,8.7671579 Z M43.9397086,8.7671579 L42.6121931,12.942575 L43.144335,12.942575 L43.4641816,11.8528241 L44.8567979,11.8528241 L45.1823017,12.942575 L45.7144436,12.942575 L44.3840995,8.7671579 L43.9397086,8.7671579 Z M30.3531929,9.22026187 L31.1485665,9.22026187 C31.2749965,9.22026187 31.3825478,9.24318845 31.4712417,9.28908721 C31.561817,9.3349686 31.6354122,9.39614741 31.6920228,9.47262145 C31.7505192,9.5490955 31.7929783,9.63799463 31.8193958,9.73931667 C31.8477011,9.83873033 31.8618548,9.9419716 31.8618548,10.0490426 C31.8618548,10.167577 31.8477032,10.2765499 31.8193958,10.3759636 C31.7929783,10.4734688 31.7505192,10.5585469 31.6920228,10.6311955 C31.6354122,10.7019335 31.5618192,10.7573764 31.4712417,10.7975261 C31.3825521,10.8376737 31.2749923,10.8577475 31.1485665,10.8577475 L30.3531929,10.8577475 L30.3531929,9.22026187 Z M27.7208765,9.50130791 L28.2841545,11.3997636 L27.1604485,11.3997636 L27.7208765,9.50130791 Z M44.1604254,9.50130791 L44.7237034,11.3997636 L43.5999975,11.3997636 L44.1604254,9.50130791 Z M19.7787124,9.78235395 C19.6485088,9.78235395 19.5362239,9.81581026 19.4418728,9.88272505 C19.3494096,9.94963984 19.2720408,10.0404517 19.2097772,10.1551519 L19.201285,9.83969429 L18.7144436,9.83969429 L18.7144436,12.9425989 L19.2154494,12.9425989 L19.2154494,10.7228888 C19.262625,10.5909698 19.3296136,10.4867841 19.4164153,10.410297 C19.5051049,10.3338251 19.6173834,10.2955881 19.753255,10.2955881 C19.7966569,10.2955881 19.8353402,10.2975421 19.8693049,10.3013197 C19.9032717,10.3032737 19.9400672,10.3080067 19.9796955,10.3156488 L19.9768647,9.82240165 C19.9693154,9.81855884 19.9570516,9.81473774 19.9400672,9.81091665 C19.9249727,9.80516329 19.9079882,9.80038692 19.889118,9.79658753 C19.8702456,9.79276644 19.8504347,9.7898789 19.8296766,9.78796835 C19.8108042,9.78414726 19.793824,9.78223671 19.7787274,9.78223671 L19.7787124,9.78235395 Z M21.4628678,9.78235395 C21.3175675,9.78235395 21.1769859,9.80816155 21.0411271,9.85978327 C20.905262,9.91140282 20.7844956,9.99647868 20.6788301,10.1150152 C20.575046,10.2316368 20.4910729,10.3845762 20.4269128,10.5738508 C20.3627549,10.7612105 20.330676,10.9915879 20.330676,11.2649918 L20.330676,11.614861 C20.330676,11.851921 20.3580385,12.0574569 20.4127612,12.2314254 C20.467484,12.4053939 20.5457957,12.5497488 20.6476854,12.6644686 C20.7514716,12.7772648 20.8769524,12.8613854 21.0241469,12.9168347 C21.171333,12.9722797 21.3364506,13 21.5194956,13 C21.6515871,13 21.7695271,12.9866044 21.8733069,12.9598524 C21.9789788,12.9330852 22.072387,12.8986715 22.1535316,12.8566112 C22.2346739,12.812636 22.3044933,12.7629313 22.3629897,12.7074885 C22.4214861,12.6520457 22.4714924,12.5946901 22.5130065,12.5354219 L22.2526034,12.2142326 C22.2110894,12.26585 22.1667446,12.3136484 22.119569,12.3576215 C22.0723935,12.3996796 22.0205014,12.4369635 21.9638908,12.4694624 C21.9072801,12.5000529 21.845008,12.5239521 21.7770764,12.5411579 C21.7091449,12.5583528 21.632719,12.5669677 21.5478095,12.5669677 C21.3157139,12.5669677 21.1373833,12.4914489 21.012839,12.3404157 C20.8901825,12.1893803 20.8288554,11.9475374 20.8288554,11.6148631 L20.8288554,11.5431676 L22.5384896,11.5431676 L22.5384896,11.2477925 C22.5384896,11.0107325 22.5186765,10.8013754 22.4790482,10.619743 C22.439422,10.4381172 22.376207,10.2851799 22.2894031,10.1609074 C22.2026014,10.0366371 22.0912658,9.94295292 21.9553921,9.8798614 C21.8195269,9.81485715 21.6553672,9.78235395 21.4628721,9.78235395 L21.4628678,9.78235395 Z M21.4628678,10.218263 C21.5723133,10.218263 21.6628908,10.2383237 21.7346067,10.2784865 C21.8063118,10.3186341 21.8629224,10.3750322 21.9044386,10.4476808 C21.9478406,10.5203316 21.9789745,10.6073245 21.9978447,10.7086443 C22.0186007,10.808058 22.0318094,10.9179884 22.0374709,11.0384311 L22.0374709,11.1072564 L20.8316711,11.1072564 C20.8392205,10.9332771 20.8599765,10.788933 20.8939433,10.6742132 C20.9279101,10.5594935 20.9722549,10.4686881 21.0269777,10.4017864 C21.0835884,10.332961 21.1486891,10.2851669 21.2222843,10.2583997 C21.2958773,10.2316346 21.3760746,10.2182521 21.4628871,10.2182521 L21.4628678,10.218263 Z" id="Shape" fill="#A6A6A6"></path>
        </g>
    </g>
</svg>