<?xml version="1.0" encoding="UTF-8"?>
<svg width="182px" height="162px" viewBox="0 0 182 162" version="1.1" xmlns="http://www.w3.org/2000/svg" xmlns:xlink="http://www.w3.org/1999/xlink">
    <!-- Generator: Sketch 55.2 (78181) - https://sketchapp.com -->
    <title>hero</title>
    <desc>Created with Sketch.</desc>
    <g id="hero" stroke="none" stroke-width="1" fill="none" fill-rule="evenodd">
        <g id="folder-solid" transform="translate(18.000000, 22.000000)" fill-rule="nonzero">
            <path d="M116,16 L68,16 L52,0 L12,0 C5.3725,0 0,5.3725 0,12 L0,84 C0,90.6275 5.3725,96 12,96 L116,96 C122.6275,96 128,90.6275 128,84 L128,28 C128,21.3725 122.6275,16 116,16 Z" id="Path-Copy" fill="#35495D"></path>
            <path d="M135,39 L87,39 L71,23 L31,23 C24.3725,23 19,28.3725 19,35 L19,107 C19,113.6275 24.3725,119 31,119 L135,119 C141.6275,119 147,113.6275 147,107 L147,51 C147,44.3725 141.6275,39 135,39 Z" id="Path" fill="#41B883"></path>
        </g>
        <g id="file-solid" transform="translate(52.000000, 109.000000)" fill="#35495D" fill-rule="nonzero">
            <path d="M1.984,16.096 C1.64266496,16.096 1.36000112,15.9813345 1.136,15.752 C0.91199888,15.5226655 0.8,15.237335 0.8,14.896 C0.8,14.554665 0.91199888,14.2693345 1.136,14.04 C1.36000112,13.8106655 1.64266496,13.696 1.984,13.696 C2.32533504,13.696 2.60799888,13.8106655 2.832,14.04 C3.05600112,14.2693345 3.168,14.554665 3.168,14.896 C3.168,15.237335 3.05600112,15.5226655 2.832,15.752 C2.60799888,15.9813345 2.32533504,16.096 1.984,16.096 Z M12.624,5.168 C12.7946675,4.80533152 13.0773314,4.624 13.472,4.624 C13.738668,4.624 13.9786656,4.70933248 14.192,4.88 C14.4053344,5.05066752 14.512,5.26399872 14.512,5.52 C14.512,5.63733392 14.4800003,5.77066592 14.416,5.92 L9.984,15.456 C9.88799952,15.6586677 9.74133432,15.8159994 9.544,15.928 C9.34666568,16.0400006 9.13600112,16.096 8.912,16.096 C8.68799888,16.096 8.47733432,16.0400006 8.28,15.928 C8.08266568,15.8159994 7.93600048,15.6586677 7.84,15.456 L3.424,5.92 C3.35999968,5.77066592 3.328,5.6426672 3.328,5.536 C3.328,5.269332 3.43733224,5.05066752 3.656,4.88 C3.87466776,4.70933248 4.12266528,4.624 4.4,4.624 C4.58133424,4.624 4.74933256,4.66933288 4.904,4.76 C5.05866744,4.85066712 5.17866624,4.98666576 5.264,5.168 L8.944,13.344 L12.624,5.168 Z M21.04,8.016 C21.3493349,8.016 21.5946658,8.10133248 21.776,8.272 C21.9573342,8.44266752 22.048,8.67199856 22.048,8.96 L22.048,15.168 C22.048,15.4453347 21.9546676,15.6693325 21.768,15.84 C21.5813324,16.0106675 21.3386682,16.096 21.04,16.096 C20.7519986,16.096 20.5226675,16.016 20.352,15.856 C20.1813325,15.6959992 20.096,15.4773347 20.096,15.2 L20.096,14.8 C19.8506654,15.2266688 19.5200021,15.5546655 19.104,15.784 C18.6879979,16.0133345 18.2186693,16.128 17.696,16.128 C15.7759904,16.128 14.816,15.0506774 14.816,12.896 L14.816,8.96 C14.816,8.67199856 14.9066658,8.44266752 15.088,8.272 C15.2693342,8.10133248 15.5093318,8.016 15.808,8.016 C16.1173349,8.016 16.3626658,8.10133248 16.544,8.272 C16.7253342,8.44266752 16.816,8.67199856 16.816,8.96 L16.816,12.912 C16.816,13.4666694 16.9279989,13.877332 17.152,14.144 C17.3760011,14.410668 17.7279976,14.544 18.208,14.544 C18.7626694,14.544 19.2079983,14.3600018 19.544,13.992 C19.8800017,13.6239982 20.048,13.136003 20.048,12.528 L20.048,8.96 C20.048,8.67199856 20.1386658,8.44266752 20.32,8.272 C20.5013342,8.10133248 20.7413318,8.016 21.04,8.016 Z M30.32,13.856 C30.5013342,13.856 30.6479994,13.9253326 30.76,14.064 C30.8720006,14.2026674 30.928,14.3893322 30.928,14.624 C30.928,14.9546683 30.7306686,15.2319989 30.336,15.456 C29.9733315,15.6586677 29.562669,15.8213327 29.104,15.944 C28.645331,16.0666673 28.2080021,16.128 27.792,16.128 C26.533327,16.128 25.5360037,15.765337 24.8,15.04 C24.0639963,14.314663 23.696,13.322673 23.696,12.064 C23.696,11.263996 23.8559984,10.5546698 24.176,9.936 C24.4960016,9.31733024 24.9466638,8.83733504 25.528,8.496 C26.1093362,8.15466496 26.7679963,7.984 27.504,7.984 C28.2080035,7.984 28.8213307,8.13866512 29.344,8.448 C29.8666693,8.75733488 30.2719986,9.19466384 30.56,9.76 C30.8480014,10.3253362 30.992,10.9919962 30.992,11.76 C30.992,12.218669 30.7893354,12.448 30.384,12.448 L25.664,12.448 C25.7280003,13.1840037 25.9359982,13.7253316 26.288,14.072 C26.6400018,14.4186684 27.1519966,14.592 27.824,14.592 C28.165335,14.592 28.4666654,14.5493338 28.728,14.464 C28.9893346,14.3786662 29.2853317,14.2613341 29.616,14.112 C29.9360016,13.9413325 30.1706659,13.856 30.32,13.856 Z M27.552,9.392 C27.0079973,9.392 26.573335,9.56266496 26.248,9.904 C25.922665,10.245335 25.7280003,10.7359968 25.664,11.376 L29.28,11.376 C29.2586666,10.7253301 29.0986682,10.2320017 28.8,9.896 C28.5013318,9.55999832 28.085336,9.392 27.552,9.392 Z" id=".Vue"></path>
        </g>
    </g>
</svg>