<?xml version="1.0" encoding="UTF-8"?>
<svg width="170px" height="26px" viewBox="0 0 170 26" version="1.1" xmlns="http://www.w3.org/2000/svg" xmlns:xlink="http://www.w3.org/1999/xlink">
    <!-- Generator: Sketch 55.2 (78181) - https://sketchapp.com -->
    <title>vuefilemanager-horizontal-logo-dark</title>
    <desc>Created with Sketch.</desc>
    <g id="vuefilemanager-horizontal-logo-dark" stroke="none" stroke-width="1" fill="none" fill-rule="evenodd">
        <g id="Logo" transform="translate(0.000000, 3.000000)">
            <path d="M43.2106974,4.25503665 C43.3160339,4.00925143 43.4681844,3.82491528 43.6671534,3.70202268 C43.8661224,3.57913007 44.0884961,3.51768469 44.3342814,3.51768469 C44.6854031,3.51768469 45.0014079,3.63472351 45.2823053,3.86880467 C45.5632027,4.10288582 45.7036493,4.38963094 45.7036493,4.72904862 C45.7036493,4.90460949 45.6626857,5.08016772 45.5807573,5.25572859 L40.8406376,15.262648 C40.7118929,15.5318414 40.5187789,15.7395853 40.2612896,15.885886 C40.0038003,16.0321867 39.7229071,16.105336 39.4186016,16.105336 C39.1142961,16.105336 38.833403,16.0321867 38.5759137,15.885886 C38.3184244,15.7395853 38.1253103,15.5318414 37.9965657,15.262648 L33.256446,5.25572859 C33.1745176,5.09187178 33.133554,4.92216549 33.133554,4.74660462 C33.133554,4.39548288 33.2798525,4.10288582 33.572454,3.86880467 C33.8650554,3.63472351 34.1927641,3.51768469 34.5555899,3.51768469 C34.8013751,3.51768469 35.0266749,3.57913007 35.2314959,3.70202268 C35.4363169,3.82491528 35.5913933,4.00925143 35.6967298,4.25503665 L39.4537136,12.4712442 L43.2106974,4.25503665 Z M52.9191649,7.20444448 C53.3288069,7.20444448 53.6535897,7.31563137 53.8935228,7.53800847 C54.133456,7.76038556 54.2534208,8.0646865 54.2534208,8.45092041 L54.2534208,14.8939721 C54.2534208,15.2567979 54.1276041,15.5493949 53.8759668,15.771772 C53.6243296,15.9941491 53.2995469,16.105336 52.9016089,16.105336 C52.527079,16.105336 52.22863,16.0000011 52.0062529,15.789328 C51.7838758,15.578655 51.672689,15.2977618 51.672689,14.9466401 L51.672689,14.7710801 C51.4034956,15.2158343 51.0494532,15.5552469 50.610551,15.789328 C50.1716488,16.0234092 49.6771598,16.140448 49.1270691,16.140448 C48.0385917,16.140448 47.2280979,15.839073 46.6955632,15.236314 C46.1630286,14.6335551 45.8967653,13.7235782 45.8967653,12.5063562 L45.8967653,8.45092041 C45.8967653,8.0646865 46.0167301,7.76038556 46.2566633,7.53800847 C46.4965964,7.31563137 46.8213792,7.20444448 47.2310212,7.20444448 C47.6406632,7.20444448 47.96252,7.31563137 48.1966012,7.53800847 C48.4306823,7.76038556 48.5477211,8.0646865 48.5477211,8.45092041 L48.5477211,12.5590242 C48.5477211,13.0740027 48.655982,13.4543789 48.8725071,13.7001641 C49.0890322,13.9459493 49.4196669,14.0688401 49.8644211,14.0688401 C50.3793996,14.0688401 50.7978134,13.8932819 51.119675,13.5421601 C51.4415366,13.1910384 51.602465,12.728735 51.602465,12.1552362 L51.602465,8.45092041 C51.602465,8.0646865 51.7195038,7.76038556 51.9535849,7.53800847 C52.1876661,7.31563137 52.5095229,7.20444448 52.9191649,7.20444448 Z M63.2069803,13.4368241 C63.4410615,13.4368241 63.6312496,13.5304552 63.7775503,13.7177201 C63.923851,13.9049851 63.9970003,14.1449146 63.9970003,14.4375161 C63.9970003,14.6364851 63.9384809,14.8208212 63.8214403,14.9905301 C63.7043997,15.1602389 63.5405454,15.3036115 63.3298723,15.420652 C62.9319344,15.6313251 62.469631,15.8039573 61.9429484,15.938554 C61.4162658,16.0731507 60.9305547,16.140448 60.4858005,16.140448 C59.5494758,16.140448 58.7331301,15.9590378 58.0367386,15.596212 C57.3403472,15.2333862 56.8048946,14.7154894 56.4303647,14.0425061 C56.0558348,13.3695228 55.8685727,12.5765848 55.8685727,11.6636682 C55.8685727,10.7858639 56.0499829,10.0075557 56.4128087,9.32872037 C56.7756345,8.64988501 57.2789014,8.12028433 57.9226246,7.73990245 C58.5663478,7.35952057 59.2978404,7.16933249 60.1171245,7.16933249 C60.9012964,7.16933249 61.5888995,7.34196475 62.1799544,7.68723446 C62.7710093,8.03250416 63.2303867,8.52406722 63.5581003,9.16193838 C63.8858139,9.79980953 64.0496683,10.545932 64.0496683,11.4003283 C64.0496683,11.6578175 63.9882229,11.8538576 63.8653303,11.9884542 C63.7424377,12.1230509 63.5698054,12.1903482 63.3474283,12.1903482 L58.4317486,12.1903482 C58.513677,12.8808876 58.7243469,13.3812286 59.0637646,13.6913861 C59.4031822,14.0015437 59.8888933,14.1566201 60.5209125,14.1566201 C60.8603302,14.1566201 61.1646311,14.1156565 61.4338244,14.0337281 C61.7030178,13.9517997 62.0014668,13.8406128 62.3291804,13.7001641 C62.4930372,13.6299398 62.6510396,13.5684944 62.8031923,13.5158261 C62.9553451,13.4631579 63.0899397,13.4368241 63.2069803,13.4368241 Z M60.1873485,8.99515638 C59.684074,8.99515638 59.2802901,9.15608477 58.9759846,9.47794636 C58.6716791,9.79980795 58.4902689,10.2650373 58.4317486,10.8736483 L61.8200564,10.8736483 C61.7849442,10.2533332 61.6298678,9.78517792 61.3548224,9.46916836 C61.0797771,9.1531588 60.690623,8.99515638 60.1873485,8.99515638 Z M67.2273041,16.105336 C66.8176621,16.105336 66.4870274,15.9795193 66.2353902,15.727882 C65.9837529,15.4762448 65.8579362,15.1456101 65.8579362,14.7359681 L65.8579362,4.90460861 C65.8579362,4.49496658 65.9691231,4.17896176 66.1915002,3.95658466 C66.4138773,3.73420756 66.7298821,3.62302068 67.1395241,3.62302068 L73.1787878,3.62302068 C73.623542,3.62302068 73.9512507,3.7107998 74.1619237,3.88636067 C74.3725968,4.06192153 74.4779317,4.33696277 74.4779317,4.71149262 C74.4779317,5.07431841 74.3725968,5.34350771 74.1619237,5.51906858 C73.9512507,5.69462944 73.623542,5.78240856 73.1787878,5.78240856 L68.56156,5.78240856 L68.56156,8.62648041 L72.8276678,8.62648041 C73.272422,8.62648041 73.6001307,8.71425952 73.8108037,8.88982039 C74.0214768,9.06538126 74.1268117,9.34042249 74.1268117,9.71495235 C74.1268117,10.0777781 74.0214768,10.3469674 73.8108037,10.5225283 C73.6001307,10.6980892 73.272422,10.7858683 72.8276678,10.7858683 L68.56156,10.7858683 L68.56156,14.7359681 C68.56156,15.1573142 68.4415952,15.4908748 68.2016621,15.73666 C67.9617289,15.9824452 67.6369461,16.105336 67.2273041,16.105336 Z M77.0235516,16.105336 C76.6373177,16.105336 76.3183869,16.0000011 76.0667496,15.789328 C75.8151124,15.578655 75.6892956,15.2685021 75.6892956,14.8588601 L75.6892956,8.45092041 C75.6892956,8.04127839 75.8180383,7.73112551 76.0755276,7.52045247 C76.3330169,7.30977942 76.6490217,7.20444448 77.0235516,7.20444448 C77.3980814,7.20444448 77.7111603,7.30977942 77.9627975,7.52045247 C78.2144348,7.73112551 78.3402515,8.04127839 78.3402515,8.45092041 L78.3402515,14.8588601 C78.3402515,15.2685021 78.2144348,15.578655 77.9627975,15.789328 C77.7111603,16.0000011 77.3980814,16.105336 77.0235516,16.105336 Z M77.0235516,5.79996456 C76.5553893,5.79996456 76.186717,5.67999977 75.9175236,5.44006658 C75.6483303,5.20013339 75.5137357,4.87535066 75.5137357,4.46570863 C75.5137357,4.05606661 75.6483303,3.73420984 75.9175236,3.50012869 C76.186717,3.26604753 76.5553893,3.14900871 77.0235516,3.14900871 C77.4800098,3.14900871 77.8457561,3.2689735 78.1208015,3.50890669 C78.3958469,3.74883987 78.5333675,4.06777067 78.5333675,4.46570863 C78.5333675,4.87535066 78.3987728,5.20013339 78.1295795,5.44006658 C77.8603862,5.67999977 77.4917139,5.79996456 77.0235516,5.79996456 Z M81.7110033,16.105336 C81.3247694,16.105336 81.0058386,16.0000011 80.7542014,15.789328 C80.5025641,15.578655 80.3767474,15.2685021 80.3767474,14.8588601 L80.3767474,4.78171662 C80.3767474,4.37207459 80.5025641,4.06192171 80.7542014,3.85124867 C81.0058386,3.64057563 81.3247694,3.53524069 81.7110033,3.53524069 C82.0855332,3.53524069 82.398612,3.64057563 82.6502493,3.85124867 C82.9018865,4.06192171 83.0277032,4.37207459 83.0277032,4.78171662 L83.0277032,14.8588601 C83.0277032,15.2685021 82.9018865,15.578655 82.6502493,15.789328 C82.398612,16.0000011 82.0855332,16.105336 81.7110033,16.105336 Z M91.9812627,13.4368241 C92.2153439,13.4368241 92.405532,13.5304552 92.5518327,13.7177201 C92.6981334,13.9049851 92.7712827,14.1449146 92.7712827,14.4375161 C92.7712827,14.6364851 92.7127633,14.8208212 92.5957227,14.9905301 C92.4786821,15.1602389 92.3148278,15.3036115 92.1041547,15.420652 C91.7062168,15.6313251 91.2439134,15.8039573 90.7172308,15.938554 C90.1905482,16.0731507 89.7048371,16.140448 89.2600829,16.140448 C88.3237583,16.140448 87.5074125,15.9590378 86.811021,15.596212 C86.1146296,15.2333862 85.579177,14.7154894 85.2046471,14.0425061 C84.8301173,13.3695228 84.6428551,12.5765848 84.6428551,11.6636682 C84.6428551,10.7858639 84.8242653,10.0075557 85.1870911,9.32872037 C85.5499169,8.64988501 86.0531839,8.12028433 86.696907,7.73990245 C87.3406302,7.35952057 88.0721229,7.16933249 88.8914069,7.16933249 C89.6755788,7.16933249 90.3631819,7.34196475 90.9542368,7.68723446 C91.5452917,8.03250416 92.0046691,8.52406722 92.3323827,9.16193838 C92.6600963,9.79980953 92.8239507,10.545932 92.8239507,11.4003283 C92.8239507,11.6578175 92.7625053,11.8538576 92.6396127,11.9884542 C92.5167201,12.1230509 92.3440878,12.1903482 92.1217107,12.1903482 L87.206031,12.1903482 C87.2879594,12.8808876 87.4986293,13.3812286 87.838047,13.6913861 C88.1774647,14.0015437 88.6631758,14.1566201 89.2951949,14.1566201 C89.6346126,14.1566201 89.9389135,14.1156565 90.2081068,14.0337281 C90.4773002,13.9517997 90.7757492,13.8406128 91.1034628,13.7001641 C91.2673196,13.6299398 91.425322,13.5684944 91.5774748,13.5158261 C91.7296275,13.4631579 91.8642222,13.4368241 91.9812627,13.4368241 Z M88.9616309,8.99515638 C88.4583564,8.99515638 88.0545725,9.15608477 87.750267,9.47794636 C87.4459615,9.79980795 87.2645513,10.2650373 87.206031,10.8736483 L90.5943388,10.8736483 C90.5592266,10.2533332 90.4041502,9.78517792 90.1291048,9.46916836 C89.8540595,9.1531588 89.4649054,8.99515638 88.9616309,8.99515638 Z M105.622274,3.53524069 C106.008508,3.53524069 106.321587,3.66105742 106.56152,3.91269466 C106.801453,4.16433191 106.921418,4.48911464 106.921418,4.88705261 L106.921418,14.8588601 C106.921418,15.245094 106.810231,15.5493949 106.587854,15.771772 C106.365477,15.9941491 106.07288,16.105336 105.710054,16.105336 C105.358932,16.105336 105.072187,15.9941491 104.84981,15.771772 C104.627433,15.5493949 104.516246,15.245094 104.516246,14.8588601 L104.516246,8.6615924 L102.023294,13.3490441 C101.859437,13.6533497 101.680953,13.8757234 101.487836,14.0161721 C101.294719,14.1566208 101.063568,14.2268441 100.794374,14.2268441 C100.536885,14.2268441 100.308659,14.1566208 100.10969,14.0161721 C99.9107213,13.8757234 99.7293111,13.6533497 99.5654543,13.3490441 L97.0725025,8.7493724 L97.0725025,14.8588601 C97.0725025,15.2333899 96.9613156,15.5347649 96.7389385,15.762994 C96.5165614,15.9912231 96.2239643,16.105336 95.8611385,16.105336 C95.5100168,16.105336 95.2232717,15.9941491 95.0008946,15.771772 C94.7785175,15.5493949 94.6673306,15.245094 94.6673306,14.8588601 L94.6673306,4.88705261 C94.6673306,4.48911464 94.7872954,4.16433191 95.0272286,3.91269466 C95.2671618,3.66105742 95.5802406,3.53524069 95.9664745,3.53524069 C96.5282693,3.53524069 96.955461,3.83368968 97.2480625,4.43059664 L100.81193,11.1896563 L104.358242,4.43059664 C104.674252,3.83368968 105.095591,3.53524069 105.622274,3.53524069 Z M113.083574,7.16933249 C114.347612,7.16933249 115.283922,7.4765594 115.892533,8.09102243 C116.501144,8.70548547 116.805445,9.64472203 116.805445,10.9087603 L116.805445,14.8764161 C116.805445,15.26265 116.694258,15.5640249 116.471881,15.78055 C116.249504,15.9970751 115.939351,16.105336 115.541413,16.105336 C115.166884,16.105336 114.865509,15.9912231 114.637279,15.762994 C114.40905,15.5347649 114.294938,15.2392419 114.294938,14.8764161 L114.294938,14.7535241 C114.119377,15.1865742 113.82678,15.5259868 113.417138,15.771772 C113.007496,16.0175572 112.527636,16.140448 111.977546,16.140448 C111.392343,16.140448 110.862742,16.0234092 110.388728,15.789328 C109.914713,15.5552469 109.540189,15.2275381 109.265144,14.8061921 C108.990098,14.384846 108.852578,13.9166907 108.852578,13.4017121 C108.852578,12.769693 109.013506,12.272278 109.335368,11.9094522 C109.657229,11.5466264 110.175126,11.2832891 110.889074,11.1194323 C111.603021,10.9555755 112.580295,10.8736483 113.820926,10.8736483 L114.277382,10.8736483 L114.277382,10.5576403 C114.277382,10.0660699 114.169121,9.70910146 113.952596,9.48672436 C113.73607,9.26434726 113.376176,9.15316038 112.872902,9.15316038 C112.369627,9.15316038 111.643986,9.32871861 110.695958,9.67984035 C110.426764,9.80858498 110.198539,9.87295634 110.011274,9.87295634 C109.753784,9.87295634 109.548967,9.78225125 109.396814,9.60083835 C109.244661,9.41942545 109.168586,9.18242184 109.168586,8.88982039 C109.168586,8.65573923 109.221253,8.46262518 109.32659,8.31047242 C109.431926,8.15831967 109.601633,8.01787308 109.835714,7.88912845 C110.245356,7.66675135 110.745697,7.49119311 111.336752,7.36244847 C111.927807,7.23370384 112.510075,7.16933249 113.083574,7.16933249 Z M112.556894,14.3146241 C113.071872,14.3146241 113.48736,14.1419918 113.80337,13.7967221 C114.119379,13.4514524 114.277382,13.0037789 114.277382,12.4536882 L114.277382,12.1552362 L113.97893,12.1552362 C113.030901,12.1552362 112.366706,12.2313114 111.986324,12.3834642 C111.605942,12.535617 111.415754,12.8106582 111.415754,13.2085962 C111.415754,13.5363098 111.524015,13.8025731 111.74054,14.0073941 C111.957065,14.2122151 112.22918,14.3146241 112.556894,14.3146241 Z M124.196521,7.16933249 C125.226478,7.16933249 125.993082,7.47070745 126.496357,8.07346644 C126.999631,8.67622542 127.251265,9.58620227 127.251265,10.8034243 L127.251265,14.8588601 C127.251265,15.245094 127.1313,15.5493949 126.891367,15.771772 C126.651434,15.9941491 126.326651,16.105336 125.917009,16.105336 C125.507367,16.105336 125.18551,15.9941491 124.951429,15.771772 C124.717348,15.5493949 124.600309,15.245094 124.600309,14.8588601 L124.600309,10.9263163 C124.600309,10.3411134 124.492048,9.91392168 124.275523,9.64472835 C124.058998,9.37553502 123.722511,9.24094037 123.266053,9.24094037 C122.715962,9.24094037 122.274141,9.41649861 121.940575,9.76762034 C121.607009,10.1187421 121.440229,10.5868974 121.440229,11.1721003 L121.440229,14.8588601 C121.440229,15.245094 121.32319,15.5493949 121.089109,15.771772 C120.855028,15.9941491 120.533171,16.105336 120.123529,16.105336 C119.713887,16.105336 119.389104,15.9941491 119.149171,15.771772 C118.909238,15.5493949 118.789273,15.245094 118.789273,14.8588601 L118.789273,8.41580842 C118.789273,8.05298262 118.91509,7.76038556 119.166727,7.53800847 C119.418364,7.31563137 119.743147,7.20444448 120.141085,7.20444448 C120.503911,7.20444448 120.799434,7.31270539 121.027663,7.52923047 C121.255892,7.74575554 121.370005,8.02372274 121.370005,8.36314042 L121.370005,8.60892441 C121.674311,8.14076209 122.069317,7.78379368 122.555035,7.53800847 C123.040753,7.29222325 123.58791,7.16933249 124.196521,7.16933249 Z M133.114968,7.16933249 C134.379007,7.16933249 135.315317,7.4765594 135.923928,8.09102243 C136.532539,8.70548547 136.83684,9.64472203 136.83684,10.9087603 L136.83684,14.8764161 C136.83684,15.26265 136.725653,15.5640249 136.503276,15.78055 C136.280899,15.9970751 135.970746,16.105336 135.572808,16.105336 C135.198278,16.105336 134.896904,15.9912231 134.668674,15.762994 C134.440445,15.5347649 134.326332,15.2392419 134.326332,14.8764161 L134.326332,14.7535241 C134.150772,15.1865742 133.858174,15.5259868 133.448532,15.771772 C133.03889,16.0175572 132.559031,16.140448 132.008941,16.140448 C131.423738,16.140448 130.894137,16.0234092 130.420123,15.789328 C129.946108,15.5552469 129.571584,15.2275381 129.296539,14.8061921 C129.021493,14.384846 128.883973,13.9166907 128.883973,13.4017121 C128.883973,12.769693 129.044901,12.272278 129.366763,11.9094522 C129.688624,11.5466264 130.206521,11.2832891 130.920469,11.1194323 C131.634416,10.9555755 132.61169,10.8736483 133.85232,10.8736483 L134.308776,10.8736483 L134.308776,10.5576403 C134.308776,10.0660699 134.200516,9.70910146 133.98399,9.48672436 C133.767465,9.26434726 133.407571,9.15316038 132.904296,9.15316038 C132.401022,9.15316038 131.675381,9.32871861 130.727353,9.67984035 C130.458159,9.80858498 130.229934,9.87295634 130.042669,9.87295634 C129.785179,9.87295634 129.580361,9.78225125 129.428209,9.60083835 C129.276056,9.41942545 129.199981,9.18242184 129.199981,8.88982039 C129.199981,8.65573923 129.252648,8.46262518 129.357985,8.31047242 C129.463321,8.15831967 129.633028,8.01787308 129.867109,7.88912845 C130.276751,7.66675135 130.777092,7.49119311 131.368147,7.36244847 C131.959202,7.23370384 132.54147,7.16933249 133.114968,7.16933249 Z M132.588289,14.3146241 C133.103267,14.3146241 133.518755,14.1419918 133.834764,13.7967221 C134.150774,13.4514524 134.308776,13.0037789 134.308776,12.4536882 L134.308776,12.1552362 L134.010324,12.1552362 C133.062296,12.1552362 132.3981,12.2313114 132.017719,12.3834642 C131.637337,12.535617 131.447149,12.8106582 131.447149,13.2085962 C131.447149,13.5363098 131.555409,13.8025731 131.771935,14.0073941 C131.98846,14.2122151 132.260575,14.3146241 132.588289,14.3146241 Z M146.299524,7.20444448 C146.697462,7.20444448 147.016393,7.31855734 147.256326,7.54678646 C147.496259,7.77501559 147.616224,8.07639056 147.616224,8.45092041 L147.616224,15.0695321 C147.616224,16.4623149 147.21244,17.5156643 146.40486,18.2296119 C145.59728,18.9435594 144.415188,19.3005278 142.858548,19.3005278 C141.547693,19.3005278 140.470936,19.0664502 139.628244,18.5982879 C139.417571,18.4812473 139.253717,18.3378747 139.136676,18.1681659 C139.019636,17.998457 138.961116,17.808269 138.961116,17.5975959 C138.961116,17.3049945 139.031339,17.0650649 139.171788,16.8778 C139.312237,16.690535 139.499499,16.596904 139.73358,16.596904 C139.862325,16.596904 140.014475,16.6232377 140.190036,16.675906 C140.365597,16.7285742 140.547007,16.7900196 140.734272,16.860244 C141.108802,17.0006926 141.454066,17.1118795 141.770076,17.1938079 C142.086086,17.2757363 142.425498,17.3166999 142.788324,17.3166999 C143.537384,17.3166999 144.093318,17.1469936 144.456144,16.807576 C144.81897,16.4681583 145.00038,15.9531875 145.00038,15.262648 L145.00038,14.3146241 C144.754595,14.7593783 144.385922,15.1104948 143.894352,15.367984 C143.402781,15.6254733 142.852699,15.754216 142.244088,15.754216 C141.495028,15.754216 140.830833,15.5786578 140.251482,15.227536 C139.672131,14.8764143 139.218606,14.3760733 138.890892,13.7264981 C138.563179,13.0769229 138.399324,12.3249485 138.399324,11.4705522 C138.399324,10.616156 138.563179,9.86418159 138.890892,9.21460637 C139.218606,8.56503116 139.672131,8.06176422 140.251482,7.70479046 C140.830833,7.34781669 141.495028,7.16933249 142.244088,7.16933249 C142.840995,7.16933249 143.382299,7.29514922 143.868018,7.54678646 C144.353736,7.79842371 144.725335,8.14661421 144.982824,8.59136841 L144.982824,8.41580842 C144.982824,8.04127856 145.102789,7.74575554 145.342722,7.52923047 C145.582655,7.31270539 145.901586,7.20444448 146.299524,7.20444448 Z M143.016552,13.7352761 C143.636867,13.7352761 144.119652,13.5363101 144.464922,13.1383722 C144.810192,12.7404342 144.982824,12.1844998 144.982824,11.4705522 C144.982824,10.7566047 144.810192,10.1977443 144.464922,9.79395434 C144.119652,9.39016434 143.636867,9.18827237 143.016552,9.18827237 C142.396237,9.18827237 141.910526,9.39016434 141.559404,9.79395434 C141.208282,10.1977443 141.032724,10.7566047 141.032724,11.4705522 C141.032724,12.1844998 141.208282,12.7404342 141.559404,13.1383722 C141.910526,13.5363101 142.396237,13.7352761 143.016552,13.7352761 Z M156.569783,13.4368241 C156.803864,13.4368241 156.994052,13.5304552 157.140353,13.7177201 C157.286654,13.9049851 157.359803,14.1449146 157.359803,14.4375161 C157.359803,14.6364851 157.301284,14.8208212 157.184243,14.9905301 C157.067203,15.1602389 156.903348,15.3036115 156.692675,15.420652 C156.294737,15.6313251 155.832434,15.8039573 155.305751,15.938554 C154.779069,16.0731507 154.293358,16.140448 153.848603,16.140448 C152.912279,16.140448 152.095933,15.9590378 151.399541,15.596212 C150.70315,15.2333862 150.167697,14.7154894 149.793168,14.0425061 C149.418638,13.3695228 149.231376,12.5765848 149.231376,11.6636682 C149.231376,10.7858639 149.412786,10.0075557 149.775612,9.32872037 C150.138437,8.64988501 150.641704,8.12028433 151.285427,7.73990245 C151.929151,7.35952057 152.660643,7.16933249 153.479927,7.16933249 C154.264099,7.16933249 154.951702,7.34196475 155.542757,7.68723446 C156.133812,8.03250416 156.59319,8.52406722 156.920903,9.16193838 C157.248617,9.79980953 157.412471,10.545932 157.412471,11.4003283 C157.412471,11.6578175 157.351026,11.8538576 157.228133,11.9884542 C157.105241,12.1230509 156.932608,12.1903482 156.710231,12.1903482 L151.794551,12.1903482 C151.87648,12.8808876 152.08715,13.3812286 152.426567,13.6913861 C152.765985,14.0015437 153.251696,14.1566201 153.883715,14.1566201 C154.223133,14.1566201 154.527434,14.1156565 154.796627,14.0337281 C155.065821,13.9517997 155.36427,13.8406128 155.691983,13.7001641 C155.85584,13.6299398 156.013842,13.5684944 156.165995,13.5158261 C156.318148,13.4631579 156.452743,13.4368241 156.569783,13.4368241 Z M153.550151,8.99515638 C153.046877,8.99515638 152.643093,9.15608477 152.338787,9.47794636 C152.034482,9.79980795 151.853072,10.2650373 151.794551,10.8736483 L155.182859,10.8736483 C155.147747,10.2533332 154.992671,9.78517792 154.717625,9.46916836 C154.44258,9.1531588 154.053426,8.99515638 153.550151,8.99515638 Z M164.153975,7.20444448 C164.505097,7.18103637 164.783064,7.26003757 164.987885,7.44145047 C165.192706,7.62286337 165.295115,7.89497863 165.295115,8.25780443 C165.295115,8.64403834 165.201484,8.93078345 165.014219,9.11804838 C164.826954,9.3053133 164.493393,9.42235213 164.013527,9.46916836 L163.486847,9.52183636 C162.843124,9.5920607 162.377894,9.80273059 162.091145,10.1538523 C161.804395,10.5049741 161.661023,10.9555735 161.661023,11.5056642 L161.661023,14.8588601 C161.661023,15.2685021 161.535206,15.578655 161.283569,15.789328 C161.031932,16.0000011 160.718853,16.105336 160.344323,16.105336 C159.958089,16.105336 159.639158,16.0000011 159.387521,15.789328 C159.135884,15.578655 159.010067,15.2685021 159.010067,14.8588601 L159.010067,8.41580842 C159.010067,8.02957451 159.13881,7.73112551 159.396299,7.52045247 C159.653788,7.30977942 159.963941,7.20444448 160.326767,7.20444448 C160.677889,7.20444448 160.970486,7.30685345 161.204567,7.51167447 C161.438648,7.71649548 161.555687,8.00031463 161.555687,8.36314042 L161.555687,8.83715239 C161.76636,8.3338779 162.085291,7.94764979 162.512489,7.67845646 C162.939687,7.40926313 163.404916,7.25711266 163.908191,7.22200048 L164.153975,7.20444448 Z" id="VueFileManager" fill="#FFFFFF" fill-rule="nonzero"></path>
            <g transform="translate(0.000000, 0.640000)">
                <g id="folder-solid" fill-rule="nonzero">
                    <path d="M17.9981623,2.48035766 L10.5506469,2.48035766 L8.06814174,0 L1.86187886,0 C0.833578683,0 0,0.832857594 0,1.86026824 L0,13.0218777 C0,14.0492883 0.833578683,14.8821459 1.86187886,14.8821459 L17.9981623,14.8821459 C19.0264625,14.8821459 19.8600412,14.0492883 19.8600412,13.0218777 L19.8600412,4.3406259 C19.8600412,3.31321525 19.0264625,2.48035766 17.9981623,2.48035766 Z" id="Path-Copy" fill="#35495D"></path>
                    <path d="M20.9461372,6.04587178 L13.4986218,6.04587178 L11.0161166,3.56551413 L4.80985373,3.56551413 C3.78155355,3.56551413 2.94797487,4.39837172 2.94797487,5.42578237 L2.94797487,16.5873918 C2.94797487,17.6148025 3.78155355,18.4476601 4.80985373,18.4476601 L20.9461372,18.4476601 C21.9744374,18.4476601 22.8080161,17.6148025 22.8080161,16.5873918 L22.8080161,7.90614003 C22.8080161,6.87872938 21.9744374,6.04587178 20.9461372,6.04587178 Z" id="Path" fill="#41B883"></path>
                </g>
                <text id=".Vue" font-family="Nunito-Bold, Nunito" font-size="3.01870801" font-weight="bold" fill="#35495D">
                    <tspan x="5.03118002" y="16.081068">.Vue</tspan>
                </text>
            </g>
        </g>
    </g>
</svg>