<?xml version="1.0" encoding="UTF-8"?>
<svg width="170px" height="26px" viewBox="0 0 170 26" version="1.1" xmlns="http://www.w3.org/2000/svg" xmlns:xlink="http://www.w3.org/1999/xlink">
    <!-- Generator: Sketch 55.2 (78181) - https://sketchapp.com -->
    <title>vuefilemanager-horizontal-logo</title>
    <desc>Created with Sketch.</desc>
    <g id="vuefilemanager-horizontal-logo" stroke="none" stroke-width="1" fill="none" fill-rule="evenodd">
        <g id="Logo" transform="translate(0.000000, 1.000000)">
            <path d="M43.2106974,6.25503665 C43.3160339,6.00925143 43.4681844,5.82491528 43.6671534,5.70202268 C43.8661224,5.57913007 44.0884961,5.51768469 44.3342814,5.51768469 C44.6854031,5.51768469 45.0014079,5.63472351 45.2823053,5.86880467 C45.5632027,6.10288582 45.7036493,6.38963094 45.7036493,6.72904862 C45.7036493,6.90460949 45.6626857,7.08016772 45.5807573,7.25572859 L40.8406376,17.262648 C40.7118929,17.5318414 40.5187789,17.7395853 40.2612896,17.885886 C40.0038003,18.0321867 39.7229071,18.105336 39.4186016,18.105336 C39.1142961,18.105336 38.833403,18.0321867 38.5759137,17.885886 C38.3184244,17.7395853 38.1253103,17.5318414 37.9965657,17.262648 L33.256446,7.25572859 C33.1745176,7.09187178 33.133554,6.92216549 33.133554,6.74660462 C33.133554,6.39548288 33.2798525,6.10288582 33.572454,5.86880467 C33.8650554,5.63472351 34.1927641,5.51768469 34.5555899,5.51768469 C34.8013751,5.51768469 35.0266749,5.57913007 35.2314959,5.70202268 C35.4363169,5.82491528 35.5913933,6.00925143 35.6967298,6.25503665 L39.4537136,14.4712442 L43.2106974,6.25503665 Z M52.9191649,9.20444448 C53.3288069,9.20444448 53.6535897,9.31563137 53.8935228,9.53800847 C54.133456,9.76038556 54.2534208,10.0646865 54.2534208,10.4509204 L54.2534208,16.8939721 C54.2534208,17.2567979 54.1276041,17.5493949 53.8759668,17.771772 C53.6243296,17.9941491 53.2995469,18.105336 52.9016089,18.105336 C52.527079,18.105336 52.22863,18.0000011 52.0062529,17.789328 C51.7838758,17.578655 51.672689,17.2977618 51.672689,16.9466401 L51.672689,16.7710801 C51.4034956,17.2158343 51.0494532,17.5552469 50.610551,17.789328 C50.1716488,18.0234092 49.6771598,18.140448 49.1270691,18.140448 C48.0385917,18.140448 47.2280979,17.839073 46.6955632,17.236314 C46.1630286,16.6335551 45.8967653,15.7235782 45.8967653,14.5063562 L45.8967653,10.4509204 C45.8967653,10.0646865 46.0167301,9.76038556 46.2566633,9.53800847 C46.4965964,9.31563137 46.8213792,9.20444448 47.2310212,9.20444448 C47.6406632,9.20444448 47.96252,9.31563137 48.1966012,9.53800847 C48.4306823,9.76038556 48.5477211,10.0646865 48.5477211,10.4509204 L48.5477211,14.5590242 C48.5477211,15.0740027 48.655982,15.4543789 48.8725071,15.7001641 C49.0890322,15.9459493 49.4196669,16.0688401 49.8644211,16.0688401 C50.3793996,16.0688401 50.7978134,15.8932819 51.119675,15.5421601 C51.4415366,15.1910384 51.602465,14.728735 51.602465,14.1552362 L51.602465,10.4509204 C51.602465,10.0646865 51.7195038,9.76038556 51.9535849,9.53800847 C52.1876661,9.31563137 52.5095229,9.20444448 52.9191649,9.20444448 Z M63.2069803,15.4368241 C63.4410615,15.4368241 63.6312496,15.5304552 63.7775503,15.7177201 C63.923851,15.9049851 63.9970003,16.1449146 63.9970003,16.4375161 C63.9970003,16.6364851 63.9384809,16.8208212 63.8214403,16.9905301 C63.7043997,17.1602389 63.5405454,17.3036115 63.3298723,17.420652 C62.9319344,17.6313251 62.469631,17.8039573 61.9429484,17.938554 C61.4162658,18.0731507 60.9305547,18.140448 60.4858005,18.140448 C59.5494758,18.140448 58.7331301,17.9590378 58.0367386,17.596212 C57.3403472,17.2333862 56.8048946,16.7154894 56.4303647,16.0425061 C56.0558348,15.3695228 55.8685727,14.5765848 55.8685727,13.6636682 C55.8685727,12.7858639 56.0499829,12.0075557 56.4128087,11.3287204 C56.7756345,10.649885 57.2789014,10.1202843 57.9226246,9.73990245 C58.5663478,9.35952057 59.2978404,9.16933249 60.1171245,9.16933249 C60.9012964,9.16933249 61.5888995,9.34196475 62.1799544,9.68723446 C62.7710093,10.0325042 63.2303867,10.5240672 63.5581003,11.1619384 C63.8858139,11.7998095 64.0496683,12.545932 64.0496683,13.4003283 C64.0496683,13.6578175 63.9882229,13.8538576 63.8653303,13.9884542 C63.7424377,14.1230509 63.5698054,14.1903482 63.3474283,14.1903482 L58.4317486,14.1903482 C58.513677,14.8808876 58.7243469,15.3812286 59.0637646,15.6913861 C59.4031822,16.0015437 59.8888933,16.1566201 60.5209125,16.1566201 C60.8603302,16.1566201 61.1646311,16.1156565 61.4338244,16.0337281 C61.7030178,15.9517997 62.0014668,15.8406128 62.3291804,15.7001641 C62.4930372,15.6299398 62.6510396,15.5684944 62.8031923,15.5158261 C62.9553451,15.4631579 63.0899397,15.4368241 63.2069803,15.4368241 Z M60.1873485,10.9951564 C59.684074,10.9951564 59.2802901,11.1560848 58.9759846,11.4779464 C58.6716791,11.799808 58.4902689,12.2650373 58.4317486,12.8736483 L61.8200564,12.8736483 C61.7849442,12.2533332 61.6298678,11.7851779 61.3548224,11.4691684 C61.0797771,11.1531588 60.690623,10.9951564 60.1873485,10.9951564 Z M67.2273041,18.105336 C66.8176621,18.105336 66.4870274,17.9795193 66.2353902,17.727882 C65.9837529,17.4762448 65.8579362,17.1456101 65.8579362,16.7359681 L65.8579362,6.90460861 C65.8579362,6.49496658 65.9691231,6.17896176 66.1915002,5.95658466 C66.4138773,5.73420756 66.7298821,5.62302068 67.1395241,5.62302068 L73.1787878,5.62302068 C73.623542,5.62302068 73.9512507,5.7107998 74.1619237,5.88636067 C74.3725968,6.06192153 74.4779317,6.33696277 74.4779317,6.71149262 C74.4779317,7.07431841 74.3725968,7.34350771 74.1619237,7.51906858 C73.9512507,7.69462944 73.623542,7.78240856 73.1787878,7.78240856 L68.56156,7.78240856 L68.56156,10.6264804 L72.8276678,10.6264804 C73.272422,10.6264804 73.6001307,10.7142595 73.8108037,10.8898204 C74.0214768,11.0653813 74.1268117,11.3404225 74.1268117,11.7149523 C74.1268117,12.0777781 74.0214768,12.3469674 73.8108037,12.5225283 C73.6001307,12.6980892 73.272422,12.7858683 72.8276678,12.7858683 L68.56156,12.7858683 L68.56156,16.7359681 C68.56156,17.1573142 68.4415952,17.4908748 68.2016621,17.73666 C67.9617289,17.9824452 67.6369461,18.105336 67.2273041,18.105336 Z M77.0235516,18.105336 C76.6373177,18.105336 76.3183869,18.0000011 76.0667496,17.789328 C75.8151124,17.578655 75.6892956,17.2685021 75.6892956,16.8588601 L75.6892956,10.4509204 C75.6892956,10.0412784 75.8180383,9.73112551 76.0755276,9.52045247 C76.3330169,9.30977942 76.6490217,9.20444448 77.0235516,9.20444448 C77.3980814,9.20444448 77.7111603,9.30977942 77.9627975,9.52045247 C78.2144348,9.73112551 78.3402515,10.0412784 78.3402515,10.4509204 L78.3402515,16.8588601 C78.3402515,17.2685021 78.2144348,17.578655 77.9627975,17.789328 C77.7111603,18.0000011 77.3980814,18.105336 77.0235516,18.105336 Z M77.0235516,7.79996456 C76.5553893,7.79996456 76.186717,7.67999977 75.9175236,7.44006658 C75.6483303,7.20013339 75.5137357,6.87535066 75.5137357,6.46570863 C75.5137357,6.05606661 75.6483303,5.73420984 75.9175236,5.50012869 C76.186717,5.26604753 76.5553893,5.14900871 77.0235516,5.14900871 C77.4800098,5.14900871 77.8457561,5.2689735 78.1208015,5.50890669 C78.3958469,5.74883987 78.5333675,6.06777067 78.5333675,6.46570863 C78.5333675,6.87535066 78.3987728,7.20013339 78.1295795,7.44006658 C77.8603862,7.67999977 77.4917139,7.79996456 77.0235516,7.79996456 Z M81.7110033,18.105336 C81.3247694,18.105336 81.0058386,18.0000011 80.7542014,17.789328 C80.5025641,17.578655 80.3767474,17.2685021 80.3767474,16.8588601 L80.3767474,6.78171662 C80.3767474,6.37207459 80.5025641,6.06192171 80.7542014,5.85124867 C81.0058386,5.64057563 81.3247694,5.53524069 81.7110033,5.53524069 C82.0855332,5.53524069 82.398612,5.64057563 82.6502493,5.85124867 C82.9018865,6.06192171 83.0277032,6.37207459 83.0277032,6.78171662 L83.0277032,16.8588601 C83.0277032,17.2685021 82.9018865,17.578655 82.6502493,17.789328 C82.398612,18.0000011 82.0855332,18.105336 81.7110033,18.105336 Z M91.9812627,15.4368241 C92.2153439,15.4368241 92.405532,15.5304552 92.5518327,15.7177201 C92.6981334,15.9049851 92.7712827,16.1449146 92.7712827,16.4375161 C92.7712827,16.6364851 92.7127633,16.8208212 92.5957227,16.9905301 C92.4786821,17.1602389 92.3148278,17.3036115 92.1041547,17.420652 C91.7062168,17.6313251 91.2439134,17.8039573 90.7172308,17.938554 C90.1905482,18.0731507 89.7048371,18.140448 89.2600829,18.140448 C88.3237583,18.140448 87.5074125,17.9590378 86.811021,17.596212 C86.1146296,17.2333862 85.579177,16.7154894 85.2046471,16.0425061 C84.8301173,15.3695228 84.6428551,14.5765848 84.6428551,13.6636682 C84.6428551,12.7858639 84.8242653,12.0075557 85.1870911,11.3287204 C85.5499169,10.649885 86.0531839,10.1202843 86.696907,9.73990245 C87.3406302,9.35952057 88.0721229,9.16933249 88.8914069,9.16933249 C89.6755788,9.16933249 90.3631819,9.34196475 90.9542368,9.68723446 C91.5452917,10.0325042 92.0046691,10.5240672 92.3323827,11.1619384 C92.6600963,11.7998095 92.8239507,12.545932 92.8239507,13.4003283 C92.8239507,13.6578175 92.7625053,13.8538576 92.6396127,13.9884542 C92.5167201,14.1230509 92.3440878,14.1903482 92.1217107,14.1903482 L87.206031,14.1903482 C87.2879594,14.8808876 87.4986293,15.3812286 87.838047,15.6913861 C88.1774647,16.0015437 88.6631758,16.1566201 89.2951949,16.1566201 C89.6346126,16.1566201 89.9389135,16.1156565 90.2081068,16.0337281 C90.4773002,15.9517997 90.7757492,15.8406128 91.1034628,15.7001641 C91.2673196,15.6299398 91.425322,15.5684944 91.5774748,15.5158261 C91.7296275,15.4631579 91.8642222,15.4368241 91.9812627,15.4368241 Z M88.9616309,10.9951564 C88.4583564,10.9951564 88.0545725,11.1560848 87.750267,11.4779464 C87.4459615,11.799808 87.2645513,12.2650373 87.206031,12.8736483 L90.5943388,12.8736483 C90.5592266,12.2533332 90.4041502,11.7851779 90.1291048,11.4691684 C89.8540595,11.1531588 89.4649054,10.9951564 88.9616309,10.9951564 Z M105.622274,5.53524069 C106.008508,5.53524069 106.321587,5.66105742 106.56152,5.91269466 C106.801453,6.16433191 106.921418,6.48911464 106.921418,6.88705261 L106.921418,16.8588601 C106.921418,17.245094 106.810231,17.5493949 106.587854,17.771772 C106.365477,17.9941491 106.07288,18.105336 105.710054,18.105336 C105.358932,18.105336 105.072187,17.9941491 104.84981,17.771772 C104.627433,17.5493949 104.516246,17.245094 104.516246,16.8588601 L104.516246,10.6615924 L102.023294,15.3490441 C101.859437,15.6533497 101.680953,15.8757234 101.487836,16.0161721 C101.294719,16.1566208 101.063568,16.2268441 100.794374,16.2268441 C100.536885,16.2268441 100.308659,16.1566208 100.10969,16.0161721 C99.9107213,15.8757234 99.7293111,15.6533497 99.5654543,15.3490441 L97.0725025,10.7493724 L97.0725025,16.8588601 C97.0725025,17.2333899 96.9613156,17.5347649 96.7389385,17.762994 C96.5165614,17.9912231 96.2239643,18.105336 95.8611385,18.105336 C95.5100168,18.105336 95.2232717,17.9941491 95.0008946,17.771772 C94.7785175,17.5493949 94.6673306,17.245094 94.6673306,16.8588601 L94.6673306,6.88705261 C94.6673306,6.48911464 94.7872954,6.16433191 95.0272286,5.91269466 C95.2671618,5.66105742 95.5802406,5.53524069 95.9664745,5.53524069 C96.5282693,5.53524069 96.955461,5.83368968 97.2480625,6.43059664 L100.81193,13.1896563 L104.358242,6.43059664 C104.674252,5.83368968 105.095591,5.53524069 105.622274,5.53524069 Z M113.083574,9.16933249 C114.347612,9.16933249 115.283922,9.4765594 115.892533,10.0910224 C116.501144,10.7054855 116.805445,11.644722 116.805445,12.9087603 L116.805445,16.8764161 C116.805445,17.26265 116.694258,17.5640249 116.471881,17.78055 C116.249504,17.9970751 115.939351,18.105336 115.541413,18.105336 C115.166884,18.105336 114.865509,17.9912231 114.637279,17.762994 C114.40905,17.5347649 114.294938,17.2392419 114.294938,16.8764161 L114.294938,16.7535241 C114.119377,17.1865742 113.82678,17.5259868 113.417138,17.771772 C113.007496,18.0175572 112.527636,18.140448 111.977546,18.140448 C111.392343,18.140448 110.862742,18.0234092 110.388728,17.789328 C109.914713,17.5552469 109.540189,17.2275381 109.265144,16.8061921 C108.990098,16.384846 108.852578,15.9166907 108.852578,15.4017121 C108.852578,14.769693 109.013506,14.272278 109.335368,13.9094522 C109.657229,13.5466264 110.175126,13.2832891 110.889074,13.1194323 C111.603021,12.9555755 112.580295,12.8736483 113.820926,12.8736483 L114.277382,12.8736483 L114.277382,12.5576403 C114.277382,12.0660699 114.169121,11.7091015 113.952596,11.4867244 C113.73607,11.2643473 113.376176,11.1531604 112.872902,11.1531604 C112.369627,11.1531604 111.643986,11.3287186 110.695958,11.6798403 C110.426764,11.808585 110.198539,11.8729563 110.011274,11.8729563 C109.753784,11.8729563 109.548967,11.7822512 109.396814,11.6008384 C109.244661,11.4194255 109.168586,11.1824218 109.168586,10.8898204 C109.168586,10.6557392 109.221253,10.4626252 109.32659,10.3104724 C109.431926,10.1583197 109.601633,10.0178731 109.835714,9.88912845 C110.245356,9.66675135 110.745697,9.49119311 111.336752,9.36244847 C111.927807,9.23370384 112.510075,9.16933249 113.083574,9.16933249 Z M112.556894,16.3146241 C113.071872,16.3146241 113.48736,16.1419918 113.80337,15.7967221 C114.119379,15.4514524 114.277382,15.0037789 114.277382,14.4536882 L114.277382,14.1552362 L113.97893,14.1552362 C113.030901,14.1552362 112.366706,14.2313114 111.986324,14.3834642 C111.605942,14.535617 111.415754,14.8106582 111.415754,15.2085962 C111.415754,15.5363098 111.524015,15.8025731 111.74054,16.0073941 C111.957065,16.2122151 112.22918,16.3146241 112.556894,16.3146241 Z M124.196521,9.16933249 C125.226478,9.16933249 125.993082,9.47070745 126.496357,10.0734664 C126.999631,10.6762254 127.251265,11.5862023 127.251265,12.8034243 L127.251265,16.8588601 C127.251265,17.245094 127.1313,17.5493949 126.891367,17.771772 C126.651434,17.9941491 126.326651,18.105336 125.917009,18.105336 C125.507367,18.105336 125.18551,17.9941491 124.951429,17.771772 C124.717348,17.5493949 124.600309,17.245094 124.600309,16.8588601 L124.600309,12.9263163 C124.600309,12.3411134 124.492048,11.9139217 124.275523,11.6447283 C124.058998,11.375535 123.722511,11.2409404 123.266053,11.2409404 C122.715962,11.2409404 122.274141,11.4164986 121.940575,11.7676203 C121.607009,12.1187421 121.440229,12.5868974 121.440229,13.1721003 L121.440229,16.8588601 C121.440229,17.245094 121.32319,17.5493949 121.089109,17.771772 C120.855028,17.9941491 120.533171,18.105336 120.123529,18.105336 C119.713887,18.105336 119.389104,17.9941491 119.149171,17.771772 C118.909238,17.5493949 118.789273,17.245094 118.789273,16.8588601 L118.789273,10.4158084 C118.789273,10.0529826 118.91509,9.76038556 119.166727,9.53800847 C119.418364,9.31563137 119.743147,9.20444448 120.141085,9.20444448 C120.503911,9.20444448 120.799434,9.31270539 121.027663,9.52923047 C121.255892,9.74575554 121.370005,10.0237227 121.370005,10.3631404 L121.370005,10.6089244 C121.674311,10.1407621 122.069317,9.78379368 122.555035,9.53800847 C123.040753,9.29222325 123.58791,9.16933249 124.196521,9.16933249 Z M133.114968,9.16933249 C134.379007,9.16933249 135.315317,9.4765594 135.923928,10.0910224 C136.532539,10.7054855 136.83684,11.644722 136.83684,12.9087603 L136.83684,16.8764161 C136.83684,17.26265 136.725653,17.5640249 136.503276,17.78055 C136.280899,17.9970751 135.970746,18.105336 135.572808,18.105336 C135.198278,18.105336 134.896904,17.9912231 134.668674,17.762994 C134.440445,17.5347649 134.326332,17.2392419 134.326332,16.8764161 L134.326332,16.7535241 C134.150772,17.1865742 133.858174,17.5259868 133.448532,17.771772 C133.03889,18.0175572 132.559031,18.140448 132.008941,18.140448 C131.423738,18.140448 130.894137,18.0234092 130.420123,17.789328 C129.946108,17.5552469 129.571584,17.2275381 129.296539,16.8061921 C129.021493,16.384846 128.883973,15.9166907 128.883973,15.4017121 C128.883973,14.769693 129.044901,14.272278 129.366763,13.9094522 C129.688624,13.5466264 130.206521,13.2832891 130.920469,13.1194323 C131.634416,12.9555755 132.61169,12.8736483 133.85232,12.8736483 L134.308776,12.8736483 L134.308776,12.5576403 C134.308776,12.0660699 134.200516,11.7091015 133.98399,11.4867244 C133.767465,11.2643473 133.407571,11.1531604 132.904296,11.1531604 C132.401022,11.1531604 131.675381,11.3287186 130.727353,11.6798403 C130.458159,11.808585 130.229934,11.8729563 130.042669,11.8729563 C129.785179,11.8729563 129.580361,11.7822512 129.428209,11.6008384 C129.276056,11.4194255 129.199981,11.1824218 129.199981,10.8898204 C129.199981,10.6557392 129.252648,10.4626252 129.357985,10.3104724 C129.463321,10.1583197 129.633028,10.0178731 129.867109,9.88912845 C130.276751,9.66675135 130.777092,9.49119311 131.368147,9.36244847 C131.959202,9.23370384 132.54147,9.16933249 133.114968,9.16933249 Z M132.588289,16.3146241 C133.103267,16.3146241 133.518755,16.1419918 133.834764,15.7967221 C134.150774,15.4514524 134.308776,15.0037789 134.308776,14.4536882 L134.308776,14.1552362 L134.010324,14.1552362 C133.062296,14.1552362 132.3981,14.2313114 132.017719,14.3834642 C131.637337,14.535617 131.447149,14.8106582 131.447149,15.2085962 C131.447149,15.5363098 131.555409,15.8025731 131.771935,16.0073941 C131.98846,16.2122151 132.260575,16.3146241 132.588289,16.3146241 Z M146.299524,9.20444448 C146.697462,9.20444448 147.016393,9.31855734 147.256326,9.54678646 C147.496259,9.77501559 147.616224,10.0763906 147.616224,10.4509204 L147.616224,17.0695321 C147.616224,18.4623149 147.21244,19.5156643 146.40486,20.2296119 C145.59728,20.9435594 144.415188,21.3005278 142.858548,21.3005278 C141.547693,21.3005278 140.470936,21.0664502 139.628244,20.5982879 C139.417571,20.4812473 139.253717,20.3378747 139.136676,20.1681659 C139.019636,19.998457 138.961116,19.808269 138.961116,19.5975959 C138.961116,19.3049945 139.031339,19.0650649 139.171788,18.8778 C139.312237,18.690535 139.499499,18.596904 139.73358,18.596904 C139.862325,18.596904 140.014475,18.6232377 140.190036,18.675906 C140.365597,18.7285742 140.547007,18.7900196 140.734272,18.860244 C141.108802,19.0006926 141.454066,19.1118795 141.770076,19.1938079 C142.086086,19.2757363 142.425498,19.3166999 142.788324,19.3166999 C143.537384,19.3166999 144.093318,19.1469936 144.456144,18.807576 C144.81897,18.4681583 145.00038,17.9531875 145.00038,17.262648 L145.00038,16.3146241 C144.754595,16.7593783 144.385922,17.1104948 143.894352,17.367984 C143.402781,17.6254733 142.852699,17.754216 142.244088,17.754216 C141.495028,17.754216 140.830833,17.5786578 140.251482,17.227536 C139.672131,16.8764143 139.218606,16.3760733 138.890892,15.7264981 C138.563179,15.0769229 138.399324,14.3249485 138.399324,13.4705522 C138.399324,12.616156 138.563179,11.8641816 138.890892,11.2146064 C139.218606,10.5650312 139.672131,10.0617642 140.251482,9.70479046 C140.830833,9.34781669 141.495028,9.16933249 142.244088,9.16933249 C142.840995,9.16933249 143.382299,9.29514922 143.868018,9.54678646 C144.353736,9.79842371 144.725335,10.1466142 144.982824,10.5913684 L144.982824,10.4158084 C144.982824,10.0412786 145.102789,9.74575554 145.342722,9.52923047 C145.582655,9.31270539 145.901586,9.20444448 146.299524,9.20444448 Z M143.016552,15.7352761 C143.636867,15.7352761 144.119652,15.5363101 144.464922,15.1383722 C144.810192,14.7404342 144.982824,14.1844998 144.982824,13.4705522 C144.982824,12.7566047 144.810192,12.1977443 144.464922,11.7939543 C144.119652,11.3901643 143.636867,11.1882724 143.016552,11.1882724 C142.396237,11.1882724 141.910526,11.3901643 141.559404,11.7939543 C141.208282,12.1977443 141.032724,12.7566047 141.032724,13.4705522 C141.032724,14.1844998 141.208282,14.7404342 141.559404,15.1383722 C141.910526,15.5363101 142.396237,15.7352761 143.016552,15.7352761 Z M156.569783,15.4368241 C156.803864,15.4368241 156.994052,15.5304552 157.140353,15.7177201 C157.286654,15.9049851 157.359803,16.1449146 157.359803,16.4375161 C157.359803,16.6364851 157.301284,16.8208212 157.184243,16.9905301 C157.067203,17.1602389 156.903348,17.3036115 156.692675,17.420652 C156.294737,17.6313251 155.832434,17.8039573 155.305751,17.938554 C154.779069,18.0731507 154.293358,18.140448 153.848603,18.140448 C152.912279,18.140448 152.095933,17.9590378 151.399541,17.596212 C150.70315,17.2333862 150.167697,16.7154894 149.793168,16.0425061 C149.418638,15.3695228 149.231376,14.5765848 149.231376,13.6636682 C149.231376,12.7858639 149.412786,12.0075557 149.775612,11.3287204 C150.138437,10.649885 150.641704,10.1202843 151.285427,9.73990245 C151.929151,9.35952057 152.660643,9.16933249 153.479927,9.16933249 C154.264099,9.16933249 154.951702,9.34196475 155.542757,9.68723446 C156.133812,10.0325042 156.59319,10.5240672 156.920903,11.1619384 C157.248617,11.7998095 157.412471,12.545932 157.412471,13.4003283 C157.412471,13.6578175 157.351026,13.8538576 157.228133,13.9884542 C157.105241,14.1230509 156.932608,14.1903482 156.710231,14.1903482 L151.794551,14.1903482 C151.87648,14.8808876 152.08715,15.3812286 152.426567,15.6913861 C152.765985,16.0015437 153.251696,16.1566201 153.883715,16.1566201 C154.223133,16.1566201 154.527434,16.1156565 154.796627,16.0337281 C155.065821,15.9517997 155.36427,15.8406128 155.691983,15.7001641 C155.85584,15.6299398 156.013842,15.5684944 156.165995,15.5158261 C156.318148,15.4631579 156.452743,15.4368241 156.569783,15.4368241 Z M153.550151,10.9951564 C153.046877,10.9951564 152.643093,11.1560848 152.338787,11.4779464 C152.034482,11.799808 151.853072,12.2650373 151.794551,12.8736483 L155.182859,12.8736483 C155.147747,12.2533332 154.992671,11.7851779 154.717625,11.4691684 C154.44258,11.1531588 154.053426,10.9951564 153.550151,10.9951564 Z M164.153975,9.20444448 C164.505097,9.18103637 164.783064,9.26003757 164.987885,9.44145047 C165.192706,9.62286337 165.295115,9.89497863 165.295115,10.2578044 C165.295115,10.6440383 165.201484,10.9307835 165.014219,11.1180484 C164.826954,11.3053133 164.493393,11.4223521 164.013527,11.4691684 L163.486847,11.5218364 C162.843124,11.5920607 162.377894,11.8027306 162.091145,12.1538523 C161.804395,12.5049741 161.661023,12.9555735 161.661023,13.5056642 L161.661023,16.8588601 C161.661023,17.2685021 161.535206,17.578655 161.283569,17.789328 C161.031932,18.0000011 160.718853,18.105336 160.344323,18.105336 C159.958089,18.105336 159.639158,18.0000011 159.387521,17.789328 C159.135884,17.578655 159.010067,17.2685021 159.010067,16.8588601 L159.010067,10.4158084 C159.010067,10.0295745 159.13881,9.73112551 159.396299,9.52045247 C159.653788,9.30977942 159.963941,9.20444448 160.326767,9.20444448 C160.677889,9.20444448 160.970486,9.30685345 161.204567,9.51167447 C161.438648,9.71649548 161.555687,10.0003146 161.555687,10.3631404 L161.555687,10.8371524 C161.76636,10.3338779 162.085291,9.94764979 162.512489,9.67845646 C162.939687,9.40926313 163.404916,9.25711266 163.908191,9.22200048 L164.153975,9.20444448 Z" id="VueFileManager" fill="#000000" fill-rule="nonzero"></path>
            <g transform="translate(0.000000, 2.640000)">
                <g id="folder-solid" fill-rule="nonzero">
                    <path d="M17.9981623,2.48035766 L10.5506469,2.48035766 L8.06814174,0 L1.86187886,0 C0.833578683,0 0,0.832857594 0,1.86026824 L0,13.0218777 C0,14.0492883 0.833578683,14.8821459 1.86187886,14.8821459 L17.9981623,14.8821459 C19.0264625,14.8821459 19.8600412,14.0492883 19.8600412,13.0218777 L19.8600412,4.3406259 C19.8600412,3.31321525 19.0264625,2.48035766 17.9981623,2.48035766 Z" id="Path-Copy" fill="#35495D"></path>
                    <path d="M20.9461372,6.04587178 L13.4986218,6.04587178 L11.0161166,3.56551413 L4.80985373,3.56551413 C3.78155355,3.56551413 2.94797487,4.39837172 2.94797487,5.42578237 L2.94797487,16.5873918 C2.94797487,17.6148025 3.78155355,18.4476601 4.80985373,18.4476601 L20.9461372,18.4476601 C21.9744374,18.4476601 22.8080161,17.6148025 22.8080161,16.5873918 L22.8080161,7.90614003 C22.8080161,6.87872938 21.9744374,6.04587178 20.9461372,6.04587178 Z" id="Path" fill="#41B883"></path>
                </g>
                <text id=".Vue" font-family="Nunito-Bold, Nunito" font-size="3.01870801" font-weight="bold" fill="#35495D">
                    <tspan x="5.03118002" y="16.081068">.Vue</tspan>
                </text>
            </g>
        </g>
    </g>
</svg>