<?xml version="1.0" encoding="UTF-8"?>
<svg width="166px" height="19px" viewBox="0 0 166 19" version="1.1" xmlns="http://www.w3.org/2000/svg" xmlns:xlink="http://www.w3.org/1999/xlink">
    <title>logo-horizontal</title>
    <g id="Assets" stroke="none" stroke-width="1" fill="none" fill-rule="evenodd">
        <g id="logo-horizontal" transform="translate(-0.000000, -0.000000)" fill-rule="nonzero">
            <path d="M43.0278429,3.53398329 C43.1488388,3.25273252 43.3273586,3.03682248 43.5620548,2.89186308 C43.7930342,2.74919932 44.0518491,2.67768469 44.3342814,2.67768469 C44.73272,2.67768469 45.0938924,2.81145225 45.4103422,3.07516041 C45.7358956,3.34645489 45.9036493,3.68895207 45.9036493,4.08904862 C45.9036493,4.29461452 45.8559821,4.49890243 45.7615049,4.70134586 L41.0210644,14.7089391 C40.8747312,15.0149086 40.6531686,15.2532562 40.3600915,15.4197773 C40.0722669,15.583314 39.7573024,15.665336 39.4186016,15.665336 C39.0799009,15.665336 38.7649363,15.583314 38.4771118,15.4197773 C38.1840347,15.2532562 37.9624721,15.0149086 37.8158181,14.7082653 L33.0775605,4.70517131 C32.9818971,4.51384447 32.933554,4.31356577 32.933554,4.10660462 C32.933554,3.69354005 33.1083376,3.34397276 33.4475149,3.0726309 C33.7752727,2.81042467 34.1469447,2.67768469 34.5555899,2.67768469 C34.8373543,2.67768469 35.098253,2.74883888 35.334395,2.89052409 C35.5764196,3.03573882 35.7591336,3.25292718 35.8786163,3.53186632 L39.4537136,11.3503034 L43.0278429,3.53398329 Z M51.5159365,14.6836149 C51.2851287,14.9462069 51.0144883,15.1605615 50.7046687,15.3257986 C50.2360022,15.5757541 49.7091703,15.700448 49.1270691,15.700448 C47.9853075,15.700448 47.1198719,15.3786434 46.5456806,14.7287346 C45.9765932,14.0846027 45.6967653,13.1282676 45.6967653,11.8663562 L45.6967653,7.81092041 C45.6967653,7.37139083 45.8378697,7.01346735 46.1207103,6.75132241 C46.4001545,6.49232533 46.7737012,6.36444448 47.2310212,6.36444448 C47.6890028,6.36444448 48.0603839,6.49273976 48.334351,6.75300858 C48.6103551,7.01521246 48.7477211,7.37236406 48.7477211,7.81092041 L48.7477211,11.9190242 C48.7477211,12.38959 48.8428983,12.7239962 49.0225789,12.927958 C49.1973969,13.1264001 49.4730094,13.2288401 49.8644211,13.2288401 C50.3245322,13.2288401 50.6891375,13.0758589 50.9722442,12.7670152 C51.2584096,12.4548347 51.402465,12.041003 51.402465,11.5152362 L51.402465,7.81092041 C51.402465,7.37236406 51.539831,7.01521246 51.8158351,6.75300858 C52.0898022,6.49273976 52.4611833,6.36444448 52.9191649,6.36444448 C53.3764849,6.36444448 53.7500316,6.49232533 54.0294758,6.75132241 C54.3123164,7.01346735 54.4534208,7.37139083 54.4534208,7.81092041 L54.4534208,14.2539721 C54.4534208,14.6729095 54.303989,15.0204253 54.0084064,15.2816378 C53.7183724,15.537947 53.3462623,15.665336 52.9016089,15.665336 C52.4784436,15.665336 52.1304943,15.5425304 51.868704,15.2945185 C51.691997,15.1271119 51.5743696,14.9221216 51.5159365,14.6836149 Z M58.6627688,11.7503482 C58.754532,12.2800523 58.9350814,12.6628707 59.1986788,12.9037442 C59.4975725,13.1768712 59.9352766,13.3166201 60.5209125,13.3166201 C60.841439,13.3166201 61.1262494,13.2782802 61.3755921,13.2023933 C61.6373474,13.1227287 61.9290482,13.0140558 62.2503965,12.8763351 C62.4185383,12.8042744 62.5809828,12.7411015 62.7377702,12.6868289 C62.909586,12.6273542 63.0656287,12.5968241 63.2069803,12.5968241 C63.5029013,12.5968241 63.7511172,12.7190228 63.9351552,12.9545913 C64.1106204,13.1791868 64.1970003,13.4625128 64.1970003,13.7975161 C64.1970003,14.0374354 64.125935,14.261291 63.9860828,14.4640766 C63.8507964,14.6602421 63.6635979,14.8240407 63.4234499,14.9574096 C63.01083,15.1758554 62.533806,15.3539846 61.992468,15.4923266 C61.4503315,15.6308726 60.9481785,15.700448 60.4858005,15.700448 C59.5186327,15.700448 58.6706669,15.5120111 57.9443273,15.1335821 C57.2134194,14.7527729 56.6492576,14.2071083 56.255605,13.4997637 C55.863728,12.7956098 55.6685727,11.9692491 55.6685727,11.0236682 C55.6685727,10.1140247 55.8575287,9.30334279 56.2364224,8.59444491 C56.6163907,7.8835364 57.1453625,7.32688583 57.8208788,6.92771715 C58.4961922,6.52866828 59.2628684,6.32933249 60.1171245,6.32933249 C60.9355737,6.32933249 61.6580034,6.51070845 62.2808349,6.87454072 C62.9051951,7.23926602 63.3910859,7.75920009 63.7359958,8.43054254 C64.0789514,9.09808116 64.2496683,9.8754526 64.2496683,10.7603283 C64.2496683,11.0639659 64.1732263,11.3078521 64.0130274,11.4833081 C63.8499071,11.6619636 63.6231814,11.7503482 63.3474283,11.7503482 L58.6627688,11.7503482 Z M58.6585158,10.0336483 L61.6028784,10.0336483 C61.5504573,9.5605159 61.4158317,9.20389862 61.2039615,8.96047325 C60.9690624,8.69058922 60.6354964,8.55515638 60.1873485,8.55515638 C59.7372122,8.55515638 59.3863943,8.69497508 59.1213139,8.97534863 C58.886669,9.2235307 58.731283,9.5749171 58.6585158,10.0336483 Z M68.76156,5.34240856 L68.76156,7.78648041 L72.8276678,7.78648041 C73.3150218,7.78648041 73.6866613,7.88602671 73.9388406,8.09617613 C74.1997374,8.31359012 74.3268117,8.64539528 74.3268117,9.07495235 C74.3268117,9.4931381 74.1992294,9.8191819 73.9388406,10.0361726 C73.6866613,10.246322 73.3150218,10.3458683 72.8276678,10.3458683 L68.76156,10.3458683 L68.76156,14.0959681 C68.76156,14.5668864 68.6234513,14.950896 68.3447769,15.2363674 C68.0651917,15.5227717 67.6884146,15.665336 67.2273041,15.665336 C66.766553,15.665336 66.3846912,15.5200257 66.0939688,15.2293034 C65.8032464,14.938581 65.6579362,14.5567192 65.6579362,14.0959681 L65.6579362,4.26460861 C65.6579362,3.80524395 65.7871025,3.43813958 66.0500788,3.17516331 C66.3130551,2.91218703 66.6801594,2.78302068 67.1395241,2.78302068 L73.1787878,2.78302068 C73.6661418,2.78302068 74.0377813,2.88256699 74.2899606,3.09271641 C74.5508574,3.3101304 74.6779317,3.64193556 74.6779317,4.07149262 C74.6779317,4.48967838 74.5503493,4.81572222 74.2899606,5.03271283 C74.0377813,5.24286226 73.6661418,5.34240856 73.1787878,5.34240856 L68.76156,5.34240856 Z M77.0235516,15.665336 C76.5922782,15.665336 76.2277179,15.5449308 75.9383623,15.3026795 C75.6381506,15.0513395 75.4892956,14.6843948 75.4892956,14.2188601 L75.4892956,7.81092041 C75.4892956,7.34447737 75.6419082,6.97681978 75.9488801,6.72566101 C76.2433214,6.48475446 76.6042513,6.36444448 77.0235516,6.36444448 C77.4434492,6.36444448 77.8021711,6.48513596 78.0911848,6.72710093 C78.3913966,6.97844098 78.5402515,7.34538567 78.5402515,7.81092041 L78.5402515,14.2188601 C78.5402515,14.6843948 78.3913966,15.0513395 78.0911848,15.3026795 C77.8021711,15.5446445 77.4434492,15.665336 77.0235516,15.665336 Z M77.0235516,5.35996456 C76.5093065,5.35996456 76.0932087,5.22456767 75.7844495,4.94936923 C75.471036,4.67002241 75.3137357,4.29044979 75.3137357,3.82570863 C75.3137357,3.3603018 75.4715677,2.98287729 75.7862879,2.70920758 C76.0949082,2.44084206 76.5101833,2.30900871 77.0235516,2.30900871 C77.5257577,2.30900871 77.9383423,2.44433644 78.2522753,2.71819288 C78.5719843,2.99708798 78.7333675,3.37135967 78.7333675,3.82570863 C78.7333675,4.29044979 78.5760671,4.67002241 78.2626536,4.94936923 C77.9538944,5.22456767 77.5377966,5.35996456 77.0235516,5.35996456 Z M81.7110033,15.665336 C81.2797299,15.665336 80.9151696,15.5449308 80.625814,15.3026795 C80.3256023,15.0513395 80.1767474,14.6843948 80.1767474,14.2188601 L80.1767474,4.14171662 C80.1767474,3.67618187 80.3256023,3.30923719 80.625814,3.05789713 C80.9151696,2.81564592 81.2797299,2.69524069 81.7110033,2.69524069 C82.130901,2.69524069 82.4896229,2.81593216 82.7786366,3.05789713 C83.0788483,3.30923719 83.2277032,3.67618187 83.2277032,4.14171662 L83.2277032,14.2188601 C83.2277032,14.6843948 83.0788483,15.0513395 82.7786366,15.3026795 C82.4896229,15.5446445 82.130901,15.665336 81.7110033,15.665336 Z M87.4370512,11.7503482 C87.5288145,12.2800523 87.7093638,12.6628707 87.9729612,12.9037442 C88.271855,13.1768712 88.709559,13.3166201 89.2951949,13.3166201 C89.6157215,13.3166201 89.9005318,13.2782802 90.1498745,13.2023933 C90.4116298,13.1227287 90.7033306,13.0140558 91.0246789,12.8763351 C91.1928207,12.8042744 91.3552652,12.7411015 91.5120527,12.6868289 C91.6838684,12.6273542 91.8399111,12.5968241 91.9812627,12.5968241 C92.2771837,12.5968241 92.5253996,12.7190228 92.7094376,12.9545913 C92.8849028,13.1791868 92.9712827,13.4625128 92.9712827,13.7975161 C92.9712827,14.0374354 92.9002175,14.261291 92.7603653,14.4640766 C92.6250788,14.6602421 92.4378803,14.8240407 92.1977323,14.9574096 C91.7851124,15.1758554 91.3080884,15.3539846 90.7667505,15.4923266 C90.2246139,15.6308726 89.7224609,15.700448 89.2600829,15.700448 C88.2929151,15.700448 87.4449493,15.5120111 86.7186097,15.1335821 C85.9877018,14.7527729 85.42354,14.2071083 85.0298874,13.4997637 C84.6380105,12.7956098 84.4428551,11.9692491 84.4428551,11.0236682 C84.4428551,10.1140247 84.6318111,9.30334279 85.0107048,8.59444491 C85.3906731,7.8835364 85.9196449,7.32688583 86.5951612,6.92771715 C87.2704746,6.52866828 88.0371508,6.32933249 88.8914069,6.32933249 C89.7098561,6.32933249 90.4322858,6.51070845 91.0551173,6.87454072 C91.6794776,7.23926602 92.1653683,7.75920009 92.5102782,8.43054254 C92.8532338,9.09808116 93.0239507,9.8754526 93.0239507,10.7603283 C93.0239507,11.0639659 92.9475088,11.3078521 92.7873098,11.4833081 C92.6241896,11.6619636 92.3974638,11.7503482 92.1217107,11.7503482 L87.4370512,11.7503482 Z M87.4327982,10.0336483 L90.3771609,10.0336483 C90.3247398,9.5605159 90.1901141,9.20389862 89.9782439,8.96047325 C89.7433448,8.69058922 89.4097788,8.55515638 88.9616309,8.55515638 C88.5114946,8.55515638 88.1606768,8.69497508 87.8955963,8.97534863 C87.6609514,9.2235307 87.5055655,9.5749171 87.4327982,10.0336483 Z M104.316246,8.82358024 L102.199388,12.8038641 C102.022358,13.1326342 101.825505,13.3778945 101.605471,13.5379193 C101.377005,13.7040761 101.10456,13.7868441 100.794374,13.7868441 C100.496181,13.7868441 100.227584,13.7041987 99.9943537,13.5395657 C99.7674823,13.3794212 99.5668447,13.1334784 99.3896194,12.804344 L97.2725025,8.89811425 L97.2725025,14.2188601 C97.2725025,14.6433888 97.1427155,14.9951798 96.8821844,15.262567 C96.6207013,15.5309312 96.2760737,15.665336 95.8611385,15.665336 C95.4585175,15.665336 95.1205781,15.5342983 94.8594732,15.2731934 C94.59723,15.0109501 94.4673306,14.655436 94.4673306,14.2188601 L94.4673306,4.24705261 C94.4673306,3.79951105 94.6056632,3.42500074 94.8824811,3.1346796 C95.1613359,2.84222205 95.5270803,2.69524069 95.9664745,2.69524069 C96.6089745,2.69524069 97.1030713,3.04043161 97.4249763,3.6973148 L100.811493,10.1200194 L104.181484,3.69701909 C104.52986,3.03897623 105.015134,2.69524069 105.622274,2.69524069 C106.061668,2.69524069 106.427413,2.84222205 106.706267,3.1346796 C106.983085,3.42500074 107.121418,3.79951105 107.121418,4.24705261 L107.121418,14.2188601 C107.121418,14.655436 106.991519,15.0109501 106.729275,15.2731934 C106.467786,15.5346822 106.123961,15.665336 105.710054,15.665336 C105.307433,15.665336 104.969494,15.5342983 104.708389,15.2731934 C104.446145,15.0109501 104.316246,14.655436 104.316246,14.2188601 L104.316246,8.82358024 Z M114.169308,14.7328675 C113.995405,14.9576449 113.778675,15.1480874 113.520037,15.3032706 C113.078079,15.568445 112.562639,15.700448 111.977546,15.700448 C111.362396,15.700448 110.802488,15.5767114 110.300172,15.328654 C109.794468,15.0789237 109.392542,14.7272389 109.097668,14.2755166 C108.801267,13.8214554 108.652578,13.3152797 108.652578,12.7617121 C108.652578,12.0837936 108.828797,11.5391158 109.185753,11.1367293 C109.538775,10.7387776 110.093108,10.4569131 110.844335,10.2845003 C111.575255,10.1167481 112.566518,10.0336483 113.820926,10.0336483 L114.077382,10.0336483 L114.077382,9.9176403 C114.077382,9.4735264 113.984021,9.1656898 113.809301,8.98624769 C113.636426,8.80870006 113.327179,8.71316038 112.872902,8.71316038 C112.398426,8.71316038 111.69311,8.88380129 110.782249,9.22026719 C110.488365,9.3608203 110.23261,9.4329563 110.011274,9.4329563 C109.696018,9.4329563 109.434686,9.31722353 109.243575,9.0893608 C109.059304,8.86965223 108.968586,8.58703086 108.968586,8.24982039 C108.968586,7.97726934 109.032056,7.74454636 109.162151,7.55663043 C109.287035,7.37624302 109.480112,7.21645529 109.740295,7.07335776 C110.167756,6.84130778 110.685707,6.65957053 111.294185,6.52703068 C111.899041,6.39527987 112.495565,6.32933249 113.083574,6.32933249 C114.39666,6.32933249 115.383868,6.65326022 116.03463,7.31027935 C116.684855,7.96675648 117.005445,8.95627167 117.005445,10.2687603 L117.005445,14.2364161 C117.005445,14.6737103 116.875058,15.0271295 116.611405,15.2838442 C116.348817,15.5395221 115.988377,15.665336 115.541413,15.665336 C115.115874,15.665336 114.763268,15.5318248 114.495858,15.2644154 C114.343774,15.1123312 114.234879,14.9343985 114.169308,14.7328675 Z M114.077382,11.7152362 L113.97893,11.7152362 C113.054558,11.7152362 112.411184,11.7889266 112.060602,11.9291595 C111.755438,12.0512249 111.615754,12.2532306 111.615754,12.5685962 C111.615754,12.8427415 111.70251,13.0561159 111.87798,13.2221004 C112.056341,13.3908208 112.279019,13.4746241 112.556894,13.4746241 C113.017206,13.4746241 113.378789,13.3243889 113.655835,13.0216905 C113.936475,12.7150648 114.077382,12.3158308 114.077382,11.8136882 L114.077382,11.7152362 Z M121.54075,7.42049978 C121.803701,7.13200209 122.111953,6.89807056 122.464733,6.7195551 C122.979301,6.45917128 123.557393,6.32933249 124.196521,6.32933249 C125.281872,6.32933249 126.105289,6.65304224 126.649879,7.30528301 C127.187361,7.94901129 127.451265,8.90336208 127.451265,10.1634243 L127.451265,14.2188601 C127.451265,14.6583897 127.31016,15.0163131 127.02732,15.2784581 C126.747876,15.5374551 126.374329,15.665336 125.917009,15.665336 C125.459027,15.665336 125.087646,15.5370407 124.813679,15.2767719 C124.537675,15.014568 124.400309,14.6574164 124.400309,14.2188601 L124.400309,10.2863163 C124.400309,9.742526 124.302793,9.35773392 124.11968,9.13008008 C123.944549,8.91234952 123.666026,8.80094037 123.266053,8.80094037 C122.768945,8.80094037 122.37994,8.95551191 122.085575,9.26537023 C121.789339,9.5771976 121.640229,9.9957517 121.640229,10.5321003 L121.640229,14.2188601 C121.640229,14.6574164 121.502863,15.014568 121.226859,15.2767719 C120.952892,15.5370407 120.581511,15.665336 120.123529,15.665336 C119.666209,15.665336 119.292663,15.5374551 119.013218,15.2784581 C118.730378,15.0163131 118.589273,14.6583897 118.589273,14.2188601 L118.589273,7.77580842 C118.589273,7.35687102 118.738705,7.00935519 119.034288,6.74814265 C119.324322,6.4918335 119.696432,6.36444448 120.141085,6.36444448 C120.553257,6.36444448 120.898353,6.49086578 121.165315,6.74413773 C121.362103,6.93083395 121.48759,7.15800556 121.54075,7.42049978 Z M134.200703,14.7328675 C134.0268,14.9576449 133.81007,15.1480874 133.551432,15.3032706 C133.109474,15.568445 132.594034,15.700448 132.008941,15.700448 C131.393791,15.700448 130.833883,15.5767114 130.331567,15.328654 C129.825863,15.0789237 129.423937,14.7272389 129.129063,14.2755166 C128.832662,13.8214554 128.683973,13.3152797 128.683973,12.7617121 C128.683973,12.0837936 128.860192,11.5391158 129.217148,11.1367293 C129.570169,10.7387776 130.124503,10.4569131 130.87573,10.2845003 C131.60665,10.1167481 132.597913,10.0336483 133.85232,10.0336483 L134.108776,10.0336483 L134.108776,9.9176403 C134.108776,9.4735264 134.015416,9.1656898 133.840696,8.98624769 C133.667821,8.80870006 133.358574,8.71316038 132.904296,8.71316038 C132.429821,8.71316038 131.724505,8.88380129 130.813644,9.22026719 C130.51976,9.3608203 130.264005,9.4329563 130.042669,9.4329563 C129.727413,9.4329563 129.466081,9.31722353 129.27497,9.0893608 C129.090699,8.86965223 128.999981,8.58703086 128.999981,8.24982039 C128.999981,7.97726934 129.063451,7.74454636 129.193546,7.55663043 C129.31843,7.37624302 129.511507,7.21645529 129.77169,7.07335776 C130.199151,6.84130778 130.717102,6.65957053 131.32558,6.52703068 C131.930436,6.39527987 132.52696,6.32933249 133.114968,6.32933249 C134.428055,6.32933249 135.415263,6.65326022 136.066025,7.31027935 C136.71625,7.96675648 137.03684,8.95627167 137.03684,10.2687603 L137.03684,14.2364161 C137.03684,14.6737103 136.906453,15.0271295 136.6428,15.2838442 C136.380212,15.5395221 136.019772,15.665336 135.572808,15.665336 C135.147269,15.665336 134.794662,15.5318248 134.527253,15.2644154 C134.375169,15.1123312 134.266274,14.9343985 134.200703,14.7328675 Z M134.108776,11.7152362 L134.010324,11.7152362 C133.085953,11.7152362 132.442579,11.7889266 132.091997,11.9291595 C131.786833,12.0512249 131.647149,12.2532306 131.647149,12.5685962 C131.647149,12.8427415 131.733905,13.0561159 131.909375,13.2221004 C132.087736,13.3908208 132.310413,13.4746241 132.588289,13.4746241 C133.048601,13.4746241 133.410184,13.3243889 133.68723,13.0216905 C133.96787,12.7150648 134.108776,12.3158308 134.108776,11.8136882 L134.108776,11.7152362 Z M144.80038,14.2915265 C144.576912,14.5336928 144.305505,14.7383946 143.987153,14.9051503 C143.466228,15.1780159 142.884282,15.314216 142.244088,15.314216 C141.459396,15.314216 140.7593,15.1291685 140.147822,14.7585756 C139.535782,14.3876426 139.056622,13.8590209 138.71233,13.1765837 C138.369889,12.497817 138.199324,11.7150476 138.199324,10.8305522 C138.199324,9.9460569 138.369889,9.16328752 138.71233,8.48452076 C139.05642,7.80248448 139.535148,7.27125028 140.146567,6.89451787 C140.758299,6.51759219 141.458872,6.32933249 142.244088,6.32933249 C142.872319,6.32933249 143.445196,6.46248773 143.960019,6.72920319 C144.299931,6.90530218 144.588771,7.12680528 144.825428,7.39306492 C144.886842,7.13492364 145.014639,6.91590607 145.208729,6.74075184 C145.487719,6.4889805 145.854595,6.36444448 146.299524,6.36444448 C146.746419,6.36444448 147.114996,6.49632077 147.394168,6.76187485 C147.675253,7.0292481 147.816224,7.38339359 147.816224,7.81092041 L147.816224,14.4295321 C147.816224,15.8760632 147.39134,16.9844566 146.537328,17.7394526 C145.688958,18.489461 144.460179,18.8605278 142.858548,18.8605278 C141.515935,18.8605278 140.406211,18.6192836 139.531116,18.1331193 C139.294519,18.0016765 139.10732,17.8378779 138.972034,17.6417125 C138.831832,17.4384195 138.761116,17.2085945 138.761116,16.9575959 C138.761116,16.623994 138.843659,16.3419718 139.011788,16.1178 C139.190008,15.8801739 139.436548,15.756904 139.73358,15.756904 C139.883775,15.756904 140.054606,15.7864708 140.247506,15.8443407 C140.427463,15.8983279 140.613117,15.9612107 140.804497,16.0329781 C141.17276,16.1710769 141.511418,16.2801363 141.820268,16.3602086 C142.119426,16.4377679 142.442005,16.4766999 142.788324,16.4766999 C143.490907,16.4766999 143.998616,16.3217151 144.319512,16.0215217 C144.637643,15.7239159 144.80038,15.2619525 144.80038,14.622648 L144.80038,14.2915265 Z M143.016552,12.8952761 C143.581373,12.8952761 144.008488,12.7192531 144.313857,12.3673015 C144.624603,12.009154 144.782824,11.4996293 144.782824,10.8305522 C144.782824,10.1610851 144.624394,9.6482035 144.312915,9.2839311 C144.007457,8.92670035 143.580781,8.74827237 143.016552,8.74827237 C142.45187,8.74827237 142.021742,8.92706054 141.710325,9.28519008 C141.393661,9.6493533 141.232724,10.1616707 141.232724,10.8305522 C141.232724,11.499043 141.393447,12.0080005 141.709372,12.3660478 C142.020711,12.7188991 142.451278,12.8952761 143.016552,12.8952761 Z M152.025572,11.7503482 C152.117335,12.2800523 152.297884,12.6628707 152.561482,12.9037442 C152.860375,13.1768712 153.298079,13.3166201 153.883715,13.3166201 C154.204242,13.3166201 154.489052,13.2782802 154.738395,13.2023933 C155.00015,13.1227287 155.291851,13.0140558 155.613199,12.8763351 C155.781341,12.8042744 155.943786,12.7411015 156.100573,12.6868289 C156.272389,12.6273542 156.428432,12.5968241 156.569783,12.5968241 C156.865704,12.5968241 157.11392,12.7190228 157.297958,12.9545913 C157.473423,13.1791868 157.559803,13.4625128 157.559803,13.7975161 C157.559803,14.0374354 157.488738,14.261291 157.348886,14.4640766 C157.213599,14.6602421 157.026401,14.8240407 156.786253,14.9574096 C156.373633,15.1758554 155.896609,15.3539846 155.355271,15.4923266 C154.813134,15.6308726 154.310981,15.700448 153.848603,15.700448 C152.881436,15.700448 152.03347,15.5120111 151.30713,15.1335821 C150.576222,14.7527729 150.01206,14.2071083 149.618408,13.4997637 C149.226531,12.7956098 149.031376,11.9692491 149.031376,11.0236682 C149.031376,10.1140247 149.220332,9.30334279 149.599225,8.59444491 C149.979194,7.8835364 150.508165,7.32688583 151.183682,6.92771715 C151.858995,6.52866828 152.625671,6.32933249 153.479927,6.32933249 C154.298377,6.32933249 155.020806,6.51070845 155.643638,6.87454072 C156.267998,7.23926602 156.753889,7.75920009 157.098799,8.43054254 C157.441754,9.09808116 157.612471,9.8754526 157.612471,10.7603283 C157.612471,11.0639659 157.536029,11.3078521 157.37583,11.4833081 C157.21271,11.6619636 156.985984,11.7503482 156.710231,11.7503482 L152.025572,11.7503482 Z M152.021319,10.0336483 L154.965681,10.0336483 C154.91326,9.5605159 154.778635,9.20389862 154.566764,8.96047325 C154.331865,8.69058922 153.998299,8.55515638 153.550151,8.55515638 C153.100015,8.55515638 152.749197,8.69497508 152.484117,8.97534863 C152.249472,9.2235307 152.094086,9.5749171 152.021319,10.0336483 Z M161.738414,7.47849496 C161.92383,7.2361011 162.146454,7.03271274 162.405865,6.86924861 C162.860983,6.58246148 163.35806,6.41989554 163.893941,6.38250874 L164.139725,6.36495274 L164.140671,6.36488745 C164.541919,6.33813761 164.872516,6.43209676 165.120492,6.65173283 C165.372035,6.87452858 165.495115,7.201568 165.495115,7.61780443 C165.495115,8.05280256 165.384961,8.39014907 165.15564,8.61946973 C164.929229,8.84588098 164.554598,8.97733052 164.033428,9.0281758 L163.508536,9.08065679 C162.912937,9.14563127 162.495827,9.3345111 162.246051,9.6403592 C161.990137,9.9537235 161.861023,10.3595111 161.861023,10.8656642 L161.861023,14.2188601 C161.861023,14.6843948 161.712168,15.0513395 161.411956,15.3026795 C161.122943,15.5446445 160.764221,15.665336 160.344323,15.665336 C159.91305,15.665336 159.548489,15.5449308 159.259134,15.3026795 C158.958922,15.0513395 158.810067,14.6843948 158.810067,14.2188601 L158.810067,7.77580842 C158.810067,7.33196841 158.96359,6.97607528 159.269651,6.72566101 C159.563754,6.48503147 159.918816,6.36444448 160.326767,6.36444448 C160.724822,6.36444448 161.064442,6.48331173 161.336268,6.72115913 C161.559088,6.91612695 161.693176,7.17121858 161.738414,7.47849496 Z" id="VueFileManager" fill="#1B2539"></path>
            <g id="Group">
                <g id="folder-solid">
                    <path d="M17.9981623,2.48035766 L10.5506469,2.48035766 L8.06814174,0 L1.86187886,0 C0.833578683,0 0,0.832857594 0,1.86026824 L0,13.0218777 C0,14.0492883 0.833578683,14.8821459 1.86187886,14.8821459 L17.9981623,14.8821459 C19.0264625,14.8821459 19.8600412,14.0492883 19.8600412,13.0218777 L19.8600412,4.3406259 C19.8600412,3.31321525 19.0264625,2.48035766 17.9981623,2.48035766 Z" id="Path-Copy" fill="#1B2539"></path>
                    <path d="M20.9461372,6.04587178 L13.4986218,6.04587178 L11.0161166,3.56551413 L4.80985373,3.56551413 C3.78155355,3.56551413 2.94797487,4.39837172 2.94797487,5.42578237 L2.94797487,16.5873918 C2.94797487,17.6148025 3.78155355,18.4476601 4.80985373,18.4476601 L20.9461372,18.4476601 C21.9744374,18.4476601 22.8080161,17.6148025 22.8080161,16.5873918 L22.8080161,7.90614003 C22.8080161,6.87872938 21.9744374,6.04587178 20.9461372,6.04587178 Z" id="Path" fill="#41B883"></path>
                </g>
                <g id=".Vue" transform="translate(5.031180, 13.081068)" fill="#1B2539" font-family="Nunito-Bold, Nunito" font-size="3.01870801" font-weight="bold">
                    <text>
                        <tspan x="-8.8817842e-16" y="3">.Vue</tspan>
                    </text>
                </g>
            </g>
        </g>
    </g>
</svg>