<?xml version="1.0" encoding="UTF-8"?>
<svg width="96px" height="40px" viewBox="0 0 96 40" version="1.1" xmlns="http://www.w3.org/2000/svg" xmlns:xlink="http://www.w3.org/1999/xlink">
    <!-- Generator: Sketch 55.2 (78181) - https://sketchapp.com -->
    <title>stripe-service</title>
    <desc>Created with Sketch.</desc>
    <g id="Setup-Wizard" stroke="none" stroke-width="1" fill="none" fill-rule="evenodd">
        <g id="3.-Payment-Select" transform="translate(-504.000000, -360.000000)" fill="#FFFFFF" fill-rule="nonzero">
            <g id="Payment-option" transform="translate(476.000000, 333.000000)">
                <path d="M34.746625,42.6742143 C34.746625,41.6329466 35.5999375,41.2322857 37.0135,41.2322857 C39.04,41.2322857 41.5999375,41.8466073 43.626625,42.9413841 L43.626625,36.6661785 C41.413375,35.7850625 39.22675,35.4379107 37.0135,35.4379107 C31.6,35.4379107 28,38.2684465 28,42.9948932 C28,50.3645 38.13325,49.1897413 38.13325,52.3674289 C38.13325,53.595509 37.06675,53.9961699 35.5733125,53.9961699 C33.3600625,53.9961699 30.5333125,53.0882055 28.29325,51.8599377 L28.29325,58.2151252 C30.7733125,59.2832413 33.28,59.7370358 35.5733125,59.7370358 C41.1199375,59.7370358 44.9333125,56.9868574 44.9333125,52.2070895 C44.9066875,44.2498216 34.746625,45.6649018 34.746625,42.6742143 Z M52.77325,30.0975179 L46.266625,31.4859374 L46.24,52.8745447 C46.24,56.8267057 49.2000625,59.7370358 53.14675,59.7370358 C55.333375,59.7370358 56.9333125,59.3365627 57.81325,58.8559198 L57.81325,53.4353573 C56.960125,53.7825091 52.746625,55.0107769 52.746625,51.0588036 L52.746625,41.5794375 L57.81325,41.5794375 L57.81325,35.8918929 L52.746625,35.8918929 L52.77325,30.0975179 Z M66.10675,37.8677857 L65.68,35.8918929 L59.92,35.8918929 L59.92,59.2563929 L66.58675,59.2563929 L66.58675,43.422027 C68.159875,41.3659645 70.8266875,41.739777 71.653375,42.0334197 L71.653375,35.8918929 C70.8000625,35.5714017 67.6800625,34.9839285 66.10675,37.8677857 Z M73.2799375,35.8918929 L79.9733125,35.8918929 L79.9733125,59.2563929 L73.2799375,59.2563929 L73.2799375,35.8918929 L73.2799375,35.8918929 Z M73.2799375,33.8624911 L79.9733125,32.4205625 L79.9733125,27 L73.2799375,28.4152679 L73.2799375,33.8623033 L73.2799375,33.8624911 Z M93.8933125,35.4379107 C91.2799375,35.4379107 89.5999375,36.6661785 88.66675,37.5208216 L88.319875,35.8652322 L82.453375,35.8652322 L82.453375,67 L89.1199375,65.5849198 L89.14675,58.0281251 C90.10675,58.7224287 91.5199375,59.7103751 93.8666875,59.7103751 C98.6400625,59.7103751 102.986687,55.8652322 102.986687,47.4006609 C102.960062,39.6568661 98.56,35.4379107 93.8933125,35.4379107 L93.8933125,35.4379107 Z M92.293375,53.8358304 C90.7200625,53.8358304 89.7865,53.2752056 89.14675,52.580902 L89.1199375,42.6742143 C89.8133125,41.8999287 90.7733125,41.3659645 92.293375,41.3659645 C94.72,41.3659645 96.4,44.0894822 96.4,47.5874732 C96.4,51.165634 94.746625,53.8358304 92.293375,53.8358304 L92.293375,53.8358304 Z M124,47.667643 C124,40.8318125 120.69325,35.4379107 114.373375,35.4379107 C108.0265,35.4379107 104.1865,40.8320003 104.1865,47.6143217 C104.1865,55.6515715 108.720063,59.7103751 115.2265,59.7103751 C118.399938,59.7103751 120.799938,58.9894108 122.61325,57.9748038 L122.61325,52.6342233 C120.800125,53.5421877 118.72,54.1030003 116.08,54.1030003 C113.49325,54.1030003 111.199938,53.1950359 110.906688,50.0441966 L123.94675,50.0441966 C123.94675,49.696857 124,48.3084375 124,47.667643 Z M110.826625,45.1309376 C110.826625,42.1135894 112.66675,40.8584732 114.34675,40.8584732 C115.973313,40.8584732 117.70675,42.1135894 117.70675,45.1309376 L110.826625,45.1309376 Z" id="stripe-service"></path>
            </g>
        </g>
    </g>
</svg>