<?xml version="1.0" encoding="UTF-8"?>
<svg width="97px" height="19px" viewBox="0 0 97 19" version="1.1" xmlns="http://www.w3.org/2000/svg" xmlns:xlink="http://www.w3.org/1999/xlink">
    <title>Facebook-Logo.wine</title>
    <g id="V2" stroke="none" stroke-width="1" fill="none" fill-rule="evenodd">
        <g id="Facebook-Logo.wine" fill="#1877F2" fill-rule="nonzero">
            <path d="M6.14495,18.7071637 L2.489893,18.7071637 L2.489893,9.48581467 L0,9.48581467 L0,6.48353096 L2.489796,6.48353096 L2.489796,4.34719058 C2.489796,1.81562427 3.591037,0 7.2362,0 C8.007156,0 9.217522,0.157265752 9.217522,0.157265752 L9.217522,2.94505154 L7.94624,2.94505154 C6.650902,2.94505154 6.145144,3.34381152 6.145144,4.44624248 L6.145144,6.48353096 L9.169022,6.48353096 L8.89975,9.48581467 L6.145047,9.48581467 L6.14495,18.7071637 Z M14.53157,6.24360743 C14.478317,6.24360743 14.423512,6.2455708 14.369289,6.24694515 C10.980109,6.24694515 9.429467,8.82700664 9.429467,12.4894727 C9.429467,17.1031905 11.440859,18.9497378 14.39577,18.9497378 C16.086383,18.9497378 17.19713,18.2295745 17.87225,16.8856493 L17.87225,18.7084399 L21.34873,18.7084399 L21.34873,6.48480715 L17.87225,6.48480715 L17.87225,8.36463355 C17.320999,7.15519905 16.179212,6.25794001 14.53157,6.24360743 Z M15.415531,9.13201581 C16.839006,9.13201581 17.693382,10.1368674 17.693382,11.8460771 L17.69668,13.5918055 C17.69668,14.7438115 16.991005,16.0915653 15.415531,16.0915653 C12.993441,16.0915653 13.05814,13.4447493 13.05814,12.5631972 C13.05814,9.5978248 14.348628,9.13201581 15.415531,9.13201581 Z M22.7526741,12.5972616 C22.7526741,11.1118758 22.68248,6.25155907 28.939368,6.25155907 C31.450989,6.25155907 32.499753,7.05977938 32.499753,7.05977938 L31.656823,9.70571185 C31.656823,9.70571185 30.609417,9.12200264 29.244627,9.12200264 C27.49659,9.12200264 26.381187,10.1475677 26.381187,11.9520008 L26.383127,13.2458601 C26.383127,14.9797101 27.459342,16.1371154 29.248216,16.1371154 C30.491562,16.1371154 31.63752,15.5479088 31.63752,15.5479088 L32.478316,18.1385724 C32.478316,18.1385724 31.519374,18.9518975 28.956925,18.9518975 C22.999379,18.9518975 22.752805,14.5912578 22.752805,12.5972616 L22.7526741,12.5972616 Z M52.883624,6.24694515 C56.272901,6.24694515 57.847987,8.82700664 57.847987,12.4894727 C57.847987,17.1031905 55.836498,18.9497378 52.881587,18.9497378 C51.190974,18.9497378 49.941226,18.2296727 49.266106,16.8856493 L49.266106,18.7084399 L45.833373,18.7070655 L45.833373,0.371665504 L49.478051,0.0499677078 L49.478051,8.19902348 C50.004082,6.77332403 51.732816,6.24694515 52.883721,6.24694515 L52.883624,6.24694515 Z M51.861826,9.13201581 C50.438351,9.13201581 49.478051,10.1368674 49.478051,11.8460771 L49.4746509,13.5918055 C49.472522,14.7438115 50.139688,16.0915653 51.861826,16.0915653 C54.283916,16.0915653 54.219217,13.4447493 54.219217,12.5631972 C54.219217,9.5978248 52.928826,9.13201581 51.861826,9.13201581 Z M38.823571,6.25695833 C34.979461,6.25695833 32.950027,8.37818078 32.950027,12.1476504 L32.950027,12.8479837 C32.950027,17.7404015 35.799984,19 39.1977,19 C42.500259,19 43.995126,18.0651425 43.995126,18.0651425 L43.313119,15.5755922 C43.313119,15.5755922 41.554703,16.332765 39.634685,16.332765 C37.644245,16.332765 36.78822,15.8193443 36.568806,13.8834638 L44.286514,13.8834638 L44.286514,11.886228 C44.286514,7.79731845 42.008857,6.25695833 38.823474,6.25695833 L38.823571,6.25695833 Z M38.916206,8.74994446 C40.246852,8.74994446 41.109085,9.57573691 41.061749,11.4909039 L36.575499,11.4909039 C36.653293,9.47521248 37.583135,8.75004263 38.916206,8.75004263 L38.916206,8.74994446 Z M65.115324,6.2402697 C61.167715,6.2402697 59.08949,8.49166344 59.08949,12.5262859 C59.08949,18.0620011 62.671894,18.9530755 65.12192,18.9530755 C68.708592,18.9530755 71.094792,16.9988375 71.094792,12.5765481 C71.094792,7.97372704 68.411772,6.2402697 65.115324,6.2402697 Z M65.06566,9.14202899 C66.801475,9.14202899 67.489302,10.4567982 67.489302,11.9533752 L67.489302,13.2400682 C67.489302,15.0530419 66.526868,16.1016766 65.059064,16.1016766 C63.68632,16.1016766 62.721558,15.1207781 62.721558,13.2400682 L62.721558,11.9533752 C62.721558,9.94759875 63.869553,9.14202899 65.06566,9.14202899 L65.06566,9.14202899 Z M78.35563,6.2402697 C74.408021,6.2402697 72.329796,8.49166344 72.329796,12.5262859 C72.329796,18.0620011 75.9122,18.9530755 78.362226,18.9530755 C81.948801,18.9530755 84.335098,16.9988375 84.335098,12.5765481 C84.335098,7.97372704 81.651981,6.2402697 78.35563,6.2402697 Z M78.305966,9.14202899 C80.041781,9.14202899 80.729511,10.4567982 80.729511,11.9533752 L80.729511,13.2400682 C80.729511,15.0530419 79.767077,16.1016766 78.29937,16.1016766 C76.926626,16.1016766 75.961864,15.1207781 75.961864,13.2400682 L75.961864,11.9533752 C75.961864,9.94759875 77.109859,9.14202899 78.305966,9.14202899 L78.305966,9.14202899 Z M85.712401,18.7071637 L85.712401,0.371665504 L89.367652,0.0500658762 L89.367652,12.3396678 L92.994094,6.48362913 L96.854306,6.48362913 L93.071306,12.5487664 L97,18.7071637 L93.128827,18.7071637 L89.367652,12.7273347 L89.367652,18.7071637 L85.712401,18.7071637 Z" id="Shape"></path>
        </g>
    </g>
</svg>