<?xml version="1.0" encoding="UTF-8"?>
<svg width="68px" height="19px" viewBox="0 0 68 19" version="1.1" xmlns="http://www.w3.org/2000/svg" xmlns:xlink="http://www.w3.org/1999/xlink">
    <title>github</title>
    <g id="V2" stroke="none" stroke-width="1" fill="none" fill-rule="evenodd">
        <g id="github" fill="#11110F">
            <path d="M13.0970948,8.13224031 L7.3829154,8.13224031 C7.23546854,8.13224031 7.11596295,8.2557132 7.11596295,8.40825001 L7.11596295,11.2947457 C7.11596295,11.4468924 7.23546854,11.5709505 7.3829154,11.5709505 L9.61198721,11.5709505 L9.61198721,15.1571258 C9.61198721,15.1571258 9.11149857,15.33346 7.72765031,15.33346 C6.09516247,15.33346 3.81455034,14.7172659 3.81455034,9.53569595 C3.81455034,4.35315073 6.18936988,3.67122149 8.41881927,3.67122149 C10.3488439,3.67122149 11.1800968,4.02213416 11.7092819,4.19144611 C11.875608,4.24391721 12.029285,4.07304478 12.029285,3.92050798 L12.6666482,1.13173726 C12.6666482,1.06034536 12.6432379,0.974323964 12.5647003,0.916196128 C12.3498545,0.757807527 11.0390689,0 7.72765031,0 C3.91309997,0 0,1.67673449 0,9.73777796 C0,17.7988214 4.48004353,19 8.25532506,19 C11.3811607,19 13.2773916,17.6199515 13.2773916,17.6199515 C13.3555516,17.5752828 13.3640473,17.4625382 13.3640473,17.4108474 L13.3640473,8.40825001 C13.3640473,8.2557132 13.2445417,8.13224031 13.0970948,8.13224031" id="Fill-11"></path>
            <path d="M42.5456878,0.96574133 C42.5456878,0.812229226 42.4278813,0.68836622 42.2802457,0.68836622 L39.0628457,0.68836622 C38.9159652,0.68836622 38.7964596,0.812229226 38.7964596,0.96574133 C38.7964596,0.96652157 38.7974035,7.39003757 38.7974035,7.39003757 L33.7821336,7.39003757 L33.7821336,0.96574133 C33.7821336,0.812229226 33.6639495,0.68836622 33.5166915,0.68836622 L30.2994803,0.68836622 C30.1531662,0.68836622 30.0336606,0.812229226 30.0336606,0.96574133 L30.0336606,18.3607889 C30.0336606,18.514301 30.1531662,18.6391393 30.2994803,18.6391393 L33.5166915,18.6391393 C33.6639495,18.6391393 33.7821336,18.514301 33.7821336,18.3607889 L33.7821336,10.9204258 L38.7974035,10.9204258 C38.7974035,10.9204258 38.7885303,18.3602037 38.7885303,18.3607889 C38.7885303,18.514301 38.9078471,18.6391393 39.0551052,18.6391393 L42.2800569,18.6391393 C42.4275037,18.6391393 42.5453102,18.514301 42.5456878,18.3607889 L42.5456878,0.96574133" id="Fill-13"></path>
            <path d="M19.1684694,3.24852678 C19.1684694,2.05144447 18.2397997,1.08414266 17.0938298,1.08414266 C15.9489927,1.08414266 15.019379,2.05144447 15.019379,3.24852678 C15.019379,4.44424368 15.9489927,5.41408127 17.0938298,5.41408127 C18.2397997,5.41408127 19.1684694,4.44424368 19.1684694,3.24852678" id="Fill-14"></path>
            <path d="M18.9385203,14.691518 C18.9385203,14.2456112 18.9385203,6.66187915 18.9385203,6.66187915 C18.9385203,6.50934234 18.8193923,6.38469909 18.672323,6.38469909 L15.464929,6.38469909 C15.3178598,6.38469909 15.1862715,6.54152722 15.1862715,6.69406402 C15.1862715,6.69406402 15.1862715,16.3561588 15.1862715,18.1979139 C15.1862715,18.5359526 15.3901672,18.6366035 15.6539102,18.6366035 C15.6539102,18.6366035 17.0230327,18.6366035 18.5435666,18.6366035 C18.8607378,18.6366035 18.9385203,18.4756791 18.9385203,18.1924522 C18.9385203,17.575868 18.9385203,15.1602468 18.9385203,14.691518" id="Fill-15"></path>
            <path d="M54.7732048,6.41103217 L51.5805366,6.41103217 C51.4342225,6.41103217 51.3149057,6.53567542 51.3149057,6.68899246 L51.3149057,15.2183746 C51.3149057,15.2183746 50.5036648,15.8314478 49.3524088,15.8314478 C48.2013415,15.8314478 47.8958754,15.2917171 47.8958754,14.1272098 C47.8958754,12.961142 47.8958754,6.68899246 47.8958754,6.68899246 C47.8958754,6.53567542 47.7769362,6.41103217 47.6302445,6.41103217 L44.3898119,6.41103217 C44.2436866,6.41103217 44.1238034,6.53567542 44.1238034,6.68899246 C44.1238034,6.68899246 44.1238034,11.2311562 44.1238034,14.6903476 C44.1238034,18.1497341 45.9898274,18.9960988 48.5568376,18.9960988 C50.6630056,18.9960988 52.3610044,17.7939449 52.3610044,17.7939449 C52.3610044,17.7939449 52.4418075,18.4274993 52.4784332,18.5025974 C52.5148702,18.5775004 52.6102103,18.6531836 52.713291,18.6531836 L54.7747151,18.6436256 C54.9208405,18.6436256 55.0407236,18.5187873 55.0407236,18.3660555 L55.0395909,6.68899246 C55.0395909,6.53567542 54.9204629,6.41103217 54.7732048,6.41103217" id="Fill-16"></path>
            <path d="M62.2403216,15.8209145 C61.1328654,15.7861939 60.3816605,15.2669445 60.3816605,15.2669445 L60.3816605,9.75825924 C60.3816605,9.75825924 61.1226706,9.28894524 62.0318948,9.2050695 C63.1816405,9.09876188 64.2894743,9.45747695 64.2894743,12.2913065 C64.2894743,15.2794284 63.789552,15.8692894 62.2403216,15.8209145 Z M63.4995669,6.02013223 C61.6862159,6.02013223 60.4528352,6.85615876 60.4528352,6.85615876 L60.4528352,0.96574133 C60.4528352,0.812229226 60.333896,0.68836622 60.1873931,0.68836622 L56.9607423,0.68836622 C56.8140506,0.68836622 56.6949226,0.812229226 56.6949226,0.96574133 L56.6949226,18.3607889 C56.6949226,18.514301 56.8140506,18.6391393 56.9611199,18.6391393 C56.9614975,18.6391393 59.1990649,18.6391393 59.1998201,18.6391393 C59.3006352,18.6391393 59.3769074,18.5854978 59.4333563,18.491479 C59.48905,18.3980453 59.5692868,17.6893929 59.5692868,17.6893929 C59.5692868,17.6893929 60.8885681,18.9810792 63.3861027,18.9810792 C66.3184261,18.9810792 68,17.4443977 68,12.0827875 C68,6.72078722 65.3142394,6.02013223 63.4995669,6.02013223 L63.4995669,6.02013223 Z" id="Fill-17"></path>
            <path d="M28.1855718,6.38313862 L25.7720498,6.38313862 C25.7720498,6.38313862 25.7684628,3.089553 25.7684628,3.08896783 C25.7684628,2.96412952 25.7061613,2.90190543 25.5666437,2.90190543 L22.2778802,2.90190543 C22.149879,2.90190543 22.0813473,2.96003326 22.0813473,3.08701723 L22.0813473,6.49120177 C22.0813473,6.49120177 20.4331897,6.90238794 20.3216134,6.93554812 C20.2107923,6.96870829 20.1290452,7.07443073 20.1290452,7.20063446 L20.1290452,9.33985586 C20.1290452,9.49375808 20.2479844,9.61781615 20.3950536,9.61781615 L22.0813473,9.61781615 C22.0813473,9.61781615 22.0813473,11.8553477 22.0813473,14.7642753 C22.0813473,18.5868632 24.6764876,18.9623534 26.427537,18.9623534 C27.227828,18.9623534 28.1850054,18.696877 28.3430247,18.6366035 C28.4385536,18.6003224 28.4940586,18.4979159 28.4940586,18.3871219 L28.4968905,16.0339199 C28.4968905,15.8804078 28.3713435,15.7561547 28.2301268,15.7561547 C28.0892877,15.7561547 27.7296382,15.8152578 27.3592275,15.8152578 C26.1736113,15.8152578 25.7720498,15.245683 25.7720498,14.5085518 C25.7720498,13.7720058 25.771861,9.61781615 25.771861,9.61781615 L28.1855718,9.61781615 C28.3326411,9.61781615 28.4517691,9.49375808 28.4517691,9.33985586 L28.4517691,6.66031867 C28.4517691,6.50680656 28.3326411,6.38313862 28.1855718,6.38313862" id="Fill-18"></path>
        </g>
    </g>
</svg>