<?xml version="1.0" encoding="UTF-8"?>
<svg width="73px" height="24px" viewBox="0 0 73 24" version="1.1" xmlns="http://www.w3.org/2000/svg" xmlns:xlink="http://www.w3.org/1999/xlink">
    <title>google</title>
    <g id="V2" stroke="none" stroke-width="1" fill="none" fill-rule="evenodd">
        <g id="google" fill-rule="nonzero">
            <path d="M31.23969,12.6300135 C31.23969,16.0829202 28.5350838,18.6273096 25.2159175,18.6273096 C21.8967512,18.6273096 19.1921451,16.0829202 19.1921451,12.6300135 C19.1921451,9.15277152 21.8967512,6.63271744 25.2159175,6.63271744 C28.5350838,6.63271744 31.23969,9.15277152 31.23969,12.6300135 Z M28.6027667,12.6300135 C28.6027667,10.4722848 27.0352322,8.99594412 25.2159175,8.99594412 C23.3966029,8.99594412 21.8290684,10.4722848 21.8290684,12.6300135 C21.8290684,14.7661109 23.3966029,16.2640829 25.2159175,16.2640829 C27.0352322,16.2640829 28.6027667,14.7634069 28.6027667,12.6300135 Z" id="Shape" fill="#EA4335"></path>
            <path d="M44.2347945,12.6300135 C44.2347945,16.0829202 41.5301884,18.6273096 38.2110221,18.6273096 C34.8918558,18.6273096 32.1872497,16.0829202 32.1872497,12.6300135 C32.1872497,9.15547544 34.8918558,6.63271744 38.2110221,6.63271744 C41.5301884,6.63271744 44.2347945,9.15277152 44.2347945,12.6300135 Z M41.5978712,12.6300135 C41.5978712,10.4722848 40.0303367,8.99594412 38.2110221,8.99594412 C36.3917075,8.99594412 34.824173,10.4722848 34.824173,12.6300135 C34.824173,14.7661109 36.3917075,16.2640829 38.2110221,16.2640829 C40.0303367,16.2640829 41.5978712,14.7634069 41.5978712,12.6300135 Z" id="Shape" fill="#FBBC05"></path>
            <path d="M56.6884364,6.99504281 L56.6884364,17.762055 C56.6884364,22.1910771 54.0731716,24 50.9814197,24 C48.0710577,24 46.3194259,22.055881 45.6588414,20.4659757 L47.9546432,19.5114917 C48.3634476,20.487607 49.3651535,21.6394772 50.9787124,21.6394772 C52.9577585,21.6394772 54.1841715,20.420009 54.1841715,18.1243804 L54.1841715,17.2618297 L54.0921228,17.2618297 C53.5019285,17.9891843 52.3648568,18.6246057 50.9299807,18.6246057 C47.9275701,18.6246057 45.1769396,16.0126183 45.1769396,12.6516449 C45.1769396,9.26633619 47.9275701,6.63271744 50.9299807,6.63271744 C52.3621495,6.63271744 53.4992212,7.2681388 54.0921228,7.9738621 L54.1841715,7.9738621 L54.1841715,6.99774673 L56.6884364,6.99774673 L56.6884364,6.99504281 Z M54.3709761,12.6516449 C54.3709761,10.5398828 52.9604658,8.99594412 51.165517,8.99594412 C49.3462023,8.99594412 47.8219849,10.5398828 47.8219849,12.6516449 C47.8219849,14.7417756 49.3462023,16.2640829 51.165517,16.2640829 C52.9604658,16.2640829 54.3709761,14.7417756 54.3709761,12.6516449 Z" id="Shape" fill="#4285F4"></path>
            <polygon id="Path" fill="#34A853" points="60.8170895 0.684091933 60.8170895 18.2595764 58.2451417 18.2595764 58.2451417 0.684091933"></polygon>
            <path d="M70.8395639,14.6038756 L72.8862928,15.9666516 C72.2257084,16.942767 70.633808,18.6246057 67.8831776,18.6246057 C64.4719626,18.6246057 61.9243807,15.9909869 61.9243807,12.6273096 C61.9243807,9.06083822 64.4936211,6.63001352 67.5880804,6.63001352 C70.7041982,6.63001352 72.2284157,9.10680487 72.7265613,10.4452456 L73,11.1266336 L64.9728156,14.4470482 C65.5873758,15.6502929 66.5430574,16.2640829 67.8831776,16.2640829 C69.226005,16.2640829 70.1573209,15.6043263 70.8395639,14.6038756 Z M64.5396455,12.4461469 L69.9055407,10.2208202 C69.6104436,9.47183416 68.7224447,8.94997747 67.6774217,8.94997747 C66.3373016,8.94997747 64.4719626,10.1315908 64.5396455,12.4461469 L64.5396455,12.4461469 Z" id="Shape" fill="#EA4335"></path>
            <path d="M9.4566459,11.0698513 L9.4566459,8.52546192 L18.0415369,8.52546192 C18.1254636,8.96890491 18.1687806,9.49346553 18.1687806,10.0612889 C18.1687806,11.9702569 17.6462691,14.3307796 15.9623201,16.0126183 C14.3243955,17.7160883 12.2316422,18.6246057 9.45935321,18.6246057 C4.32087227,18.6246057 -7.12467374e-15,14.4443443 -7.12467374e-15,9.31230284 C-7.12467374e-15,4.18026138 4.32087227,0 9.45935321,0 C12.3020323,0 14.3271028,1.11401532 15.848613,2.56602073 L14.0509568,4.36142406 C12.9599095,3.33934205 11.4817164,2.54438936 9.4566459,2.54438936 C5.70430945,2.54438936 2.76958166,5.56466877 2.76958166,9.31230284 C2.76958166,13.0599369 5.70430945,16.0802163 9.4566459,16.0802163 C11.8905207,16.0802163 13.2766652,15.1041009 14.164664,14.217215 C14.8848094,13.4979721 15.3585892,12.4704822 15.5453939,11.0671474 L9.4566459,11.0698513 Z" id="Path" fill="#4285F4"></path>
        </g>
    </g>
</svg>