<svg xmlns="http://www.w3.org/2000/svg" width="1125" height="796" stroke="none" stroke-linecap="round" stroke-linejoin="round" fill="#fff" fill-rule="nonzero">
    <path d="M928.5644 277.5993l-.3823-11.9317V40.023l-83.9048 62.3835C775.6128 39.9152 671.146 0 554.1372 0 432.3647 0 324.1846 43.2117 255.7617 110.104l137.5269 103.3214c13.5219-18.5053 32.6645-34.3839 55.7534-46.4724 24.0117-13.9313 58.0298-25.3207 105.0908-25.3207 5.6865 0 10.0723.4901 13.2978 1.4245 58.3067 3.4208 108.8526 27.3463 138.6036 62.0699l-97.3916 72.4073 319.8691.0457" fill="#1c3aa9"/>
    <path d="M551.9531.0098l-16.0532.3169H232.4048l83.9048 62.3803C232.251 113.6979 178.563 191.3915 178.563 278.3867c0 90.501 58.1221 170.9586 148.0957 221.8025l138.9727-102.2465c-24.8766-10.0116-46.2762-24.1918-62.5035-41.4181-18.7338-17.8518-34.0576-43.1431-34.0576-78.1313 0-4.2278.6592-7.4884 1.916-9.8865 4.6011-43.349 36.7823-80.9281 83.4873-103.0469l97.3477 72.3746.0615-237.8116" fill="#4285f4"/>
    <path d="M178.5762 278.3802l.3823 11.9317V515.95l83.9048-62.3803c68.669 62.4914 173.1358 102.4066 290.1445 102.4066 121.7286 0 229.9483-43.2118 298.336-110.104L713.8169 342.5509c-13.4661 18.4949-32.5393 34.4047-55.7095 46.4691-24.0117 13.9313-58.0297 25.3207-105.0908 25.3207-5.6865 0-10.0722-.4901-13.2978-1.4245-58.3067-3.4207-108.8526-27.3463-138.6035-62.0699l97.3476-72.3746c-123.3105.3267-262.5996.5717-319.8691-.0458" fill="#ababab"/>
    <path d="M241.7563 663.7867c-9.1186 0-17.2968 1.2873-24.5302 3.8553-7.1789 2.4811-13.4798 6.174-18.3999 10.785-4.9527 4.6721-8.7671 10.3471-11.439 17.0089-2.6367 6.6063-3.8935 13.9999-3.8935 22.2169v23.589c0 8.2431 1.2963 15.6661 3.8935 22.2724 2.6719 6.6062 6.4468 12.2454 11.3203 16.924s10.7666 8.2725 17.6924 10.7817 14.7041 3.7703 23.3525 3.7703c8.8858 0 16.6685-.9638 23.3526-2.8947 6.7676-1.9603 12.4233-4.7047 16.9848-8.3313 4.5616-3.6821 8.0596-8.1255 10.5469-13.3301 2.5181-5.2014 4.0078-11.1084 4.4824-17.7081H273.252c-.5494 5.087-1.4942 9.4748-2.8301 13.0687s-3.2959 6.518-5.8975 8.8214c-2.5181 2.2805-5.8183 3.9761-9.9053 5.087-4.0078 1.052-8.9648 1.578-14.8535 1.578-6.2842 0-11.6367-1.0226-16.04-3.0711-4.4033-2.1041-7.9805-4.9661-10.7315-8.5927-2.6718-3.5939-4.6406-7.8609-5.8974-12.742-1.1778-4.8518-1.771-10.0825-1.771-15.6956v-23.7622c0-6.0214.7031-11.4874 2.1225-16.4012 1.4942-4.9106 3.7354-9.0893 6.7237-12.5395s6.7676-6.1096 11.3203-7.9784c4.5615-1.9603 9.9844-2.8947 16.2773-2.8947 5.2735 0 9.7867.588 13.5616 1.7544 3.7793 1.1109 6.9169 2.8653 9.435 5.2275 2.5181 2.3393 4.3945 5.319 5.7788 8.9423s2.1973 7.949 2.7114 12.9772h21.8189c-.4395-6.861-1.8457-13.0033-4.3638-18.2962s-6.0205-9.7917-10.5468-13.415c-4.544-3.6439-10.1514-6.4638-16.3917-8.2431-6.372-1.8721-13.7197-2.8098-22.0605-2.8098zm532.6172 0c-9.1186 0-17.2968 1.2873-24.5302 3.8553-7.1789 2.4811-13.4798 6.174-18.3999 10.785-4.9527 4.6721-8.7671 10.3471-11.439 17.0089-2.6367 6.6063-3.8936 13.9999-3.8936 22.2169v23.589c0 8.2431 1.2964 15.6661 3.8936 22.2724 2.6719 6.6062 6.4468 12.2454 11.3203 16.924s10.7666 8.2725 17.6924 10.7817 14.7041 3.7703 23.3525 3.7703c8.8858 0 16.6685-.9638 23.3526-2.8947 6.7675-1.9603 12.4233-4.7047 16.9848-8.3313 4.5616-3.6821 8.0596-8.1255 10.5469-13.3301 2.5181-5.2014 4.0078-11.1084 4.4824-17.7081h-21.8188c-.5493 5.087-1.4942 9.4748-2.8301 13.0687s-3.2959 6.518-5.8975 8.8214c-2.518 2.2805-5.8183 3.9761-9.9052 5.087-4.0078 1.052-8.9649 1.578-14.8535 1.578-6.2842 0-11.6368-1.0226-16.0401-3.0711-4.4033-2.1041-7.9805-4.9661-10.7314-8.5927-2.6719-3.5939-4.6407-7.8609-5.8975-12.742-1.1777-4.8518-1.771-10.0825-1.771-15.6956v-23.7622c0-6.0214.7031-11.4874 2.1226-16.4012 1.4941-4.9106 3.7353-9.0893 6.7236-12.5395s6.7676-6.1096 11.3203-7.9784c4.5615-1.9603 9.9844-2.8947 16.2774-2.8947 5.2734 0 9.7866.588 13.5615 1.7544 3.7793 1.1109 6.917 2.8653 9.435 5.2275 2.5181 2.3393 4.3946 5.319 5.7788 8.9423s2.1973 7.949 2.7115 12.9772h21.8188c-.4394-6.861-1.8457-13.0033-4.3637-18.2962s-6.0206-9.7917-10.5469-13.415c-4.5435-3.6439-10.1514-6.4638-16.3916-8.2431-6.3721-1.8721-13.7197-2.8098-22.0606-2.8098zm-408.2519 1.7545l-55.3623 127.6651h22.1704l13.3286-33.3187h58.0254l13.5615 33.3187h22.1704L384.583 665.5412zm97.2949 0v127.6651h21.5332v-49.978h33.1348c8.2617 0 15.5698-.8495 21.9375-2.5419 6.372-1.7545 11.7158-4.2669 16.04-7.5407 4.4033-3.2737 7.7036-7.3054 9.9053-12.1016 2.2851-4.8518 3.4189-10.3472 3.4189-16.4829 0-5.6719-1.1425-10.8732-3.4189-15.6074-2.1973-4.7929-5.4624-8.9128-9.7866-12.363-4.3243-3.5057-9.668-6.224-16.1587-8.1549-6.3721-1.9603-13.6802-2.8947-21.9375-2.8947zm122.5371 0v13.8529h45.0527v113.8122h21.5333V679.3941h45.1757v-13.8529zm270.9053 0v127.6651h21.5332v-59.0118h69.0688v59.0118h21.7002V665.5412h-21.7002v54.8887h-69.1128v-54.8887zm194.2383 0l-55.314 127.6651h22.1704l13.3286-33.3187h58.0254l13.5615 33.3187H1125l-55.4326-127.6651zm-566.1035 13.8529h33.1347c5.2735 0 9.7471.7024 13.4473 2.104 3.6167 1.3076 6.768 3.2303 9.1977 5.613 2.439 2.3394 4.2056 5.0576 5.3086 8.1549 1.1778 3.0385 1.771 6.1979 1.771 9.4749 0 3.5939-.5888 6.9591-1.771 9.9975-1.0287 2.8565-2.8358 5.5252-5.3086 7.8413-2.3598 2.1628-5.4272 3.8552-9.1977 5.087-3.6914 1.2284-8.1738 1.8427-13.4473 1.8427h-33.1347zm-109.6788 8.5927l23.4668 58.0447h-46.8676zm684.9756 0l23.4668 58.0447h-46.8677zM44.3848 696.5794c-5.4273 0-10.1075 1.0227-14.0362 3.0712-3.854 2.0452-7.0312 4.8224-9.6679 8.3313l-.3516-9.6447H0v94.8724h20.874v-67.8692c1.9644-4.0349 4.7549-7.1878 8.3716-9.5565 3.6914-2.3393 8.3716-3.5057 14.0361-3.5057l4.834.1765c1.5447.0715 3.0819.2179 4.6011.4378l-.1187-15.0813c-.3164-.1176-.8261-.2353-1.538-.3496-.6904-.1885-1.4001-.3349-2.1226-.4378-.791-.1176-1.6128-.2059-2.4785-.2614-.791-.1176-1.4942-.1764-2.1226-.1764zm70.1718 0c-6.0038-.0062-11.9592.7963-17.5781 2.3687-5.7129 1.5781-10.6919 4.182-15.0952 7.8413-4.3242 3.5939-7.8223 8.2431-10.5469 14.0293-2.6718 5.7273-4.0078 12.742-4.0078 21.1321v10.6967c0 7.2467 1.1426 13.5327 3.419 18.8517s5.5371 9.7362 9.7866 13.2419c4.3242 3.4501 9.5537 6.0214 15.6885 7.7171S109.2305 795 116.8638 795c5.5019 0 10.415-.4084 14.7436-1.2284 4.4033-.8168 8.2969-1.8721 11.6763-3.1561 3.3838-1.3461 6.2842-2.8654 8.7275-4.561s4.5264-3.4502 6.2491-5.2275l-10.8545-9.8212c-1.7315 1.5781-3.5772 3.0385-5.5371 4.3846-1.9644 1.2873-4.1309 2.4275-6.4864 3.4207-2.4706.9505-5.0805 1.6849-7.7783 2.189-2.8257.5555-6.0205.7907-9.5537.7907-9.668 0-17.1387-2.3099-22.2891-6.9264-5.1108-4.6165-7.664-12.0134-7.664-22.2169v-2.189h71.1914v-9.0305c0-7.2466-.8262-13.6502-2.4785-19.2045s-4.2847-10.2262-7.9014-14.0292c-3.5187-3.7403-8.3259-6.7082-13.9175-8.5927-5.6601-1.9865-12.5024-2.9797-20.5225-2.9797zm0 13.3301c4.5616 0 8.3365.6143 11.3204 1.8427 2.9562 1.2046 5.4048 2.9947 7.0751 5.172 1.8106 2.2217 3.107 4.8812 3.8936 7.9784.8657 3.0385 1.415 6.4037 1.6523 10.0826v2.104H88.2158c.3164-5.3189 1.1778-9.7362 2.6367-13.2419s3.2652-6.2828 5.5371-8.3313c2.3599-2.104 5.0713-3.5939 8.1387-4.3845s6.4072-1.2285 10.0196-1.2285z" fill="#a6a6a6"/>
</svg>