<?xml version="1.0" encoding="UTF-8"?>
<svg width="124px" height="31px" viewBox="0 0 124 31" version="1.1" xmlns="http://www.w3.org/2000/svg" xmlns:xlink="http://www.w3.org/1999/xlink">
    <title>paypal</title>
    <g id="V2" stroke="none" stroke-width="1" fill="none" fill-rule="evenodd">
        <g id="paypal" transform="translate(0.000000, 0.000000)" fill-rule="nonzero">
            <path d="M46.2109888,6.749 L39.3719888,6.749 C38.9039888,6.749 38.5059888,7.089 38.4329888,7.551 L35.6669888,25.088 C35.6119888,25.434 35.8799888,25.746 36.2309888,25.746 L39.4959888,25.746 C39.9639888,25.746 40.3619888,25.406 40.4349888,24.943 L41.1809888,20.213 C41.2529888,19.75 41.6519888,19.41 42.1189888,19.41 L44.2839888,19.41 C48.7889888,19.41 51.3889888,17.23 52.0679888,12.91 C52.3739888,11.02 52.0809888,9.535 51.1959888,8.495 C50.2239888,7.353 48.4999888,6.749 46.2109888,6.749 Z M46.9999888,13.154 C46.6259888,15.608 44.7509888,15.608 42.9379888,15.608 L41.9059888,15.608 L42.6299888,11.025 C42.6729888,10.748 42.9129888,10.544 43.1929888,10.544 L43.6659888,10.544 C44.9009888,10.544 46.0659888,10.544 46.6679888,11.248 C47.0269888,11.668 47.1369888,12.292 46.9999888,13.154 Z" id="Shape" fill="#253B80"></path>
            <path d="M66.6539888,13.075 L63.3789888,13.075 C63.0999888,13.075 62.8589888,13.279 62.8159888,13.556 L62.6709888,14.472 L62.4419888,14.14 C61.7329888,13.111 60.1519888,12.767 58.5739888,12.767 C54.9549888,12.767 51.8639888,15.508 51.2619888,19.353 C50.9489888,21.271 51.3939888,23.105 52.4819888,24.384 C53.4799888,25.56 54.9079888,26.05 56.6069888,26.05 C59.5229888,26.05 61.1399888,24.175 61.1399888,24.175 L60.9939888,25.085 C60.9389888,25.433 61.2069888,25.745 61.5559888,25.745 L64.5059888,25.745 C64.9749888,25.745 65.3709888,25.405 65.4449888,24.942 L67.2149888,13.733 C67.2709888,13.388 67.0039888,13.075 66.6539888,13.075 Z M62.0889888,19.449 C61.7729888,21.32 60.2879888,22.576 58.3939888,22.576 C57.4429888,22.576 56.6829888,22.271 56.1949888,21.693 C55.7109888,21.119 55.5269888,20.302 55.6809888,19.392 C55.9759888,17.537 57.4859888,16.24 59.3509888,16.24 C60.2809888,16.24 61.0369888,16.549 61.5349888,17.132 C62.0339888,17.721 62.2319888,18.543 62.0889888,19.449 Z" id="Shape" fill="#253B80"></path>
            <path d="M84.0959888,13.075 L80.8049888,13.075 C80.4909888,13.075 80.1959888,13.231 80.0179888,13.492 L75.4789888,20.178 L73.5549888,13.753 C73.4339888,13.351 73.0629888,13.075 72.6429888,13.075 L69.4089888,13.075 C69.0159888,13.075 68.7429888,13.459 68.8679888,13.829 L72.4929888,24.467 L69.0849888,29.278 C68.8169888,29.657 69.0869888,30.178 69.5499888,30.178 L72.8369888,30.178 C73.1489888,30.178 73.4409888,30.026 73.6179888,29.77 L84.5639888,13.97 C84.8259888,13.592 84.5569888,13.075 84.0959888,13.075 Z" id="Path" fill="#253B80"></path>
            <path d="M94.9919888,6.749 L88.1519888,6.749 C87.6849888,6.749 87.2869888,7.089 87.2139888,7.551 L84.4479888,25.088 C84.3929888,25.434 84.6609888,25.746 85.0099888,25.746 L88.5199888,25.746 C88.8459888,25.746 89.1249888,25.508 89.1759888,25.184 L89.9609888,20.213 C90.0329888,19.75 90.4319888,19.41 90.8989888,19.41 L93.0629888,19.41 C97.5689888,19.41 100.167989,17.23 100.847989,12.91 C101.154989,11.02 100.859989,9.535 99.9749888,8.495 C99.0039888,7.353 97.2809888,6.749 94.9919888,6.749 Z M95.7809888,13.154 C95.4079888,15.608 93.5329888,15.608 91.7189888,15.608 L90.6879888,15.608 L91.4129888,11.025 C91.4559888,10.748 91.6939888,10.544 91.9749888,10.544 L92.4479888,10.544 C93.6819888,10.544 94.8479888,10.544 95.4499888,11.248 C95.8089888,11.668 95.9179888,12.292 95.7809888,13.154 Z" id="Shape" fill="#179BD7"></path>
            <path d="M115.433989,13.075 L112.160989,13.075 C111.879989,13.075 111.640989,13.279 111.598989,13.556 L111.453989,14.472 L111.223989,14.14 C110.514989,13.111 108.934989,12.767 107.356989,12.767 C103.737989,12.767 100.647989,15.508 100.045989,19.353 C99.7339888,21.271 100.176989,23.105 101.264989,24.384 C102.264989,25.56 103.690989,26.05 105.389989,26.05 C108.305989,26.05 109.922989,24.175 109.922989,24.175 L109.776989,25.085 C109.721989,25.433 109.989989,25.745 110.340989,25.745 L113.289989,25.745 C113.756989,25.745 114.154989,25.405 114.227989,24.942 L115.998989,13.733 C116.052989,13.388 115.784989,13.075 115.433989,13.075 Z M110.868989,19.449 C110.554989,21.32 109.067989,22.576 107.173989,22.576 C106.224989,22.576 105.462989,22.271 104.974989,21.693 C104.490989,21.119 104.308989,20.302 104.460989,19.392 C104.757989,17.537 106.265989,16.24 108.130989,16.24 C109.060989,16.24 109.816989,16.549 110.314989,17.132 C110.815989,17.721 111.013989,18.543 110.868989,19.449 Z" id="Shape" fill="#179BD7"></path>
            <path d="M119.294989,7.23 L116.487989,25.088 C116.432989,25.434 116.700989,25.746 117.049989,25.746 L119.871989,25.746 C120.340989,25.746 120.738989,25.406 120.810989,24.943 L123.578989,7.407 C123.633989,7.061 123.365989,6.748 123.016989,6.748 L119.856989,6.748 C119.577989,6.749 119.337989,6.953 119.294989,7.23 Z" id="Path" fill="#179BD7"></path>
            <path d="M7.26598882,29.154 L7.78898882,25.832 L6.62398882,25.805 L1.06098882,25.805 L4.92698882,1.292 C4.93898882,1.218 4.97798882,1.149 5.03498882,1.1 C5.09198882,1.051 5.16498882,1.024 5.24098882,1.024 L14.6209888,1.024 C17.7349888,1.024 19.8839888,1.672 21.0059888,2.951 C21.5319888,3.551 21.8669888,4.178 22.0289888,4.868 C22.1989888,5.592 22.2019888,6.457 22.0359888,7.512 L22.0239888,7.589 L22.0239888,8.265 L22.5499888,8.563 C22.9929888,8.798 23.3449888,9.067 23.6149888,9.375 C24.0649888,9.888 24.3559888,10.54 24.4789888,11.313 C24.6059888,12.108 24.5639888,13.054 24.3559888,14.125 C24.1159888,15.357 23.7279888,16.43 23.2039888,17.308 C22.7219888,18.117 22.1079888,18.788 21.3789888,19.308 C20.6829888,19.802 19.8559888,20.177 18.9209888,20.417 C18.0149888,20.653 16.9819888,20.772 15.8489888,20.772 L15.1189888,20.772 C14.5969888,20.772 14.0899888,20.96 13.6919888,21.297 C13.2929888,21.641 13.0289888,22.111 12.9479888,22.625 L12.8929888,22.924 L11.9689888,28.779 L11.9269888,28.994 C11.9159888,29.062 11.8969888,29.096 11.8689888,29.119 C11.8439888,29.14 11.8079888,29.154 11.7729888,29.154 L7.26598882,29.154 Z" id="Path" fill="#253B80"></path>
            <path d="M23.0479888,7.667 L23.0479888,7.667 L23.0479888,7.667 C23.0199888,7.846 22.9879888,8.029 22.9519888,8.217 C21.7149888,14.568 17.4829888,16.762 12.0779888,16.762 L9.32598882,16.762 C8.66498882,16.762 8.10798882,17.242 8.00498882,17.894 L8.00498882,17.894 L8.00498882,17.894 L6.59598882,26.83 L6.19698882,29.363 C6.12998882,29.791 6.45998882,30.177 6.89198882,30.177 L11.7729888,30.177 C12.3509888,30.177 12.8419888,29.757 12.9329888,29.187 L12.9809888,28.939 L13.8999888,23.107 L13.9589888,22.787 C14.0489888,22.215 14.5409888,21.795 15.1189888,21.795 L15.8489888,21.795 C20.5779888,21.795 24.2799888,19.875 25.3619888,14.319 C25.8139888,11.998 25.5799888,10.06 24.3839888,8.697 C24.0219888,8.286 23.5729888,7.945 23.0479888,7.667 Z" id="Path" fill="#179BD7"></path>
            <path d="M21.7539888,7.151 C21.5649888,7.096 21.3699888,7.046 21.1699888,7.001 C20.9689888,6.957 20.7629888,6.918 20.5509888,6.884 C19.8089888,6.764 18.9959888,6.707 18.1249888,6.707 L10.7729888,6.707 C10.5919888,6.707 10.4199888,6.748 10.2659888,6.822 C9.92698882,6.985 9.67498882,7.306 9.61398882,7.699 L8.04998882,17.605 L8.00498882,17.894 C8.10798882,17.242 8.66498882,16.762 9.32598882,16.762 L12.0779888,16.762 C17.4829888,16.762 21.7149888,14.567 22.9519888,8.217 C22.9889888,8.029 23.0199888,7.846 23.0479888,7.667 C22.7349888,7.501 22.3959888,7.359 22.0309888,7.238 C21.9409888,7.208 21.8479888,7.179 21.7539888,7.151 Z" id="Path" fill="#222D65"></path>
            <path d="M9.61398882,7.699 C9.67498882,7.306 9.92698882,6.985 10.2659888,6.823 C10.4209888,6.749 10.5919888,6.708 10.7729888,6.708 L18.1249888,6.708 C18.9959888,6.708 19.8089888,6.765 20.5509888,6.885 C20.7629888,6.919 20.9689888,6.958 21.1699888,7.002 C21.3699888,7.047 21.5649888,7.097 21.7539888,7.152 C21.8479888,7.18 21.9409888,7.209 22.0319888,7.238 C22.3969888,7.359 22.7359888,7.502 23.0489888,7.667 C23.4169888,5.32 23.0459888,3.722 21.7769888,2.275 C20.3779888,0.682 17.8529888,0 14.6219888,0 L5.24198882,0 C4.58198882,0 4.01898882,0.48 3.91698882,1.133 L0.0099888238,25.898 C-0.0670111762,26.388 0.310988824,26.83 0.804988824,26.83 L6.59598882,26.83 L8.04998882,17.605 L9.61398882,7.699 Z" id="Path" fill="#253B80"></path>
        </g>
    </g>
</svg>