<?xml version="1.0" encoding="UTF-8"?>
<svg width="124px" height="22px" viewBox="0 0 124 22" version="1.1" xmlns="http://www.w3.org/2000/svg" xmlns:xlink="http://www.w3.org/1999/xlink">
    <title>paystack</title>
    <g id="V2" stroke="none" stroke-width="1" fill="none" fill-rule="evenodd">
        <g id="paystack" fill-rule="nonzero">
            <path d="M17.9029741,2 L1.04818349,2 C0.482164407,2 0,2.46 0,3.02 L0,4.84 C0,5.4 0.482164407,5.86 1.04818349,5.86 L17.9029741,5.86 C18.4899568,5.86 18.9511576,5.4 18.9721212,4.84 L18.9721212,3.04 C18.9721212,2.46 18.4899568,2 17.9029741,2 Z M17.9029741,12.1 L1.04818349,12.1 C0.775655785,12.1 0.503128077,12.2 0.314455048,12.4 C0.104818349,12.6 0,12.84 0,13.12 L0,14.94 C0,15.5 0.482164407,15.96 1.04818349,15.96 L17.9029741,15.96 C18.4899568,15.96 18.9511576,15.52 18.9721212,14.94 L18.9721212,13.12 C18.9511576,12.54 18.4899568,12.1 17.9029741,12.1 Z M10.5447259,17.14 L1.04818349,17.14 C0.775655785,17.14 0.503128077,17.24 0.314455048,17.44 C0.125782019,17.64 0,17.88 0,18.16 L0,19.98 C0,20.54 0.482164407,21 1.04818349,21 L10.5237623,21 C11.110745,21 11.5719458,20.54 11.5719458,20 L11.5719458,18.18 C11.5929094,17.58 11.1317087,17.12 10.5447259,17.14 L10.5447259,17.14 Z M18.9721212,7.04 L1.04818349,7.04 C0.775655785,7.04 0.503128077,7.14 0.314455048,7.34 C0.125782019,7.54 0,7.78 0,8.06 L0,9.88 C0,10.44 0.482164407,10.9 1.04818349,10.9 L18.9511576,10.9 C19.5381403,10.9 19.999341,10.44 19.999341,9.88 L19.999341,8.06 C20.0203047,7.5 19.5381403,7.06 18.9721212,7.04 L18.9721212,7.04 Z" id="Shape" fill="#00C3F7"></path>
            <path d="M37.744122,6.29747428 C37.2257729,5.76239476 36.624488,5.35079514 35.9402672,5.0626754 C35.2560464,4.77455566 34.5303577,4.63049579 33.783935,4.63049579 C33.0582463,4.60991581 32.3532916,4.77455566 31.6898047,5.08325538 C31.2543915,5.28905519 30.8604462,5.57717493 30.5287028,5.92703461 L30.5287028,5.59775491 C30.5287028,5.43311506 30.4665009,5.26847521 30.3628311,5.14499532 C30.2591613,5.02151543 30.0932896,4.93919551 29.9066839,4.93919551 L27.605214,4.93919551 C27.4393423,4.93919551 27.2734706,5.00093545 27.1698008,5.14499532 C27.045397,5.26847521 26.9831951,5.43311506 27.0039291,5.59775491 L27.0039291,20.9915809 C27.0039291,21.1562208 27.066131,21.3208606 27.1698008,21.4443405 C27.2942046,21.5678204 27.4393423,21.6295603 27.605214,21.6295603 L29.9688858,21.6295603 C30.1347575,21.6295603 30.2798953,21.5678204 30.404299,21.4443405 C30.5287028,21.3414406 30.6116387,21.1768007 30.5909047,20.9915809 L30.5909047,15.7231057 C30.9226481,16.0935454 31.3580613,16.3610851 31.8349425,16.525725 C32.4569614,16.7521048 33.0997142,16.8755847 33.763201,16.8755847 C34.5096237,16.8755847 35.2560464,16.7315248 35.9402672,16.4434051 C36.624488,16.1552853 37.2465068,15.7436857 37.7648559,15.2086062 C38.303939,14.6529467 38.7186182,13.9943873 39.0088937,13.2740879 C39.3406371,12.4714687 39.4857749,11.6071094 39.4650409,10.7427502 C39.4857749,9.87839102 39.3199031,9.01403181 39.0088937,8.19083255 C38.6978843,7.51169317 38.283205,6.85313377 37.744122,6.29747428 L37.744122,6.29747428 Z M35.6292577,11.8746492 C35.5048539,12.2039289 35.3182483,12.4920486 35.0694407,12.7595884 C34.5925596,13.2740879 33.9083388,13.5622077 33.203384,13.5622077 C32.8509067,13.5622077 32.4984293,13.5004677 32.1666859,13.3358279 C31.8556764,13.191768 31.565401,13.0065482 31.3165934,12.7595884 C31.0677859,12.5126286 30.8811802,12.2039289 30.7567764,11.8746492 C30.4872349,11.1749298 30.4872349,10.4134705 30.7567764,9.71375117 C30.8811802,9.38447147 31.0885198,9.09635173 31.3165934,8.84939196 C31.565401,8.60243218 31.8556764,8.39663237 32.1666859,8.2525725 C32.4984293,8.10851263 32.8509067,8.0261927 33.203384,8.0261927 C33.5765954,8.0261927 33.9083388,8.08793265 34.2608162,8.2525725 C34.5718256,8.39663237 34.8621011,8.5818522 35.0901747,8.82881197 C35.3389822,9.07577175 35.5048539,9.36389149 35.6499917,9.69317119 C35.8987992,10.4134705 35.8780653,11.1749298 35.6292577,11.8746492 Z M52.1334923,4.95977549 L49.7905545,4.95977549 C49.6246828,4.95977549 49.4588111,5.02151543 49.3551413,5.14499532 C49.2307375,5.26847521 49.1685356,5.43311506 49.1685356,5.61833489 L49.1685356,5.90645463 C48.8782601,5.55659495 48.5050488,5.28905519 48.1111035,5.10383536 C47.4683506,4.79513564 46.7633959,4.65107577 46.0584411,4.65107577 C44.5448618,4.65107577 43.1142184,5.24789523 42.0360523,6.29747428 C41.4762353,6.85313377 41.0408221,7.51169317 40.7505466,8.23199252 C40.4188032,9.03461179 40.2529315,9.898971 40.2736654,10.7839102 C40.2529315,11.6482694 40.4188032,12.5126286 40.7505466,13.3358279 C41.061556,14.0561272 41.4762353,14.7146866 42.0360523,15.2703461 C43.0934844,16.3405051 44.5448618,16.9373246 46.0377072,16.9373246 C46.7426619,16.9579046 47.4476167,16.7932647 48.0903695,16.484565 C48.4843148,16.2787652 48.8782601,16.0112254 49.1685356,15.6819457 L49.1685356,15.9906455 C49.1685356,16.1552853 49.2307375,16.3199252 49.3551413,16.4434051 C49.479545,16.546305 49.6246828,16.6286249 49.7905545,16.6286249 L52.1334923,16.6286249 C52.299364,16.6286249 52.4652357,16.5668849 52.5689055,16.4434051 C52.6933093,16.3199252 52.7555112,16.1552853 52.7555112,15.9906455 L52.7555112,5.63891487 C52.7555112,5.47427502 52.6933093,5.30963517 52.5896395,5.18615529 C52.4652357,5.04209542 52.299364,4.95977549 52.1334923,4.95977549 L52.1334923,4.95977549 Z M48.961196,11.8746492 C48.8367922,12.2039289 48.6501865,12.4920486 48.401379,12.7595884 C48.1525714,13.0065482 47.8830299,13.212348 47.5720204,13.3564079 C46.9085336,13.6651076 46.141377,13.6651076 45.4778902,13.3564079 C45.1668807,13.212348 44.8766052,13.0065482 44.6277977,12.7595884 C44.3789901,12.5126286 44.1923845,12.2039289 44.0679807,11.8746492 C43.8191731,11.1749298 43.8191731,10.4134705 44.0679807,9.71375117 C44.1923845,9.38447147 44.3789901,9.11693171 44.6277977,8.84939196 C44.8766052,8.60243218 45.1461468,8.39663237 45.4778902,8.2525725 C46.141377,7.94387278 46.9085336,7.94387278 47.5512865,8.2525725 C47.8622959,8.39663237 48.1525714,8.5818522 48.380645,8.82881197 C48.6087186,9.07577175 48.7953243,9.36389149 48.940462,9.69317119 C49.2307375,10.4134705 49.2307375,11.1749298 48.961196,11.8746492 L48.961196,11.8746492 Z M75.4799347,10.4752105 C75.1481913,10.1870907 74.754246,9.94013096 74.3395667,9.77549111 C73.9041535,9.59027128 73.4272724,9.46679139 72.9711252,9.36389149 L71.1880044,9.01403181 C70.7318572,8.93171188 70.4001138,8.80823199 70.2342421,8.66417212 C70.0891043,8.56127222 69.9854345,8.39663237 69.9854345,8.21141254 C69.9854345,8.0261927 70.0891043,7.86155285 70.3171779,7.71749298 C70.6281874,7.55285313 70.9599308,7.47053321 71.3124081,7.49111319 C71.7685553,7.49111319 72.2247025,7.5940131 72.6393818,7.75865295 C73.054061,7.94387278 73.4480063,8.12909261 73.8212177,8.37605239 C74.3395667,8.70533209 74.7957139,8.64359214 75.1067234,8.27315248 L75.9568159,7.30589336 C76.1226876,7.14125351 76.2056234,6.9354537 76.2263574,6.7090739 C76.2056234,6.46211413 76.0812196,6.25631431 75.894614,6.09167446 C75.5421366,5.78297474 74.9615856,5.45369504 74.194429,5.12441534 C73.4272724,4.79513564 72.4527761,4.63049579 71.3124081,4.63049579 C70.6074534,4.60991581 69.9232326,4.71281572 69.2597458,4.91861553 C68.6999288,5.10383536 68.1608458,5.37137512 67.6839646,5.7212348 C67.2485514,6.0505145 66.916808,6.46211413 66.6680004,6.95603368 C66.4399268,7.42937325 66.315523,7.94387278 66.315523,8.45837231 C66.315523,9.42563143 66.6057985,10.2076707 67.1863495,10.7839102 C67.7669005,11.3601497 68.5340571,11.7511693 69.4878194,11.9363891 L71.3538761,12.3479888 C71.7478214,12.4097287 72.1625006,12.5332086 72.535712,12.7184284 C72.7430516,12.8007484 72.8674554,13.0065482 72.8674554,13.232928 C72.8674554,13.4387278 72.7637856,13.6239476 72.535712,13.7885875 C72.3076384,13.9532273 71.934427,14.0561272 71.4368119,14.0561272 C70.9391968,14.0561272 70.4208477,13.9532273 69.9647005,13.7268475 C69.5292873,13.5210477 69.135342,13.253508 68.7621307,12.9448082 C68.596259,12.8213283 68.4303873,12.7184284 68.2230476,12.6361085 C68.015708,12.5743686 67.7461665,12.6361085 67.476625,12.8624883 L66.4606608,13.6239476 C66.1703853,13.8297474 66.0252476,14.1796071 66.1081834,14.5088868 C66.1703853,14.8587465 66.4399268,15.1880262 66.9582759,15.5790458 C68.2437816,16.4434051 69.7780949,16.8961646 71.3331421,16.8550047 C72.0588308,16.8550047 72.7845195,16.7726848 73.4687403,16.5668849 C74.0700252,16.3816651 74.6298422,16.1141254 75.1274573,15.7436857 C75.5836045,15.414406 75.9568159,14.9822264 76.2056234,14.4677268 C76.454431,13.9738073 76.5788348,13.4387278 76.5788348,12.8830683 C76.5995687,12.3891487 76.4958989,11.8952292 76.2885593,11.4424696 C76.0812196,11.1131899 75.8116781,10.7633302 75.4799347,10.4752105 L75.4799347,10.4752105 Z M85.7225125,13.2946679 C85.6188426,13.1094481 85.432237,12.9859682 85.2041634,12.9448082 C84.9968238,12.9448082 84.7687502,13.0065482 84.6028785,13.1300281 C84.312603,13.3152479 83.9808596,13.4181478 83.6491162,13.4387278 C83.5454463,13.4387278 83.4210426,13.4181478 83.3173727,13.3975678 C83.192969,13.3769878 83.0892992,13.3152479 83.0063633,13.232928 C82.9026935,13.1300281 82.8197576,13.0065482 82.7575557,12.8830683 C82.6746199,12.6772685 82.633152,12.4714687 82.6538859,12.2656688 L82.6538859,8.04677268 L85.6810445,8.04677268 C85.8676502,8.04677268 86.0335219,7.96445276 86.1579257,7.84097287 C86.2823295,7.71749298 86.3652653,7.57343312 86.3652653,7.38821328 L86.3652653,5.59775491 C86.3652653,5.41253508 86.3030634,5.24789523 86.1579257,5.14499532 C86.0335219,5.02151543 85.8676502,4.95977549 85.7017785,4.95977549 L82.6538859,4.95977549 L82.6538859,2.07857811 C82.6538859,1.91393826 82.591684,1.72871843 82.4672803,1.62581852 C82.3428765,1.52291862 82.1977387,1.46117867 82.031867,1.44059869 L79.6681952,1.44059869 C79.5023235,1.44059869 79.3364518,1.50233863 79.2120481,1.62581852 C79.0876443,1.74929841 79.0047084,1.91393826 79.0047084,2.07857811 L79.0047084,4.95977549 L77.6570008,4.95977549 C77.4911291,4.95977549 77.3252574,5.02151543 77.2008536,5.1655753 C77.0971838,5.28905519 77.0349819,5.45369504 77.0349819,5.61833489 L77.0349819,7.40879326 C77.0349819,7.57343312 77.0971838,7.73807297 77.2008536,7.86155285 C77.3045235,8.00561272 77.4703952,8.06735267 77.6570008,8.06735267 L79.0047084,8.06735267 L79.0047084,13.0888681 C78.9839745,13.6856876 79.1083782,14.282507 79.3571858,14.8175865 C79.5852594,15.2703461 79.8755349,15.6613658 80.2694802,15.9906455 C80.6426915,16.2993452 81.0781047,16.525725 81.5549859,16.6492049 C82.031867,16.7932647 82.5294821,16.8755847 83.0270973,16.8755847 C83.6698501,16.8755847 84.3333369,16.7726848 84.9553558,16.5668849 C85.5359068,16.3816651 86.0542559,16.0523854 86.4689351,15.6202058 C86.7384766,15.352666 86.7592106,14.9204864 86.551871,14.6117867 L85.7225125,13.2946679 Z M98.5361016,4.95977549 L96.1931638,4.95977549 C96.0272921,4.95977549 95.8821544,5.02151543 95.7577506,5.14499532 C95.6333468,5.26847521 95.5711449,5.43311506 95.5711449,5.61833489 L95.5711449,5.90645463 C95.2808694,5.55659495 94.9283921,5.28905519 94.5137128,5.10383536 C93.8709599,4.79513564 93.1660052,4.65107577 92.4610505,4.65107577 C90.9474711,4.65107577 89.5168277,5.24789523 88.4386616,6.29747428 C87.8788446,6.85313377 87.4434314,7.51169317 87.1531559,8.23199252 C86.8214125,9.03461179 86.6555408,9.898971 86.6762748,10.7633302 C86.6555408,11.6276894 86.8214125,12.4920486 87.1531559,13.3152479 C87.4434314,14.0355472 87.8995786,14.6941066 88.4386616,15.2497661 C89.4960937,16.3199252 90.9267372,16.9167446 92.4403165,16.9167446 C93.1452712,16.9373246 93.850226,16.7726848 94.4929788,16.484565 C94.9076581,16.2787652 95.2808694,16.0112254 95.5711449,15.6819457 L95.5711449,15.9906455 C95.5711449,16.1552853 95.6333468,16.3199252 95.7577506,16.4228251 C95.8821544,16.546305 96.0272921,16.6080449 96.1931638,16.6080449 L98.5361016,16.6080449 C98.888579,16.6080449 99.1581205,16.3405051 99.1581205,15.9906455 L99.1581205,5.63891487 C99.1581205,5.47427502 99.0959186,5.30963517 98.9922488,5.18615529 C98.888579,5.04209542 98.7227073,4.95977549 98.5361016,4.95977549 L98.5361016,4.95977549 Z M95.3845392,11.8746492 C95.2601355,12.2039289 95.0735298,12.4920486 94.8247222,12.7595884 C94.5759147,13.0065482 94.3063732,13.212348 93.9953637,13.3564079 C93.6636203,13.5004677 93.3111429,13.5827877 92.9379316,13.5827877 C92.5647203,13.5827877 92.2329769,13.5004677 91.9012334,13.3564079 C91.590224,13.212348 91.2999485,13.0065482 91.051141,12.7595884 C90.8023334,12.5126286 90.6157277,12.2039289 90.5120579,11.8746492 C90.2632504,11.1749298 90.2632504,10.4134705 90.5120579,9.71375117 C90.6364617,9.38447147 90.8230674,9.09635173 91.051141,8.84939196 C91.2999485,8.60243218 91.590224,8.39663237 91.9012334,8.2525725 C92.2329769,8.10851263 92.5854542,8.0261927 92.9379316,8.0261927 C93.290409,8.0261927 93.6428863,8.08793265 93.9953637,8.2525725 C94.3063732,8.39663237 94.5759147,8.5818522 94.8247222,8.82881197 C95.0735298,9.07577175 95.2601355,9.36389149 95.3845392,9.69317119 C95.6540808,10.3928906 95.6540808,11.1749298 95.3845392,11.8746492 L95.3845392,11.8746492 Z M111.391159,13.1300281 L110.043451,12.101029 C109.794644,11.8952292 109.545836,11.8334892 109.338496,11.9158092 C109.151891,11.9981291 108.986019,12.121609 108.840881,12.2656688 C108.550606,12.6155285 108.198128,12.9242283 107.824917,13.191768 C107.410238,13.4181478 106.974825,13.5416277 106.518677,13.5004677 C105.979594,13.5004677 105.481979,13.3564079 105.046566,13.0477081 C104.611153,12.7390084 104.279409,12.3274088 104.113538,11.8129093 C103.989134,11.4630496 103.926932,11.1131899 103.926932,10.7633302 C103.926932,10.3928906 103.989134,10.0430309 104.113538,9.67259121 C104.237941,9.34331151 104.403813,9.05519177 104.652621,8.80823199 C104.901428,8.56127222 105.17097,8.3554724 105.481979,8.23199252 C105.813723,8.08793265 106.1662,8.00561272 106.539411,8.00561272 C106.995559,7.98503274 107.451706,8.10851263 107.845651,8.33489242 C108.239596,8.5818522 108.57134,8.89055192 108.861615,9.26099158 C108.986019,9.40505145 109.151891,9.52853134 109.338496,9.61085126 C109.545836,9.69317119 109.794644,9.63143124 110.043451,9.42563143 L111.391159,8.41721235 C111.55703,8.31431244 111.681434,8.14967259 111.743636,7.96445276 C111.826572,7.75865295 111.805838,7.53227315 111.681434,7.34705332 C111.163085,6.54443405 110.45813,5.88587465 109.608038,5.41253508 C108.716477,4.91861553 107.659045,4.65107577 106.477209,4.65107577 C105.647851,4.65107577 104.818492,4.81571562 104.030602,5.12441534 C103.284179,5.43311506 102.620692,5.86529467 102.060875,6.42095416 C101.501058,6.97661366 101.044911,7.63517306 100.733902,8.37605239 C100.091149,9.91955098 100.091149,11.6482694 100.733902,13.191768 C101.044911,13.9120674 101.480324,14.5912067 102.060875,15.1262862 C103.242711,16.2787652 104.818492,16.8961646 106.477209,16.8961646 C107.659045,16.8961646 108.716477,16.6286249 109.608038,16.1347053 C110.45813,15.6613658 111.183819,15.0028064 111.702168,14.1796071 C111.805838,13.9943873 111.826572,13.7680075 111.76437,13.5827877 C111.681434,13.4181478 111.55703,13.253508 111.391159,13.1300281 L111.391159,13.1300281 Z M123.873004,15.5378859 L120.161625,10.1459308 L123.333921,5.98877456 C123.479059,5.80355472 123.541261,5.53601497 123.458325,5.30963517 C123.396123,5.14499532 123.250986,4.98035547 122.85704,4.98035547 L120.348231,4.98035547 C120.203093,4.98035547 120.057955,5.02151543 119.933551,5.08325538 C119.76768,5.1655753 119.643276,5.28905519 119.56034,5.43311506 L117.030797,8.95229186 L116.429512,8.95229186 L116.429512,0.63797942 C116.429512,0.47333957 116.36731,0.308699719 116.242906,0.185219832 C116.118502,0.0617399439 115.973365,0 115.807493,0 L113.464555,0 C113.298683,0 113.132812,0.0617399439 113.008408,0.185219832 C112.884004,0.308699719 112.821802,0.452759588 112.821802,0.63797942 L112.821802,15.9700655 C112.821802,16.1552853 112.884004,16.2993452 113.008408,16.4228251 C113.132812,16.546305 113.298683,16.6080449 113.464555,16.6080449 L115.807493,16.6080449 C115.973365,16.6080449 116.139236,16.546305 116.242906,16.4228251 C116.36731,16.2993452 116.429512,16.1347053 116.429512,15.9700655 L116.429512,11.9158092 L117.092999,11.9158092 L119.850616,16.1141254 C120.016487,16.4228251 120.327497,16.6080449 120.65924,16.6080449 L123.292454,16.6080449 C123.686399,16.6080449 123.852271,16.4228251 123.935206,16.2581852 C124.038876,16.0112254 124.018142,15.7436857 123.873004,15.5378859 L123.873004,15.5378859 Z M65.4446966,4.95977549 L62.8114833,4.95977549 C62.6041437,4.95977549 62.417538,5.02151543 62.2724002,5.1655753 C62.1479965,5.28905519 62.0650606,5.43311506 62.0235927,5.59775491 L60.0746002,12.7595884 L59.597719,12.7595884 L57.5243227,5.59775491 C57.4828548,5.45369504 57.4206529,5.30963517 57.3169831,5.1655753 C57.1925793,5.02151543 57.0267076,4.93919551 56.8401019,4.93919551 L54.1654207,4.93919551 C53.8129433,4.93919551 53.6056037,5.04209542 53.5019339,5.28905519 C53.439732,5.494855 53.439732,5.7212348 53.5019339,5.92703461 L56.819368,16.0112254 C56.8815699,16.1552853 56.9437717,16.3199252 57.0681755,16.4228251 C57.1925793,16.546305 57.379185,16.6080449 57.5657906,16.6080449 L58.9757001,16.6080449 L58.8512963,16.9373246 L58.5402869,17.8634238 C58.4366171,18.1515435 58.2707454,18.3985033 58.0219378,18.5837231 C57.7938642,18.748363 57.5243227,18.8512629 57.2340472,18.8306829 C56.9852397,18.8306829 56.7571661,18.7689429 56.5290925,18.686623 C56.3010189,18.5837231 56.0936793,18.4602432 55.9070736,18.3161833 C55.7412019,18.1927035 55.5338623,18.1309635 55.3057887,18.1309635 L55.2850547,18.1309635 C55.0362471,18.1515435 54.8081735,18.2750234 54.6837698,18.5014032 L53.8544112,19.7156221 C53.5226678,20.2507016 53.7092735,20.5799813 53.9166131,20.7652011 C54.3727603,21.1768007 54.8911094,21.4855005 55.4716604,21.6707203 C56.1144132,21.8971001 56.7779,22 57.4413869,22 C58.6439567,22 59.6391869,21.6707203 60.4063436,21.0327409 C61.1942342,20.3330215 61.7955191,19.4275023 62.0857946,18.3985033 L65.9423117,5.92703461 C66.0252476,5.70065482 66.0459815,5.47427502 65.9630457,5.26847521 C65.9423117,5.12441534 65.797174,4.95977549 65.4446966,4.95977549 Z" id="Shape" fill="#011B33"></path>
        </g>
    </g>
</svg>