<?xml version="1.0" encoding="UTF-8"?>
<svg width="58px" height="24px" viewBox="0 0 58 24" version="1.1" xmlns="http://www.w3.org/2000/svg" xmlns:xlink="http://www.w3.org/1999/xlink">
    <title>stripe</title>
    <g id="V2" stroke="none" stroke-width="1" fill="none" fill-rule="evenodd">
        <g id="stripe" fill="#6772E5" fill-rule="nonzero">
            <path d="M4.07611111,9.40453938 C4.07611111,8.77970627 4.59166666,8.53938584 5.44555555,8.53938584 C6.67,8.53938584 8.21666666,8.90787717 9.44111111,9.564753 L9.44111111,5.79973297 C8.10388889,5.27102803 6.78277778,5.06275033 5.44555555,5.06275033 C2.175,5.06275033 0,6.76101469 0,9.59679572 C0,14.0186915 6.12222222,13.3137517 6.12222222,15.2202937 C6.12222222,15.9572763 5.47777778,16.1975968 4.57555555,16.1975968 C3.23833334,16.1975968 1.53055555,15.6528705 0.177222222,14.9158879 L0.177222222,18.728972 C1.67555555,19.3698265 3.19,19.6421895 4.57555555,19.6421895 C7.92666666,19.6421895 10.2305556,17.9919894 10.2305556,15.1241656 C10.2144444,10.3497997 4.07611111,11.1989319 4.07611111,9.40453938 Z M14.9672222,1.85847797 L11.0361111,2.69158878 L11.02,15.5246996 C11.02,17.8958611 12.8083334,19.6421895 15.1927778,19.6421895 C16.5138889,19.6421895 17.4805555,19.4018691 18.0122222,19.1134846 L18.0122222,15.8611482 C17.4966666,16.0694259 14.9511111,16.8064085 14.9511111,14.435247 L14.9511111,8.74766354 L18.0122222,8.74766354 L18.0122222,5.33511348 L14.9511111,5.33511348 L14.9672222,1.85847797 Z M23.0227778,6.52069425 L22.765,5.33511348 L19.285,5.33511348 L19.285,19.353805 L23.3127778,19.353805 L23.3127778,9.85313752 C24.2633334,8.61949266 25.8744445,8.84379172 26.3738889,9.0200267 L26.3738889,5.33511348 C25.8583334,5.14285714 23.9733334,4.79038718 23.0227778,6.52069425 Z M27.3566666,5.33511348 L31.4005555,5.33511348 L31.4005555,19.353805 L27.3566666,19.353805 L27.3566666,5.33511348 Z M27.3566666,4.11748998 L31.4005555,3.25233645 L31.4005555,0 L27.3566666,0.849132176 L27.3566666,4.11748998 Z M39.8105555,5.06275033 C38.2316666,5.06275033 37.2166666,5.79973297 36.6527778,6.31241656 L36.4433334,5.31909212 L32.8988889,5.31909212 L32.8988889,24 L36.9266666,23.1508678 L36.9427778,18.6168224 C37.5227778,19.0333778 38.3766666,19.6261682 39.7944445,19.6261682 C42.6783334,19.6261682 45.3044445,17.3190921 45.3044445,12.2403204 C45.2883334,7.59412549 42.63,5.06275033 39.8105555,5.06275033 Z M38.8438889,16.1014686 C37.8933334,16.1014686 37.3294445,15.7650201 36.9427778,15.3484646 L36.9266666,9.40453938 C37.3455555,8.93991989 37.9255555,8.61949266 38.8438889,8.61949266 C40.31,8.61949266 41.325,10.2536716 41.325,12.3524699 C41.325,14.4993324 40.3261111,16.1014686 38.8438889,16.1014686 Z M58,12.400534 C58,8.29906541 56.0022222,5.06275033 52.1838889,5.06275033 C48.3494445,5.06275033 46.0294445,8.29906541 46.0294445,12.3684914 C46.0294445,17.1909212 48.7683334,19.6261682 52.6994445,19.6261682 C54.6166666,19.6261682 56.0666666,19.1935914 57.1622222,18.5847797 L57.1622222,15.3805073 C56.0666666,15.9252336 54.81,16.2616823 53.215,16.2616823 C51.6522222,16.2616823 50.2666666,15.7169559 50.0894445,13.8264353 L57.9677778,13.8264353 C57.9677778,13.6181575 58,12.7850467 58,12.400534 Z M50.0411111,10.8785047 C50.0411111,9.06809079 51.1527778,8.31508677 52.1677778,8.31508677 C53.1505555,8.31508677 54.1977778,9.06809079 54.1977778,10.8785047 L50.0411111,10.8785047 L50.0411111,10.8785047 Z" id="Shape"></path>
        </g>
    </g>
</svg>